<?xml version="1.0" encoding="UTF-8"?>
<svg width="55px" height="60px" viewBox="0 0 55 60" version="1.1" xmlns="http://www.w3.org/2000/svg" xmlns:xlink="http://www.w3.org/1999/xlink">
    <!-- Generator: Sketch 50.2 (55047) - http://www.bohemiancoding.com/sketch -->
    <title>Artboard 1</title>
    <desc>Created with Sketch.</desc>
    <defs></defs>
    <g id="Artboard-1" stroke="none" stroke-width="1" fill="none" fill-rule="evenodd">
        <path d="M22.6272,0 L22.6272,20 C27.0462,20 30.6272,23.582 30.6272,28 L50.6272,28 C50.6272,12.536 38.0912,0 22.6272,0" id="Fill-1" fill-opacity="0.5" fill="#FFFFFF"></path>
        <path d="M30.6272,28 C30.6272,32.418 27.0462,36 22.6272,36 C20.4182,36 18.4192,35.104 16.9712,33.656 L0.0002,50.627 C5.7912,56.418 13.7912,60 22.6272,60 C40.3002,60 54.6272,45.673 54.6272,28 L30.6272,28 Z" id="Fill-3" fill="#FFFFFF"></path>
        <path d="M2.6272,28 C2.6272,33.528 4.8842,38.507 8.5182,42.109 L16.9232,33.704 L16.9712,33.656 C15.5172,32.216 14.6272,30.211 14.6272,28 C14.6272,23.582 18.2092,20 22.6272,20 L22.6272,8 C11.5822,8 2.6272,16.954 2.6272,28" id="Fill-6" fill-opacity="0.75" fill="#FFFFFF"></path>
    </g>
</svg>