<?xml version="1.0" encoding="UTF-8"?>
<svg width="68px" height="56px" viewBox="0 0 68 56" version="1.1" xmlns="http://www.w3.org/2000/svg" xmlns:xlink="http://www.w3.org/1999/xlink">
    <!-- Generator: Sketch 50.2 (55047) - http://www.bohemiancoding.com/sketch -->
    <title>icon</title>
    <desc>Created with Sketch.</desc>
    <defs></defs>
    <g id="icon" stroke="none" stroke-width="1" fill="none" fill-rule="evenodd">
        <g id="blockchain_white" fill="#FFFFFF" fill-rule="nonzero">
            <circle id="Oval" opacity="0.75" cx="22.9090909" cy="8.65454545" r="2.54545455"></circle>
            <circle id="Oval" opacity="0.5" cx="34.1090909" cy="2.54545455" r="2.54545455"></circle>
            <circle id="Oval" cx="45.3090909" cy="8.65454545" r="2.54545455"></circle>
            <path d="M23.418182,52.1730371 C23.4180211,52.3964674 23.5595386,52.5951026 23.7698981,52.6667093 L33.3320575,55.9394616 L33.334717,55.9394616 L33.4447529,55.9759184 C33.4533962,55.9779252 33.4779964,55.9819388 33.500602,55.9866213 L33.5621025,56 L33.6378977,56 C33.6585086,55.9953175 33.679452,55.9906349 33.700063,55.9866213 C33.720674,55.9826078 33.7466039,55.9779252 33.7698743,55.9712359 L33.8676102,55.9377893 L33.8715994,55.9377893 L43.4304344,52.6663748 C43.6404829,52.5946058 43.7817826,52.3962231 43.7818182,52.1730371 L43.7818182,38.4468765 C43.7818364,38.2235693 43.6403457,38.0251061 43.430102,37.9535388 L33.8679427,34.680452 L33.865948,34.680452 L33.7559121,34.6439952 L33.700063,34.6332923 C33.679452,34.6292787 33.6591735,34.6249306 33.6385625,34.6202481 C33.6249327,34.6202481 33.6123002,34.6182413 33.6009974,34.6182413 C33.5882224,34.6179677 33.5754447,34.6186384 33.5627674,34.6202481 C33.5421564,34.6249306 33.521213,34.6296132 33.500602,34.6336268 C33.479991,34.6376403 33.4540611,34.6423229 33.4307907,34.6490122 L33.3330548,34.6824588 L33.3290656,34.6824588 L23.7695657,37.9548767 C23.5595172,38.0266457 23.4182176,38.2250284 23.418182,38.4482144 L23.418182,52.1730371 Z" id="Shape"></path>
            <path d="M21.6366545,38.5529575 C21.6366472,37.6034079 22.2311483,36.7592486 23.1151377,36.4535915 L32.5818182,33.178594 L32.5818182,27.2869121 C32.581823,27.0611992 32.440521,26.8605318 32.2304,26.787852 L22.6669714,23.4793809 L22.6643117,23.4793809 L22.5542649,23.4425262 C22.5456208,23.4404975 22.5210182,23.4364401 22.4984104,23.4317065 C22.4758026,23.4269729 22.4575169,23.4232536 22.4369039,23.4181818 L22.3614338,23.4181818 C22.3404883,23.4232536 22.3198753,23.4276491 22.2989299,23.4317065 C22.2779844,23.4357639 22.2523844,23.4404975 22.2291117,23.4472598 L22.1313662,23.4810715 L22.1273766,23.4810715 L12.5696,26.787852 C12.3595309,26.8604043 12.2182174,27.0609521 12.2181818,27.286574 L12.2181818,41.163894 C12.2183806,41.3895403 12.3596065,41.5900997 12.5696,41.6629541 L21.6383169,44.8 L21.6366545,38.5529575 Z" id="Shape" opacity="0.5"></path>
            <path d="M54.6304287,26.7877987 L45.0681132,23.47938 L45.0654537,23.47938 L44.9554159,23.4425258 C44.9467724,23.4404972 44.9221718,23.4364398 44.8992335,23.4317063 C44.8762951,23.4269727 44.8583433,23.4232535 44.8380644,23.4181818 L44.762268,23.4181818 C44.7413243,23.4232535 44.720713,23.4276489 44.7001017,23.4317063 C44.6794904,23.4357636 44.6532276,23.4404972 44.6302892,23.4472594 L44.5325517,23.4810705 L44.52823,23.4810705 L34.9695713,26.7881368 C34.7595194,26.860688 34.6182174,27.0612326 34.6181818,27.2868509 L34.6181818,33.1787778 L44.0844221,36.4540616 C44.9681561,36.7597025 45.5624674,37.6037018 45.562452,38.5530563 L45.562452,44.8 L54.6304287,41.6626656 C54.8404806,41.5901144 54.9817826,41.3895698 54.9818182,41.1639515 L54.9818182,27.2868509 C54.981823,27.0611416 54.8405325,26.8604774 54.6304287,26.7877987 Z" id="Shape" opacity="0.75"></path>
            <path d="M10.3108029,26.5103436 C10.3107956,25.5710748 10.9052384,24.7360553 11.7891412,24.4337076 L20.3636363,21.4991924 L20.3636363,18.0813887 C20.3636896,17.8582076 20.2225542,17.6597396 20.012585,17.5877319 L10.4497608,14.315082 L10.4471013,14.315082 L10.3370653,14.2786263 C10.328422,14.2766195 10.3038218,14.2726061 10.2808838,14.2679237 L10.2197158,14.2545455 L10.1439206,14.2545455 C10.1229772,14.2592278 10.1023662,14.2639102 10.0817552,14.2679237 C10.0611443,14.2719372 10.0352144,14.2766195 10.0119439,14.2833087 L9.91420803,14.3167542 L9.90988637,14.3167542 L0.35138376,17.5877319 C0.141335251,17.6594987 3.56174889e-05,17.8578752 0,18.0810542 L0,31.8081234 C-1.82180001e-05,32.0314236 0.141472505,32.2298806 0.351716195,32.3014457 L9.91387559,35.5740956 L9.91653507,35.5740956 L10.026571,35.6105513 L10.0824201,35.6212539 C10.1030311,35.6252674 10.1233096,35.6296153 10.1439206,35.6342977 C10.1575504,35.6342977 10.170183,35.6363044 10.1814857,35.6363044 C10.1941502,35.6365774 10.2068173,35.6359066 10.2193833,35.6342977 C10.2403267,35.6296153 10.2609377,35.6249329 10.2818811,35.6209194 C10.2911893,35.6209194 10.3011623,35.6165715 10.3108029,35.6145648 L10.3108029,26.5103436 Z" id="Shape" opacity="0.75"></path>
            <path d="M66.8482952,17.5876369 L57.286448,14.3150802 L57.2837886,14.3150802 L57.1737562,14.2786256 C57.1651132,14.2766189 57.1405138,14.2726056 57.117909,14.2679233 L57.0564105,14.2545455 L56.9809502,14.2545455 C56.9600075,14.2592277 56.9393972,14.2639099 56.9184545,14.2679233 C56.8975118,14.2719367 56.8719151,14.2766189 56.8486455,14.2833078 L56.7509128,14.3167525 L56.7469237,14.3167525 L47.1880683,17.5876369 C46.9778315,17.6591999 46.8363454,17.8576512 46.8363636,18.0809451 L46.8363636,21.501327 L55.4039303,24.4334173 C56.2874778,24.7360725 56.8815577,25.5709612 56.8815554,26.5099941 L56.8815554,35.6142902 C56.8931903,35.6162969 56.903163,35.6179691 56.9187869,35.6213136 C56.9344109,35.624658 56.9596751,35.6296747 56.979953,35.634357 C56.9939148,35.6356947 57.0065469,35.6363636 57.0178493,35.6363636 C57.0291517,35.6363636 57.0417839,35.6356947 57.0557457,35.634357 C57.0766884,35.6296747 57.0972987,35.6249925 57.117909,35.6209791 C57.1385193,35.6169658 57.1644484,35.6122835 57.187718,35.6055946 L57.2854507,35.57215 L57.2897722,35.57215 L66.8479627,32.3009311 C67.0583309,32.2294832 67.1999699,32.031005 67.1999999,31.8076229 L67.1999999,18.0812795 C67.2001607,17.8578627 67.0586479,17.6592393 66.8482952,17.5876369 Z" id="Shape" opacity="0.5"></path>
        </g>
    </g>
</svg>