<?xml version="1.0" encoding="UTF-8"?>
<svg width="60px" height="54px" viewBox="0 0 60 54" version="1.1" xmlns="http://www.w3.org/2000/svg" xmlns:xlink="http://www.w3.org/1999/xlink">
    <!-- Generator: Sketch 50.2 (55047) - http://www.bohemiancoding.com/sketch -->
    <title>data-management</title>
    <desc>Created with Sketch.</desc>
    <defs></defs>
    <g id="Page-1" stroke="none" stroke-width="1" fill="none" fill-rule="evenodd">
        <g id="DataManagement" transform="translate(0.000000, -3.000000)" fill="#FFFFFF" fill-rule="nonzero">
            <g id="data-management" transform="translate(0.000000, 3.000000)">
                <path d="M49.362,5.837 C45.727,5.837 42.781,9.19 42.781,13.327 C42.781,17.464 45.727,20.817 49.362,20.817 C52.997,20.817 55.944,17.464 55.944,13.327 C55.944,9.19 53,5.837 49.362,5.837 Z M49.322,17.307 C47.778,17.307 46.474,15.587 46.474,13.551 C46.474,11.515 47.778,9.8 49.322,9.8 C50.866,9.8 52.169,11.52 52.169,13.556 C52.169,15.592 50.865,17.307 49.322,17.307 Z" id="Shape" opacity="0.75"></path>
                <path d="M12.4,17.321 L13.1,17.321 C12.754,13.549 9.986,10.6 6.582,10.6 C2.947,10.6 0,13.95 0,18.086 C0,22.222 2.947,25.576 6.582,25.576 C9.15161421,25.4890847 11.430215,23.9001738 12.4,21.519 L12.4,17.321 Z M6.582,21.842 C5.038,21.842 3.734,20.122 3.734,18.086 C3.734,16.05 5.034,14.33 6.582,14.33 C8.13,14.33 9.429,16.05 9.429,18.086 C9.429,20.122 8.125,21.842 6.582,21.842 Z" id="Shape" opacity="0.75"></path>
                <g id="Group" opacity="0.75" transform="translate(22.000000, 22.000000)">
                    <polygon id="Shape" points="4.4 4.242 1.629 6.21 0.077 4.125 4.977 0.404 8.128 0.404 8.128 15.327 4.4 15.327"></polygon>
                </g>
                <g id="Group" opacity="0.75" transform="translate(25.000000, 0.000000)">
                    <polygon id="Shape" points="5.129 3.838 2.363 5.806 0.811 3.722 5.712 0 8.862 0 8.862 14.924 5.129 11.19"></polygon>
                </g>
                <g id="Group" opacity="0.75" transform="translate(40.000000, 37.000000)">
                    <polygon id="Shape" points="5.064 4.166 2.3 6.133 0.748 4.049 5.648 0.327 8.8 0.327 8.8 15.251 5.064 15.251"></polygon>
                </g>
                <g id="Group" opacity="0.75" transform="translate(9.000000, 38.000000)">
                    <path d="M7.29,0.83 C3.655,0.83 0.709,4.183 0.709,8.32 C0.709,12.457 3.655,15.81 7.29,15.81 C10.925,15.81 13.872,12.456 13.872,8.32 C13.872,4.184 10.925,0.83 7.29,0.83 Z M7.249,12.3 C5.706,12.3 4.402,10.58 4.402,8.544 C4.402,6.508 5.702,4.788 7.249,4.788 C8.796,4.788 10.097,6.508 10.097,8.544 C10.097,10.58 8.793,12.3 7.249,12.3 Z" id="Shape"></path>
                </g>
                <path d="M52.333,23.6 C51.7062324,20.1732242 49.4306513,17.2756019 46.2501348,15.8543542 C43.0696182,14.4331065 39.3929433,14.6708996 36.422,16.49 C34.2459872,11.0715738 29.0099114,7.50656921 23.171,7.468 C7.417,8.3 9.082,23.633 9.082,23.633 C3.66972205,25.3885282 0.0733877881,30.5149428 0.264752119,36.2015948 C0.45611645,41.8882468 4.38894752,46.7612938 9.907,48.149 C9.62555448,46.8664067 9.64437772,45.5361167 9.962,44.262 C6.32799195,42.9547483 3.92850596,39.4801138 3.99315721,35.6186708 C4.05780847,31.7572279 6.57226699,28.3648664 10.248,27.18 L13.084,26.225 L12.8,23.251 C12.8,23.199 12.328,17.978 15.3,14.523 C17.013,12.532 19.685,11.415 23.242,11.204 C27.5431984,11.3753796 31.3857401,13.9422238 33.191,17.85 L34.655,21.423 L37.672,19.783 C38.9722544,19.0879619 40.4170987,18.7068024 41.891,18.67 C45.2064358,18.6731779 48.0509249,21.0339275 48.665,24.292 L49.024,26.192 L50.785,26.992 C54.7884066,28.8002726 56.9848715,33.1592437 56.0561452,37.4527949 C55.1274188,41.746346 51.325841,44.8078968 46.933,44.8 L22.737,44.8 C22.8268526,45.2993221 22.8720313,45.8056579 22.872,46.313 C22.8730923,47.0631722 22.77388,47.810123 22.577,48.534 L46.931,48.534 C53.080845,48.5418646 58.401715,44.255386 59.7031223,38.2448124 C61.0045296,32.2342388 57.9333012,26.1307059 52.331,23.594 L52.333,23.6 Z" id="Shape"></path>
            </g>
        </g>
    </g>
</svg>