<?xml version="1.0" encoding="utf-8"?>
<svg xmlns="http://www.w3.org/2000/svg" xmlns:xlink="http://www.w3.org/1999/xlink" x="0px" y="0px"
	 viewBox="0 0 2024 1612" style="enable-background:new 0 0 2024 1612;" xml:space="preserve">
  <g id="Layer_2">
    <path class="st1" fill="#FFFFFF" fill-opacity="3.000000e-02" d="M521.3,757.2c91.5-76.5,655.9,223.5,655.9,363c0,165.5-552.4,572.6-712.4,477.6
      C302.6,1501.5,403.5,855.7,521.3,757.2z"/>
    <path class="st1" fill="#FFFFFF" fill-opacity="3.000000e-02" d="M89.8,1181.8c-146-69.1-105-905.4,57.9-1001c162.1-95.1,1092.4,336.8,1034,582
      C1125.7,997.7,275.8,1269.8,89.8,1181.8z"/>
    <path class="st1" fill="#FFFFFF" fill-opacity="3.000000e-02" d="M1615.1,1421.8c-170.3,95.8-967.3-529.7-947.7-757.5c19.5-226.6,1096.8-843.3,1298-614.1
      C2158.2,270,1832.1,1299.7,1615.1,1421.8z"/>
  </g>
</svg>
