<?xml version="1.0" encoding="UTF-8"?>
<svg width="60px" height="60px" viewBox="0 0 60 60" version="1.1" xmlns="http://www.w3.org/2000/svg" xmlns:xlink="http://www.w3.org/1999/xlink">
    <!-- Generator: Sketch 50.2 (55047) - http://www.bohemiancoding.com/sketch -->
    <title>internet-of-things</title>
    <desc>Created with Sketch.</desc>
    <defs></defs>
    <g id="Page-1" stroke="none" stroke-width="1" fill="none" fill-rule="evenodd">
        <g id="InternetOfThings" fill="#FFFFFF" fill-rule="nonzero">
            <g id="internet-of-things">
                <g id="Group" opacity="0.5">
                    <path d="M30,0.967741935 C33.8770468,0.942090261 37.717929,1.71421958 41.283871,3.23612903 C44.7248237,4.6988374 47.8602148,6.79522605 50.5267742,9.41612903 C56.0022525,14.8627439 59.0658889,22.2769601 59.0322581,30 C59.0573303,33.8769911 58.2852244,37.7177565 56.763871,41.283871 C53.8021821,48.2553614 48.2514904,53.8060531 41.28,56.7677419 C37.7146875,58.2868773 33.8753815,59.0576371 30,59.0322581 C22.2769601,59.0658889 14.8627439,56.0022525 9.41612903,50.5267742 C6.79386115,47.8613258 4.69728922,44.7256605 3.23612903,41.283871 C1.71294566,37.7183245 0.940762495,33.8771744 0.967741935,30 C0.944907503,26.1047661 1.7167665,22.2458004 3.23612903,18.6590323 C7.76863919,7.90028873 18.3255784,0.922005309 30,0.967741935 Z M30,55.4032258 C33.3911943,55.4221166 36.7503973,54.7469827 39.8709677,53.4193548 C45.9882752,50.8535111 50.8535111,45.9882752 53.4193548,39.8709677 C56.0657931,33.5597484 56.0657931,26.4499291 53.4193548,20.1387097 C50.8535111,14.0214023 45.9882752,9.15616633 39.8709677,6.59032258 C36.7508125,5.26029112 33.391774,4.58189708 30,4.59677419 C26.5909605,4.56792936 23.2126864,5.24332062 20.0767742,6.58064516 C13.9886826,9.17146766 9.14845084,14.0307896 6.5816129,20.1290323 C3.93517461,26.4402516 3.93517461,33.5500709 6.5816129,39.8612903 C9.14845084,45.959533 13.9886826,50.8188549 20.0767742,53.4096774 C23.2116978,54.7512312 26.590191,55.429961 30,55.4032258 Z" id="Shape"></path>
                </g>
                <path d="M31.0209677,31.9277419 L33.1751613,33.7422581 L33.1751613,37.8251613 L27.8448387,43.0422581 L27.6183871,43.7196774 L27.2787097,45.3067742 L26.8248387,47.0080645 L26.7096774,48.3716129 C26.7094787,48.4508723 26.7287531,48.528967 26.7658065,48.5990323 C26.8013379,48.6693698 26.8208378,48.7467083 26.8229032,48.8254839 L26.3690323,49.2793548 C26.1726865,49.2535381 25.9733133,49.2933447 25.8019355,49.3925806 L24.7829032,47.1290323 L23.5354839,44.2896774 C23.2849721,43.3224095 23.1143977,42.3361852 23.0254839,41.3409677 C22.9125806,40.2067742 22.7425806,38.9593548 22.5154839,37.5987097 L19.3393548,34.7632258 L22.1748387,31.2474194 L20.9274194,29.6593548 C19.0897752,29.6819411 17.3246829,28.9431874 16.0509677,27.6183871 L15.2574194,27.0512903 L14.4629032,26.1445161 L15.7103226,28.4119355 L14.9167742,28.7525806 L13.2154839,25.3548387 L13.556129,22.406129 L12.8787097,20.1387097 L10.8387097,18.8864516 L10.3858065,17.6390323 C10.5057609,16.9296559 10.8440613,16.2753828 11.3535484,15.7674194 C12.0394549,14.9279387 12.7982132,14.1507215 13.6209677,13.4448387 C14.4193514,12.7405738 15.2684122,12.0959344 16.1612903,11.516129 C16.7250367,11.0904112 17.3889541,10.8171119 18.0890323,10.7225806 C18.8802773,10.7584263 19.6459363,11.0137577 20.3003226,11.46 C20.9189226,11.8933569 21.6446857,12.1484452 22.3983871,12.1974194 C22.3156918,12.2903451 22.2747605,12.413139 22.2851613,12.5370968 C22.2493797,12.7830884 22.3918323,13.0202395 22.6258065,13.1041935 L20.8112903,17.1870968 L23.0796774,17.6409677 L24.8941935,15.8264516 L28.0693548,16.0529032 L28.7467742,17.7541935 L26.9322581,19.6819355 L26.9322581,20.9293548 L27.9532258,21.0425806 L28.5203226,20.1358065 L30.5670968,18.7741935 L30.5670968,19.6819355 L31.473871,21.1558065 L30.453871,22.1767742 L31.1312903,22.743871 L29.6564516,22.8570968 L30.2235484,23.9912903 L27.2758065,25.4651613 L27.7287097,27.393871 L26.8219355,27.393871 L26.3680645,25.4651613 L23.9893548,25.4651613 L23.6496774,26.1425806 L22.6287097,25.6887097 L21.153871,27.2767742 L22.4012903,28.6374194 L22.2880645,30.2245161 L23.6496774,31.1322581 L31.0209677,31.9277419 Z" id="Shape" opacity="0.75"></path>
                <path d="M32.6129032,12.0812903 C33.4106463,11.278757 34.2858824,10.5571734 35.2258065,9.92709677 C36.1329032,9.32258065 37.1158065,8.71774194 38.1745161,8.11258065 C38.9407694,8.8861667 39.8221775,9.53644997 40.7874194,10.0403226 C40.3864512,10.2037479 40.0058336,10.4132175 39.6532258,10.6645161 C39.1570115,11.0593989 38.7346789,11.539069 38.4058065,12.0812903 L37.2580645,13.8958065 L36.3503226,15.3706452 L35.3303226,16.0480645 C34.8764516,16.0480645 34.5154839,15.7074194 34.2532258,15.0270968 C33.9909677,14.3467742 33.8554839,14.0458065 33.8554839,14.1203226 C33.413788,14.0947441 32.9758104,14.2140071 32.6080645,14.46 C32.2889302,14.202881 31.8818008,14.0809506 31.473871,14.1203226 C31.3579106,14.1141062 31.2419899,14.1332612 31.1341935,14.1764516 C31.0263936,14.2208933 30.9099476,14.2404113 30.7935484,14.2335484 C31.3363317,13.4646439 31.9450859,12.7445006 32.6129032,12.0812903 Z" id="Shape" opacity="0.75"></path>
                <polygon id="Shape" opacity="0.75" points="44.516129 14.1232258 43.2687097 14.3496774 43.7225806 12.5351613 45.0832258 12.5351613 45.3096774 13.4429032"></polygon>
                <path d="M51.0967742,24.7829032 C52.0487047,25.2254928 52.6650677,26.1720099 52.6848387,27.2216129 C52.8194965,28.2561459 52.8951029,29.2975108 52.9112903,30.3406452 C52.9361919,33.0250552 52.3546337,35.6804406 51.21,38.1087097 C50.0758065,40.4906452 48.9790323,42.7777419 47.9196774,44.97 C47.6922581,44.97 47.5790323,44.7058065 47.5790323,44.1754839 C47.6127221,43.1853113 47.7266438,42.1995006 47.9196774,41.2277419 C48.1451288,39.9546208 48.2587877,38.6642193 48.2593548,37.3712903 L48.2593548,36.4645161 L48.0329032,35.4435484 L46.443871,32.8354839 L42.1345161,31.8145161 L41.0003226,29.4329032 L41.7948387,25.6906452 C42.3967742,25.5396774 43.0596774,25.4070968 43.7787097,25.293871 C44.743722,25.0961668 45.678078,24.7707207 46.5570968,24.326129 C46.706403,24.4772055 46.9118923,24.559261 47.1241935,24.5525806 C47.3710749,24.5518392 47.6175599,24.5327544 47.8616129,24.4954839 C48.143516,24.4570648 48.427751,24.4383099 48.7122581,24.4393548 C49.1115871,24.4420736 49.5099006,24.479962 49.9025806,24.5525806 C50.3174194,24.6319355 50.7154839,24.7087097 51.0967742,24.7829032 Z" id="Shape" opacity="0.75"></path>
                <polygon id="Shape" opacity="0.75" points="50.186129 23.0825806 51.2070968 23.0825806 51.093871 23.9893548"></polygon>
                <path d="M49.8464516,18.4325806 C49.9954839,18.8119355 50.1474194,19.17 50.3003226,19.5096774 C50.4532258,19.8493548 50.6012903,20.2470968 50.7532258,20.7009677 L49.7332258,21.6077419 L48.0319355,21.2680645 L47.4648387,23.0825806 L45.3096774,22.1748387 L46.5570968,20.2470968 L49.2793548,20.2470968 L49.2793548,18.8864516 L49.8464516,18.4325806 Z" id="Shape" opacity="0.75"></path>
                <polygon id="Shape" opacity="0.75" points="46.5570968 17.7522581 46.2174194 16.8445161 46.6712903 16.0509677 47.2383871 16.9577419"></polygon>
                <polygon id="Shape" opacity="0.75" points="48.1451613 16.5048387 47.4648387 15.483871 47.8045161 14.4629032 49.9596774 16.8445161 48.9387097 17.8654839 47.8045161 17.8654839 48.8254839 16.7312903"></polygon>
                <path d="M55.0393548,51.3425806 C55.5242718,51.8528459 55.5242718,52.6536057 55.0393548,53.163871 L53.1774194,54.9851613 C52.9553912,55.2454563 52.6291993,55.3936609 52.2870968,55.3896774 C51.9320849,55.3998611 51.5909336,55.2516269 51.356129,54.9851613 L46.3374194,49.9664516 L46.3374194,52.4351613 C46.3381906,52.875749 46.1636418,53.2985414 45.8522804,53.610266 C45.540919,53.9219905 45.1183302,54.0970319 44.6777419,54.0967742 C44.3863447,54.0982001 44.0999139,54.0213283 43.8483871,53.8741935 C43.5941426,53.7290775 43.3897146,53.5104813 43.2619355,53.2470968 L43.2212903,53.1658065 L43.1806452,53.0845161 C42.3419355,50.9554839 41.5458065,48.9319355 40.7922581,47.013871 C40.4696774,46.2048387 40.1393548,45.3751613 39.8012903,44.5248387 C39.4632258,43.6745161 39.1406452,42.8516129 38.8335484,42.056129 C38.5225806,41.2606452 38.2322581,40.5254839 37.9625806,39.8506452 C37.6929032,39.1758065 37.4770968,38.5951613 37.3151613,38.1087097 C37.2312745,37.9134339 37.26218,37.6877866 37.3954839,37.5222581 C37.517234,37.3535523 37.7139208,37.2552089 37.9219355,37.2590323 C37.9915986,37.256664 38.0608535,37.2705813 38.1241935,37.2996774 C38.61,37.4616129 39.1906452,37.6774194 39.866129,37.9470968 C40.5416129,38.2167742 41.2703226,38.5 42.0522581,38.7967742 C42.8341935,39.0941935 43.6570968,39.4045161 44.5209677,39.7277419 C45.3848387,40.0509677 46.2212903,40.3735484 47.0303226,40.6954839 C48.9180645,41.4245161 50.9280645,42.2067742 53.0603226,43.0422581 L53.1416129,43.0829032 L53.1822581,43.0829032 C53.5210751,43.2602881 53.7913595,43.5452101 53.9506452,43.8929032 C54.1136559,44.2472755 54.1564717,44.6451901 54.0725806,45.026129 C53.9711818,45.3916058 53.7592419,45.7167831 53.4658065,45.9570968 C53.1821974,46.1945611 52.8234361,46.3235231 52.4535484,46.3209677 L49.98,46.3209677 L55.0393548,51.3425806 Z" id="Shape"></path>
            </g>
        </g>
    </g>
</svg>