<?xml version="1.0" encoding="UTF-8"?>
<svg width="60px" height="60px" viewBox="0 0 60 60" version="1.1" xmlns="http://www.w3.org/2000/svg" xmlns:xlink="http://www.w3.org/1999/xlink">
    <!-- Generator: Sketch 50.2 (55047) - http://www.bohemiancoding.com/sketch -->
    <title>machine-learning</title>
    <desc>Created with Sketch.</desc>
    <defs></defs>
    <g id="Page-1" stroke="none" stroke-width="1" fill="none" fill-rule="evenodd">
        <g id="MachineLearning" fill="#FFFFFF" fill-rule="nonzero">
            <g id="machine-learning">
                <path d="M57.1220455,29.3522727 C58.9647321,27.7802371 60.018202,25.4740092 60,23.0519318 C60,18.9719318 57.1776136,15.6446591 53.5452273,15.1585227 C53.784559,14.3795678 53.9108467,13.5702935 53.9202273,12.7554545 C53.9202273,8.34170455 50.6290909,4.76386364 46.5688636,4.76386364 C46.3622727,4.76386364 46.1679545,4.81193182 45.9657955,4.83 C44.8390909,1.99022727 42.2444318,0 39.2181818,0 C32.715,0 30.1704545,3.84204545 30.1704545,7.06909091 L30.1704545,15.4431818 L35.0730682,10.5402273 C34.6721091,9.90688742 34.4504874,9.17663182 34.4318182,8.42727273 C34.4318182,6.07378658 36.3396957,4.16590909 38.6931818,4.16590909 C41.046668,4.16590909 42.9545455,6.07378658 42.9545455,8.42727273 C42.9545455,10.7807589 41.046668,12.6886364 38.6931818,12.6886364 C37.9435602,12.6699705 37.2130551,12.4482269 36.5795455,12.0470455 L31.2357955,17.3911364 L31.2357955,28.6704545 L35.3723864,28.6704545 L35.3723864,26.8438636 L35.3785227,26.8438636 L39.1588636,23.0635227 C38.8625039,22.4904519 38.7030999,21.8564534 38.6931818,21.2113636 C38.6931818,18.8578775 40.6010593,16.95 42.9545455,16.95 C45.3080316,16.95 47.2159091,18.8578775 47.2159091,21.2113636 C47.2159091,23.5648498 45.3080316,25.4727273 42.9545455,25.4727273 C42.0975998,25.4515667 41.2681931,25.1657697 40.5801136,24.6545455 L37.5030682,27.7315909 L37.5030682,28.6704545 L47.4310227,28.6704545 C47.8901497,26.8048796 49.5560946,25.4882932 51.4772727,25.4727273 C53.8307589,25.4727273 55.7386364,27.3806048 55.7386364,29.7340909 C55.7386364,32.0875771 53.8307589,33.9954545 51.4772727,33.9954545 C49.5566765,33.9798435 47.8910264,32.6641919 47.4310227,30.7994318 L37.5030682,30.7994318 L37.5030682,31.7911364 L40.5463636,34.8354545 C41.2410796,34.3097304 42.0835691,34.0158609 42.9545455,33.9954545 C45.3080316,33.9954545 47.2159091,35.903332 47.2159091,38.2568182 C47.2159091,40.6103043 45.3080316,42.5181818 42.9545455,42.5181818 C40.6010593,42.5181818 38.6931818,40.6103043 38.6931818,38.2568182 C38.7014257,37.6248488 38.8529571,37.0029876 39.1363636,36.4380682 L35.3727273,32.6730682 L35.3727273,30.7994318 L31.2357955,30.7994318 L31.2357955,42.0770455 L36.5795455,47.4204545 C37.2130181,47.0192365 37.9435652,46.797598 38.6931818,46.7792045 C41.046668,46.7792045 42.9545455,48.687082 42.9545455,51.0405682 C42.9545455,53.3940543 41.046668,55.3019318 38.6931818,55.3019318 C36.3396957,55.3019318 34.4318182,53.3940543 34.4318182,51.0405682 C34.4503647,50.2909762 34.6719912,49.560469 35.0730682,48.9269318 L30.1704545,44.0246591 L30.1704545,50.0993182 C30.1704545,56.7075 35.1582955,59.6273864 39.2181818,59.6273864 C42.3968182,59.6273864 45.0794318,57.4213636 46.1045455,54.3511364 C46.2610227,54.3620455 46.4113636,54.4022727 46.5692045,54.4022727 C50.6294318,54.4022727 53.9205682,50.8227273 53.9205682,46.4110227 C53.9161272,45.439099 53.7459604,44.475051 53.4173864,43.5603409 C57.1111364,43.1372727 60,39.7806818 60,35.6532955 C60.0184039,33.2309803 58.9649155,30.9244621 57.1220455,29.3522727 Z" id="Shape"></path>
                <path d="M25.9090909,51.0409091 C25.9090909,53.3943952 24.0012134,55.3022727 21.6477273,55.3022727 C19.2942411,55.3022727 17.3863636,53.3943952 17.3863636,51.0409091 C17.3863636,48.6874229 19.2942411,46.7795455 21.6477273,46.7795455 C22.3973439,46.7979389 23.127891,47.0195774 23.7613636,47.4207955 L29.1051136,42.0770455 L29.1051136,30.7994318 L24.5314773,30.7994318 L24.5314773,32.625 L24.5253409,32.625 L21.0064773,36.1431818 C21.4075543,36.776719 21.6291807,37.5072262 21.6477273,38.2568182 C21.6477273,40.6103043 19.7398498,42.5181818 17.3863636,42.5181818 C15.0328775,42.5181818 13.125,40.6103043 13.125,38.2568182 C13.125,35.903332 15.0328775,33.9954545 17.3863636,33.9954545 C18.1359803,34.013848 18.8665274,34.2354865 19.5,34.6367045 L22.4007955,31.7355682 L22.4007955,30.7994318 L12.9098864,30.7994318 C12.4498827,32.6641919 10.7842325,33.9798435 8.86363636,33.9954545 C6.51015021,33.9954545 4.60227273,32.0875771 4.60227273,29.7340909 C4.60227273,27.3806048 6.51015021,25.4727273 8.86363636,25.4727273 C10.7848144,25.4882932 12.4507594,26.8048796 12.9098864,28.6704545 L22.4007955,28.6704545 L22.4007955,27.6818182 L19.5310227,24.8120455 C18.8905437,25.2254094 18.1484224,25.4540267 17.3863636,25.4727273 C15.0328775,25.4727273 13.125,23.5648498 13.125,21.2113636 C13.125,18.8578775 15.0328775,16.95 17.3863636,16.95 C19.7398498,16.95 21.6477273,18.8578775 21.6477273,21.2113636 C21.6297842,21.9482837 21.4156042,22.6670809 21.0272727,23.2936364 L24.5297727,26.7954545 L24.5314773,26.7954545 L24.5314773,28.6704545 L29.1051136,28.6704545 L29.1051136,17.3911364 L23.7613636,12.0470455 C23.127854,12.4482269 22.3973489,12.6699705 21.6477273,12.6886364 C19.9241666,12.6886364 18.3703188,11.6503884 17.7107406,10.058026 C17.0511625,8.46566353 17.4157467,6.63277506 18.6344881,5.4140336 C19.8532296,4.19529214 21.6861181,3.83070796 23.2784805,4.49028608 C24.870843,5.14986421 25.9090909,6.70371202 25.9090909,8.42727273 C25.8905444,9.17686474 25.6689179,9.90737189 25.2678409,10.5409091 L30.1704545,15.4431818 L30.1704545,7.06909091 C30.1704545,3.84204545 27.6259091,0 21.1227273,0 C18.0964773,0 15.5018182,1.99022727 14.3727273,4.83 C14.1705682,4.81193182 13.97625,4.76386364 13.7696591,4.76386364 C9.70943182,4.76386364 6.41829545,8.34340909 6.41829545,12.7554545 C6.42767604,13.5702935 6.5539637,14.3795678 6.79329545,15.1585227 C3.16329545,15.6446591 0.340909091,18.9719318 0.340909091,23.0519318 C0.32270713,25.4740092 1.37617695,27.7802371 3.21886364,29.3522727 C1.37599364,30.9244621 0.322505218,33.2309803 0.340909091,35.6532955 C0.340909091,39.7806818 3.22977273,43.1372727 6.92318182,43.5603409 C6.5946078,44.475051 6.424441,45.439099 6.42,46.4110227 C6.42,50.8244318 9.71113636,54.4022727 13.7713636,54.4022727 C13.9305682,54.4022727 14.0781818,54.3620455 14.2360227,54.3511364 C15.2614773,57.4213636 17.9440909,59.6273864 21.1223864,59.6273864 C25.1822727,59.6273864 30.1701136,56.7075 30.1701136,50.0993182 L30.1701136,44.0246591 L25.2678409,48.9272727 C25.6689179,49.5608099 25.8905444,50.2913171 25.9090909,51.0409091 Z" id="Shape" opacity="0.5"></path>
            </g>
        </g>
    </g>
</svg>