<?xml version="1.0" encoding="UTF-8"?>
<svg width="59px" height="60px" viewBox="0 0 59 60" version="1.1" xmlns="http://www.w3.org/2000/svg" xmlns:xlink="http://www.w3.org/1999/xlink">
    <!-- Generator: Sketch 50.2 (55047) - http://www.bohemiancoding.com/sketch -->
    <title>master-data</title>
    <desc>Created with Sketch.</desc>
    <defs></defs>
    <g id="Page-1" stroke="none" stroke-width="1" fill="none" fill-rule="evenodd">
        <g id="MasterData" transform="translate(-1.000000, 0.000000)" fill="#FFFFFF" fill-rule="nonzero">
            <g id="master-data" transform="translate(1.000000, 0.000000)">
                <path d="M27.4613115,9.81540984 L27.4288525,9.77901639 C26.8483208,9.19594168 26.1483206,8.74560599 25.3770492,8.45901639 C23.3672729,7.72035013 21.2338622,7.37635936 19.0937705,7.44590164 C16.9460079,7.37680855 14.8049548,7.72073941 12.7868852,8.45901639 C12.0065253,8.73385562 11.3044839,9.19389528 10.7409836,9.79967213 C10.208975,10.3607613 9.90677557,11.100992 9.89409836,11.8740984 L9.89409836,25.5118033 C9.89994123,26.2731596 10.2043964,27.0018035 10.7419672,27.5409836 C11.3002859,28.1441283 11.99708,28.6022434 12.7721311,28.8757377 C14.7944512,29.617677 16.9407902,29.9629881 19.0937705,29.8927869 C21.2310361,29.960656 23.3613549,29.6160113 25.3681967,28.8777049 C26.1414838,28.5908784 26.8441964,28.1414106 27.4288525,27.5596721 L27.4603279,27.5242623 C27.9530716,26.9684307 28.2319974,26.2554266 28.2472131,25.5127869 L28.2472131,11.8701639 C28.2374456,11.1136734 27.9588693,10.3853305 27.4613115,9.81540984 Z M16.3062295,26.7806557 C15.5626998,26.6802085 14.8302846,26.5099483 14.1186885,26.2721311 C13.7232595,26.1130013 13.3492243,25.9051673 13.0052459,25.6534426 C12.93455,25.6024416 12.8716031,25.5414826 12.8183607,25.472459 L12.8183607,24.3698361 C13.3624116,24.5967084 13.9251956,24.7757461 14.5003279,24.904918 C15.2066923,25.0628214 15.9221612,25.1768103 16.642623,25.2462295 C17.3862295,25.3209836 18.2036066,25.3593443 19.0721311,25.3593443 C19.9406557,25.3593443 20.7570492,25.3209836 21.5016393,25.2462295 C22.2221647,25.176821 22.9376545,25.0625003 23.6439344,24.9039344 C24.2191593,24.7755385 24.781982,24.5968176 25.3259016,24.3698361 L25.3259016,25.4754098 C25.2726592,25.5444334 25.2097123,25.6053924 25.1390164,25.6563934 C24.7948021,25.9077494 24.4208144,26.1155571 24.0255738,26.275082 C23.3136397,26.5128917 22.5808988,26.683151 21.8370492,26.7836066 C20.0022202,27.0380266 18.1410585,27.0380266 16.3062295,26.7836066 L16.3062295,26.7806557 Z M19.0721311,10.4527869 C20.74597,10.3755425 22.419736,10.6069356 24.0098361,11.1354098 C24.480475,11.2923874 24.9151529,11.5414912 25.2885246,11.8681967 C25.2395873,11.9232536 25.1859414,11.9739374 25.1281967,12.0196721 C24.8025634,12.2652392 24.4395722,12.456864 24.0531148,12.5872131 C23.3332828,12.8258149 22.5926644,12.9963975 21.8409836,13.0967213 C20.9243879,13.2257244 19.9997218,13.288837 19.0740984,13.2855738 C18.1484738,13.2888708 17.2238053,13.225758 16.3072131,13.0967213 C15.5588833,12.9971417 14.8215515,12.8275455 14.104918,12.5901639 C13.7137842,12.4592879 13.3464112,12.2659687 13.0170492,12.0177049 C12.959631,11.9723027 12.9063114,11.9219453 12.8577049,11.8672131 C13.2309384,11.5403138 13.6656572,11.2911865 14.1363934,11.1344262 C15.7258423,10.6062003 17.3990389,10.3754605 19.0721311,10.4537705 L19.0721311,10.4527869 Z M16.6406557,20.6901639 C17.4546189,20.784084 18.2734281,20.8297376 19.0927869,20.8268852 C20.5189742,20.84022 21.9425895,20.7030677 23.34,20.4177049 C24.0239621,20.2739274 24.6947946,20.073566 25.3455738,19.8186885 L25.3268852,20.8829508 C25.2713994,20.9596029 25.2051429,21.0278471 25.1301639,21.0855738 C24.7940947,21.3412957 24.4243873,21.5494836 24.0314754,21.7042623 C23.3235928,21.9369928 22.5939734,22.0974827 21.8537705,22.1832787 C20.0077698,22.4075402 18.1414106,22.4075402 16.2954098,22.1832787 C15.5555271,22.0974905 14.8262331,21.9369997 14.1186885,21.7042623 C13.7257766,21.5494836 13.3560692,21.3412957 13.02,21.0855738 C12.945437,21.0296516 12.8792009,20.9634154 12.8232787,20.8888525 L12.8232787,19.7921311 L12.9481967,19.8403279 C13.4608542,20.0315816 13.9832149,20.1957427 14.5131148,20.3321311 C15.2155481,20.488588 15.9257038,20.6080964 16.6406557,20.6901639 Z M25.3268852,16.4055738 C25.2733426,16.4749517 25.2100674,16.5362392 25.1390164,16.587541 C24.795038,16.8392656 24.4210028,17.0470997 24.0255738,17.2062295 C23.3135808,17.4440492 22.5808701,17.6146309 21.8370492,17.7157377 C20.9212302,17.8460584 19.9971702,17.9098321 19.0721311,17.9065574 C18.1467643,17.9098658 17.2223749,17.8460921 16.3062295,17.7157377 C15.5627077,17.6147527 14.8303121,17.4441677 14.1186885,17.2062295 C13.7228686,17.0472755 13.3484868,16.8394324 13.0042623,16.587541 C12.934147,16.5365719 12.8715644,16.4759761 12.8183607,16.407541 L12.8183607,15.3029508 L12.9432787,15.3511475 C13.4529206,15.5387173 13.976062,15.6873408 14.5081967,15.7957377 C15.2123681,15.9527333 15.9241207,16.0735474 16.6406557,16.1577049 C17.4546399,16.251278 18.273448,16.2966031 19.0927869,16.2934426 C20.6302965,16.3070424 22.164182,16.142002 23.6636066,15.8016393 C24.1987845,15.6925746 24.7248921,15.5429627 25.237377,15.3540984 L25.342623,15.3137705 L25.3268852,16.4055738 Z" id="Shape"></path>
                <g id="Group" opacity="0.75" transform="translate(47.213115, 8.852459)">
                    <circle id="Oval" cx="6.0147541" cy="6.62655738" r="5.78852459"></circle>
                </g>
                <path d="M49.222623,36.5970492 C49.6437282,36.5976284 50.0643286,36.6262161 50.4816393,36.682623 L53.182623,21.2655738 C52.5423389,21.2600911 51.907433,21.1480685 51.3039344,20.9340984 L48.5557377,36.622623 C48.7760656,36.6078689 48.9983607,36.5970492 49.222623,36.5970492 Z" id="Shape" opacity="0.5"></path>
                <path d="M49.222623,40.4114754 C52.4195368,40.4114754 55.0111475,43.0030861 55.0111475,46.2 C55.0111475,49.3969139 52.4195368,51.9885246 49.222623,51.9885246 C46.0257091,51.9885246 43.4340984,49.3969139 43.4340984,46.2 C43.4340984,43.0030861 46.0257091,40.4114754 49.222623,40.4114754 Z M49.222623,36.5970492 C43.9190597,36.5970492 39.6196721,40.8964367 39.6196721,46.2 C39.6196721,51.5035633 43.9190597,55.8029508 49.222623,55.8029508 C54.5261862,55.8029508 58.8255738,51.5035633 58.8255738,46.2 C58.8196111,40.8989085 54.5237145,36.6030119 49.222623,36.5970492 Z" id="Shape" opacity="0.75"></path>
                <g id="Group" opacity="0.75" transform="translate(12.786885, 47.213115)">
                    <circle id="Oval" cx="6.30491803" cy="6.1957377" r="5.78852459"></circle>
                </g>
                <path d="M50.1196721,20.3606557 C49.5797388,20.0153849 49.1005088,19.5833467 48.7013115,19.0819672 L35.6193443,33.6177049 L33.3344262,31.712459 C32.9115935,32.1905315 32.4647903,32.6468552 31.9957377,33.0796721 L34.342623,35.0360656 L22.2,48.5301639 C22.7398677,48.8755208 23.2190845,49.3075471 23.6183607,49.8088525 L35.8091803,36.2586885 L41.275082,40.8196721 C41.6335528,40.2928469 42.0434309,39.8029042 42.4986885,39.3570492 L37.0888525,34.8442623 L50.1196721,20.3606557 Z" id="Shape" opacity="0.5"></path>
                <path d="M19.0721311,38.1442623 C18.752459,38.1442623 18.4347541,38.1354098 18.1180328,38.1196721 L18.1180328,47.704918 C18.439541,47.6479663 18.7652958,47.6183523 19.0918033,47.6163934 C19.4046872,47.618352 19.7168826,47.6459858 20.0252459,47.6990164 L20.0252459,38.1196721 C19.7095082,38.1354098 19.3918033,38.1442623 19.0721311,38.1442623 Z" id="Shape" opacity="0.5"></path>
                <path d="M19.0721311,3.81442623 C27.4987289,3.81442623 34.3298361,10.6455334 34.3298361,19.0721311 C34.3298361,27.4987289 27.4987289,34.3298361 19.0721311,34.3298361 C10.6455334,34.3298361 3.81442623,27.4987289 3.81442623,19.0721311 C3.81442623,10.6455334 10.6455334,3.81442623 19.0721311,3.81442623 Z M19.0721311,0 C8.53888397,-6.44975372e-16 1.28995074e-15,8.53888397 0,19.0721311 C-1.28995074e-15,29.6053783 8.53888397,38.1442623 19.0721311,38.1442623 C29.6053783,38.1442623 38.1442623,29.6053783 38.1442623,19.0721311 C38.1323371,8.5438275 29.6004348,0.0119251868 19.0721311,0 Z" id="Shape" opacity="0.75"></path>
            </g>
        </g>
    </g>
</svg>