<svg version="1.1" id="Layer_1" xmlns="http://www.w3.org/2000/svg" xmlns:xlink="http://www.w3.org/1999/xlink" x="0px" y="0px" width="195.6px" height="125.9px" viewBox="0 0 195.6 125.9" enable-background="new 0 0 195.6 125.9" xml:space="preserve">
        <g>
        	<g>
        		<polygon fill="none" stroke="#EE3445" stroke-width="2" stroke-miterlimit="10" points="187.5,33.5 156.1,33.5 171.8,7.2 		"></polygon>
        		<line fill="none" stroke="#EE3445" stroke-width="2" stroke-miterlimit="10" x1="171.8" y1="15.9" x2="171.8" y2="25.2"></line>
        		<circle fill="#EE3445" cx="171.8" cy="28.3" r="1.5"></circle>
        	</g>
        	<g>
        		<path fill="#33AAF1" d="M28.8,82.4h-6v-13c0-1.1,0.9-2,2-2h2c1.1,0,2,0.9,2,2V82.4z"></path>
        		<rect x="25" y="62" fill="#33AAF1" width="2" height="6"></rect>
        		<path fill="#33AAF1" d="M17.8,82.4h-6v-13c0-1.1,0.9-2,2-2h2c1.1,0,2,0.9,2,2V82.4z"></path>
        		<rect x="14" y="62" fill="#33AAF1" width="2" height="6"></rect>
        		<path fill="#33AAF1" d="M39.8,82.4h-6v-13c0-1.1,0.9-2,2-2h2c1.1,0,2,0.9,2,2V82.4z"></path>
        		<rect x="36" y="62" fill="#33AAF1" width="2" height="6"></rect>
        		<path fill="#33AAF1" d="M50.8,82.4h-6v-13c0-1.1,0.9-2,2-2h2c1.1,0,2,0.9,2,2V82.4z"></path>
        		<rect x="47" y="62" fill="#33AAF1" width="2" height="6"></rect>
        		<path fill="#33AAF1" d="M61.8,82.4h-6v-13c0-1.1,0.9-2,2-2h2c1.1,0,2,0.9,2,2V82.4z"></path>
        		<rect x="58" y="62" fill="#33AAF1" width="2" height="6"></rect>
        		<path fill="#33AAF1" d="M72.8,82.4h-6v-13c0-1.1,0.9-2,2-2h2c1.1,0,2,0.9,2,2V82.4z"></path>
        		<rect x="69" y="62" fill="#33AAF1" width="2" height="6"></rect>
        		<path fill="#33AAF1" d="M139.8,82.4h-6v-13c0-1.1,0.9-2,2-2h2c1.1,0,2,0.9,2,2V82.4z"></path>
        		<rect x="136" y="62" fill="#33AAF1" width="2" height="6"></rect>
        		<path fill="#33AAF1" d="M128.8,82.4h-6v-13c0-1.1,0.9-2,2-2h2c1.1,0,2,0.9,2,2V82.4z"></path>
        		<rect x="125" y="62" fill="#33AAF1" width="2" height="6"></rect>
        		<path fill="#33AAF1" d="M150.8,82.4h-6v-13c0-1.1,0.9-2,2-2h2c1.1,0,2,0.9,2,2V82.4z"></path>
        		<rect x="147" y="62" fill="#33AAF1" width="2" height="6"></rect>
        		<path fill="#33AAF1" d="M161.8,82.4h-6v-13c0-1.1,0.9-2,2-2h2c1.1,0,2,0.9,2,2V82.4z"></path>
        		<rect x="158" y="62" fill="#33AAF1" width="2" height="6"></rect>
        		<path fill="#33AAF1" d="M172.8,82.4h-6v-13c0-1.1,0.9-2,2-2h2c1.1,0,2,0.9,2,2V82.4z"></path>
        		<rect x="169" y="62" fill="#33AAF1" width="2" height="6"></rect>
        		<path fill="#33AAF1" d="M183.8,82.4h-6v-13c0-1.1,0.9-2,2-2h2c1.1,0,2,0.9,2,2V82.4z"></path>
        		<rect x="180" y="62" fill="#33AAF1" width="2" height="6"></rect>
        		<path fill="none" stroke="#EE3445" stroke-width="2" stroke-miterlimit="10" d="M73,100H15.3c-4.1,0-7.3-2.9-7.3-7v0
        			c0-4.1,3.2-7.9,7.3-7.9H73"></path>
        		<path fill="none" stroke="#EE3445" stroke-width="2" stroke-miterlimit="10" d="M123,85h57.3c4.1,0,7.7,3.8,7.7,7.9v0
        			c0,4.1-3.6,7-7.7,7H123"></path>
        		<circle fill="#EE3445" cx="15" cy="93.1" r="2.3"></circle>
        		<circle fill="#EE3445" cx="28.3" cy="93.1" r="2.3"></circle>
        		<circle fill="#EE3445" cx="41.5" cy="93.1" r="2.3"></circle>
        		<circle fill="#EE3445" cx="54.8" cy="93.1" r="2.3"></circle>
        		<circle fill="#EE3445" cx="68" cy="93.1" r="2.3"></circle>
        		<circle fill="#EE3445" cx="127.7" cy="93.1" r="2.3"></circle>
        		<circle fill="#EE3445" cx="140.7" cy="93.1" r="2.3"></circle>
        		<circle fill="#EE3445" cx="153.8" cy="93.1" r="2.3"></circle>
        		<circle fill="#EE3445" cx="166.8" cy="93.1" r="2.3"></circle>
        		<circle fill="#EE3445" cx="179.9" cy="93.1" r="2.3"></circle>
        		<polyline fill="none" stroke="#19477D" stroke-width="2" stroke-miterlimit="10" points="123,116 188,116 188,104 123,104 		"></polyline>
        		<polyline fill="none" stroke="#19477D" stroke-width="2" stroke-miterlimit="10" points="73,104 8,104 8,116 73,116 		"></polyline>
        		<line fill="none" stroke="#19477D" stroke-width="1.5" stroke-miterlimit="10" x1="8" y1="104.4" x2="24.2" y2="116.2"></line>
        		<line fill="none" stroke="#19477D" stroke-width="1.5" stroke-miterlimit="10" x1="40.4" y1="104.4" x2="56.5" y2="116.2"></line>
        		<line fill="none" stroke="#19477D" stroke-width="1.5" stroke-miterlimit="10" x1="138.7" y1="104.4" x2="155" y2="116.2"></line>
        		<line fill="none" stroke="#19477D" stroke-width="1.5" stroke-miterlimit="10" x1="40.4" y1="104.4" x2="24.2" y2="116.2"></line>
        		<line fill="none" stroke="#19477D" stroke-width="1.5" stroke-miterlimit="10" x1="71.7" y1="104.4" x2="56.5" y2="116.2"></line>
        		<line fill="none" stroke="#19477D" stroke-width="1.5" stroke-miterlimit="10" x1="138.7" y1="104.4" x2="123.8" y2="116.4"></line>
        		<line fill="none" stroke="#19477D" stroke-width="1.5" stroke-miterlimit="10" x1="171.3" y1="104.4" x2="187.6" y2="116.2"></line>
        		<line fill="none" stroke="#19477D" stroke-width="1.5" stroke-miterlimit="10" x1="171.3" y1="104.4" x2="155" y2="116.2"></line>
        		<path fill="#33AAF1" d="M76,47v74h44V47H76z M97.9,52.7c1.2,0,2.2,1,2.2,2.2c0,1.2-1,2.2-2.2,2.2c-1.2,0-2.2-1-2.2-2.2
        			C95.7,53.7,96.7,52.7,97.9,52.7z M90.2,52.7c1.2,0,2.2,1,2.2,2.2c0,1.2-1,2.2-2.2,2.2c-1.2,0-2.2-1-2.2-2.2
        			C88.1,53.7,89,52.7,90.2,52.7z M82.6,52.7c1.2,0,2.2,1,2.2,2.2c0,1.2-1,2.2-2.2,2.2c-1.2,0-2.2-1-2.2-2.2
        			C80.5,53.7,81.4,52.7,82.6,52.7z M115,78H81V62h34V78z"></path>
        	</g>
        </g>
        </svg>