<svg version="1.1" id="Layer_1" xmlns="http://www.w3.org/2000/svg" xmlns:xlink="http://www.w3.org/1999/xlink" x="0px" y="0px" width="81px" height="247.1px" viewBox="-27 -60.1 81 247.1" enable-background="new -27 -60.1 81 247.1" xml:space="preserve">
       <polygon fill="#FDD615" points="10.1,-54.9 13.3,-60.1 16.5,-54.9 "></polygon>
       <rect x="11.2" y="0.2" fill="#00D09D" width="4.5" height="4.5"></rect>
       <path fill="#00D09B" d="M13.5,84.7L13.5,84.7c-1.2,0-2.3-1-2.3-2.2l0,0c0-1.2,1-2.2,2.2-2.2l0,0c1.2,0,2.2,1,2.2,2.2l0,0
       	C15.8,83.7,14.7,84.7,13.5,84.7z"></path>
       <path fill="#3BABEF" d="M13.5,104.7L13.5,104.7c-1.2,0-2.3-1-2.3-2.2l0,0c0-1.2,1-2.2,2.2-2.2l0,0c1.2,0,2.2,1,2.2,2.2l0,0
       	C15.8,103.7,14.7,104.7,13.5,104.7z"></path>
       <path fill="#FDD615" d="M13.5,124.7L13.5,124.7c-1.2,0-2.3-1-2.3-2.2l0,0c0-1.2,1-2.2,2.2-2.2l0,0c1.2,0,2.2,1,2.2,2.2l0,0
       	C15.8,123.7,14.7,124.7,13.5,124.7z"></path>
       <path fill="#00D09B" d="M13.5,147L13.5,147c-1.2,0-2.3-1-2.3-2.2l0,0c0-1.2,1-2.2,2.2-2.2l0,0c1.2,0,2.2,1,2.2,2.2l0,0
       	C15.8,146,14.7,147,13.5,147z"></path>
       <path fill="#3BABEF" d="M13.5,167L13.5,167c-1.2,0-2.3-1-2.3-2.2l0,0c0-1.2,1-2.2,2.2-2.2l0,0c1.2,0,2.2,1,2.2,2.2l0,0
       	C15.8,166,14.7,167,13.5,167z"></path>
       <path fill="#FDD615" d="M13.5,187L13.5,187c-1.2,0-2.3-1-2.3-2.2l0,0c0-1.2,1-2.2,2.2-2.2l0,0c1.2,0,2.2,1,2.2,2.2l0,0
       	C15.8,186,14.7,187,13.5,187z"></path>
       <circle fill="none" cx="13.5" cy="42.5" r="40"></circle>
       <path fill="#3BABEF" d="M13.3,35.8L13.3,35.8c-3.4,0-6.2-2.8-6.2-6.2l0,0c0-3.4,2.8-6.2,6.2-6.2l0,0c3.4,0,6.2,2.8,6.2,6.2l0,0
       	C19.5,33.1,16.7,35.8,13.3,35.8z"></path>
       <path fill="#00D09D" d="M19.5,2.9c-2-0.3-3.9-0.4-6-0.4c-2.2,0-4.3,0.2-6.4,0.5c0.3,3.2,2.9,5.7,6.2,5.7C16.5,8.7,19.2,6.1,19.5,2.9
       	z"></path>
       <circle fill="none" cx="13.5" cy="42.5" r="40"></circle>
       <path fill="#FDD615" d="M13.3,62.7L13.3,62.7c-3.4,0-6.2-2.8-6.2-6.2l0,0c0-3.4,2.8-6.2,6.2-6.2l0,0c3.4,0,6.2,2.8,6.2,6.2l0,0
       	C19.5,59.9,16.7,62.7,13.3,62.7z"></path>
       <path fill="#00D09D" d="M13.5,82.5c2,0,4-0.2,6-0.4c-0.2-3.2-2.9-5.8-6.2-5.8c-3.2,0-5.9,2.5-6.2,5.7C9.2,82.3,11.3,82.5,13.5,82.5z
       	"></path>
       <path fill="#19477D" d="M13.5,83C-8.8,83-27,64.8-27,42.5S-8.8,2,13.5,2C35.8,2,54,20.2,54,42.5S35.8,83,13.5,83z M13.5,3
       	C-8.3,3-26,20.7-26,42.5C-26,64.3-8.3,82,13.5,82S53,64.3,53,42.5C53,20.7,35.3,3,13.5,3z"></path>
       <path fill="#3BABEF" d="M13.3,8.7"></path>
       <rect x="11" y="-38.1" fill="#00D09B" width="4.5" height="4.5"></rect>
       <rect x="11" y="-18.1" fill="#3BABEF" width="4.5" height="4.5"></rect>
</svg>