<svg version="1.1" xmlns="http://www.w3.org/2000/svg" xmlns:xlink="http://www.w3.org/1999/xlink" xmlns:a="http://ns.adobe.com/AdobeSVGViewerExtensions/3.0/" x="0px" y="0px" width="81px" height="81px" viewBox="0 0 81 81" enable-background="new 0 0 81 81" xml:space="preserve">
          <defs>
          </defs>
          <g>
            <circle fill="none" stroke="#3BABEF" stroke-miterlimit="10" cx="40.5" cy="40.5" r="40"></circle>
            <path fill="#3BABEF" d="M40.5,22.8L40.5,22.8c-1.2,0-2.3-1-2.3-2.2v0c0-1.2,1-2.2,2.2-2.2h0c1.2,0,2.2,1,2.2,2.2v0
              C42.8,21.7,41.7,22.8,40.5,22.8z"></path>
            <path fill="#3BABEF" d="M40.5,42.8L40.5,42.8c-1.2,0-2.3-1-2.3-2.2v0c0-1.2,1-2.2,2.2-2.2h0c1.2,0,2.2,1,2.2,2.2v0
              C42.8,41.7,41.7,42.8,40.5,42.8z"></path>
            <path fill="#3BABEF" d="M40.5,62.8L40.5,62.8c-1.2,0-2.3-1-2.3-2.2v0c0-1.2,1-2.2,2.2-2.2h0c1.2,0,2.2,1,2.2,2.2v0
              C42.8,61.7,41.7,62.8,40.5,62.8z"></path>
            <path fill="#FDD615" d="M40.5,32.8L40.5,32.8c-1.2,0-2.3-1-2.3-2.2v0c0-1.2,1-2.2,2.2-2.2h0c1.2,0,2.2,1,2.2,2.2v0
              C42.8,31.7,41.7,32.8,40.5,32.8z"></path>
            <path fill="#FDD615" d="M40.5,12.8L40.5,12.8c-1.2,0-2.3-1-2.3-2.2v0c0-1.2,1-2.2,2.2-2.2h0c1.2,0,2.2,1,2.2,2.2v0
              C42.8,11.7,41.7,12.8,40.5,12.8z"></path>
            <path fill="#FDD615" d="M40.5,52.8L40.5,52.8c-1.2,0-2.3-1-2.3-2.2v0c0-1.2,1-2.2,2.2-2.2h0c1.2,0,2.2,1,2.2,2.2v0
              C42.8,51.7,41.7,52.8,40.5,52.8z"></path>
            <path fill="#3BABEF" d="M40.5,72.8L40.5,72.8c-1.2,0-2.3-1-2.3-2.2l0,0c0-1.2,1-2.2,2.2-2.2h0c1.2,0,2.2,1,2.2,2.2l0,0
              C42.8,71.7,41.7,72.8,40.5,72.8z"></path>
            <path fill="#FDD615" d="M57.5,22.8L57.5,22.8c-1.2,0-2.3-1-2.3-2.2v0c0-1.2,1-2.2,2.2-2.2h0c1.2,0,2.2,1,2.2,2.2v0
              C59.8,21.7,58.7,22.8,57.5,22.8z"></path>
            <path fill="#3BABEF" d="M57.5,42.8L57.5,42.8c-1.2,0-2.3-1-2.3-2.2v0c0-1.2,1-2.2,2.2-2.2h0c1.2,0,2.2,1,2.2,2.2v0
              C59.8,41.7,58.7,42.8,57.5,42.8z"></path>
            <path fill="#FDD615" d="M57.5,62.8L57.5,62.8c-1.2,0-2.3-1-2.3-2.2v0c0-1.2,1-2.2,2.2-2.2h0c1.2,0,2.2,1,2.2,2.2v0
              C59.8,61.7,58.7,62.8,57.5,62.8z"></path>
            <path fill="#3BABEF" d="M57.5,32.8L57.5,32.8c-1.2,0-2.3-1-2.3-2.2v0c0-1.2,1-2.2,2.2-2.2h0c1.2,0,2.2,1,2.2,2.2v0
              C59.8,31.7,58.7,32.8,57.5,32.8z"></path>
            <path fill="#3BABEF" d="M57.5,12.8L57.5,12.8c-1.2,0-2.3-1-2.3-2.2v0c0-1.2,1-2.2,2.2-2.2h0c1.2,0,2.2,1,2.2,2.2v0
              C59.8,11.7,58.7,12.8,57.5,12.8z"></path>
            <path fill="#FDD615" d="M57.5,52.8L57.5,52.8c-1.2,0-2.3-1-2.3-2.2v0c0-1.2,1-2.2,2.2-2.2h0c1.2,0,2.2,1,2.2,2.2v0
              C59.8,51.7,58.7,52.8,57.5,52.8z"></path>
            <path fill="#00D09D" d="M57.5,72.8L57.5,72.8c-1.2,0-2.3-1-2.3-2.2l0,0c0-1.2,1-2.2,2.2-2.2h0c1.2,0,2.2,1,2.2,2.2l0,0
              C59.8,71.7,58.7,72.8,57.5,72.8z"></path>
            <path fill="#00D09D" d="M74.5,42.8L74.5,42.8c-1.2,0-2.2-1-2.2-2.2v0c0-1.2,1-2.2,2.2-2.2l0,0c1.2,0,2.2,1,2.2,2.2v0
              C76.8,41.7,75.7,42.8,74.5,42.8z"></path>
            <path fill="#FDD615" d="M74.5,32.8L74.5,32.8c-1.2,0-2.2-1-2.2-2.2v0c0-1.2,1-2.2,2.2-2.2l0,0c1.2,0,2.2,1,2.2,2.2v0
              C76.8,31.7,75.7,32.8,74.5,32.8z"></path>
            <path fill="#FDD615" d="M74.5,52.8L74.5,52.8c-1.2,0-2.2-1-2.2-2.2v0c0-1.2,1-2.2,2.2-2.2l0,0c1.2,0,2.2,1,2.2,2.2v0
              C76.8,51.7,75.7,52.8,74.5,52.8z"></path>
            <path fill="#FDD615" d="M23.5,22.8L23.5,22.8c-1.2,0-2.3-1-2.3-2.2v0c0-1.2,1-2.2,2.2-2.2h0c1.2,0,2.2,1,2.2,2.2v0
              C25.8,21.7,24.7,22.8,23.5,22.8z"></path>
            <path fill="#00D09D" d="M23.5,42.8L23.5,42.8c-1.2,0-2.3-1-2.3-2.2v0c0-1.2,1-2.2,2.2-2.2h0c1.2,0,2.2,1,2.2,2.2v0
              C25.8,41.7,24.7,42.8,23.5,42.8z"></path>
            <path fill="#FDD615" d="M23.5,62.8L23.5,62.8c-1.2,0-2.3-1-2.3-2.2v0c0-1.2,1-2.2,2.2-2.2h0c1.2,0,2.2,1,2.2,2.2v0
              C25.8,61.7,24.7,62.8,23.5,62.8z"></path>
            <path fill="#3BABEF" d="M23.5,32.8L23.5,32.8c-1.2,0-2.3-1-2.3-2.2v0c0-1.2,1-2.2,2.2-2.2h0c1.2,0,2.2,1,2.2,2.2v0
              C25.8,31.7,24.7,32.8,23.5,32.8z"></path>
            <path fill="#00D09D" d="M23.5,12.8L23.5,12.8c-1.2,0-2.3-1-2.3-2.2v0c0-1.2,1-2.2,2.2-2.2h0c1.2,0,2.2,1,2.2,2.2v0
              C25.8,11.7,24.7,12.8,23.5,12.8z"></path>
            <path fill="#3BABEF" d="M23.5,52.8L23.5,52.8c-1.2,0-2.3-1-2.3-2.2v0c0-1.2,1-2.2,2.2-2.2h0c1.2,0,2.2,1,2.2,2.2v0
              C25.8,51.7,24.7,52.8,23.5,52.8z"></path>
            <path fill="#FDD615" d="M23.5,72.8L23.5,72.8c-1.2,0-2.3-1-2.3-2.2l0,0c0-1.2,1-2.2,2.2-2.2h0c1.2,0,2.2,1,2.2,2.2l0,0
              C25.8,71.7,24.7,72.8,23.5,72.8z"></path>
            <path fill="#3BABEF" d="M49,22.8L49,22.8c-1.2,0-2.3-1-2.3-2.2v0c0-1.2,1-2.2,2.2-2.2h0c1.2,0,2.2,1,2.2,2.2v0
              C51.2,21.7,50.2,22.8,49,22.8z"></path>
            <path fill="#00D09D" d="M49,42.8L49,42.8c-1.2,0-2.3-1-2.3-2.2v0c0-1.2,1-2.2,2.2-2.2h0c1.2,0,2.2,1,2.2,2.2v0
              C51.2,41.7,50.2,42.8,49,42.8z"></path>
            <path fill="#3BABEF" d="M49,62.8L49,62.8c-1.2,0-2.3-1-2.3-2.2v0c0-1.2,1-2.2,2.2-2.2h0c1.2,0,2.2,1,2.2,2.2v0
              C51.2,61.7,50.2,62.8,49,62.8z"></path>
            <path fill="#3BABEF" d="M49,32.8L49,32.8c-1.2,0-2.3-1-2.3-2.2v0c0-1.2,1-2.2,2.2-2.2h0c1.2,0,2.2,1,2.2,2.2v0
              C51.2,31.7,50.2,32.8,49,32.8z"></path>
            <path fill="#00D09D" d="M49,12.8L49,12.8c-1.2,0-2.3-1-2.3-2.2v0c0-1.2,1-2.2,2.2-2.2h0c1.2,0,2.2,1,2.2,2.2v0
              C51.2,11.7,50.2,12.8,49,12.8z"></path>
            <path fill="#3BABEF" d="M49,52.8L49,52.8c-1.2,0-2.3-1-2.3-2.2v0c0-1.2,1-2.2,2.2-2.2h0c1.2,0,2.2,1,2.2,2.2v0
              C51.2,51.7,50.2,52.8,49,52.8z"></path>
            <path fill="#FDD615" d="M49,72.8L49,72.8c-1.2,0-2.3-1-2.3-2.2l0,0c0-1.2,1-2.2,2.2-2.2h0c1.2,0,2.2,1,2.2,2.2l0,0
              C51.2,71.7,50.2,72.8,49,72.8z"></path>
            <path fill="#3BABEF" d="M66,22.8L66,22.8c-1.2,0-2.2-1-2.2-2.2v0c0-1.2,1-2.2,2.2-2.2l0,0c1.2,0,2.2,1,2.2,2.2v0
              C68.2,21.7,67.2,22.8,66,22.8z"></path>
            <path fill="#FDD615" d="M66,42.8L66,42.8c-1.2,0-2.2-1-2.2-2.2v0c0-1.2,1-2.2,2.2-2.2l0,0c1.2,0,2.2,1,2.2,2.2v0
              C68.2,41.7,67.2,42.8,66,42.8z"></path>
            <path fill="#3BABEF" d="M66,62.8L66,62.8c-1.2,0-2.2-1-2.2-2.2v0c0-1.2,1-2.2,2.2-2.2l0,0c1.2,0,2.2,1,2.2,2.2v0
              C68.2,61.7,67.2,62.8,66,62.8z"></path>
            <path fill="#00D09D" d="M66,32.8L66,32.8c-1.2,0-2.2-1-2.2-2.2v0c0-1.2,1-2.2,2.2-2.2l0,0c1.2,0,2.2,1,2.2,2.2v0
              C68.2,31.7,67.2,32.8,66,32.8z"></path>
            <path fill="#00D09D" d="M66,52.8L66,52.8c-1.2,0-2.2-1-2.2-2.2v0c0-1.2,1-2.2,2.2-2.2l0,0c1.2,0,2.2,1,2.2,2.2v0
              C68.2,51.7,67.2,52.8,66,52.8z"></path>
            <path fill="#00D09D" d="M32,22.8L32,22.8c-1.2,0-2.3-1-2.3-2.2v0c0-1.2,1-2.2,2.2-2.2h0c1.2,0,2.2,1,2.2,2.2v0
              C34.2,21.7,33.2,22.8,32,22.8z"></path>
            <path fill="#3BABEF" d="M32,42.8L32,42.8c-1.2,0-2.3-1-2.3-2.2v0c0-1.2,1-2.2,2.2-2.2h0c1.2,0,2.2,1,2.2,2.2v0
              C34.2,41.7,33.2,42.8,32,42.8z"></path>
            <path fill="#3BABEF" d="M32,62.8L32,62.8c-1.2,0-2.3-1-2.3-2.2v0c0-1.2,1-2.2,2.2-2.2h0c1.2,0,2.2,1,2.2,2.2v0
              C34.2,61.7,33.2,62.8,32,62.8z"></path>
            <path fill="#00D09D" d="M32,32.8L32,32.8c-1.2,0-2.3-1-2.3-2.2v0c0-1.2,1-2.2,2.2-2.2h0c1.2,0,2.2,1,2.2,2.2v0
              C34.2,31.7,33.2,32.8,32,32.8z"></path>
            <path fill="#3BABEF" d="M32,12.8L32,12.8c-1.2,0-2.3-1-2.3-2.2v0c0-1.2,1-2.2,2.2-2.2h0c1.2,0,2.2,1,2.2,2.2v0
              C34.2,11.7,33.2,12.8,32,12.8z"></path>
            <path fill="#FDD615" d="M32,52.8L32,52.8c-1.2,0-2.3-1-2.3-2.2v0c0-1.2,1-2.2,2.2-2.2h0c1.2,0,2.2,1,2.2,2.2v0
              C34.2,51.7,33.2,52.8,32,52.8z"></path>
            <path fill="#00D09D" d="M32,72.8L32,72.8c-1.2,0-2.3-1-2.3-2.2l0,0c0-1.2,1-2.2,2.2-2.2h0c1.2,0,2.2,1,2.2,2.2l0,0
              C34.2,71.7,33.2,72.8,32,72.8z"></path>
            <path fill="#3BABEF" d="M15,22.8L15,22.8c-1.2,0-2.3-1-2.3-2.2v0c0-1.2,1-2.2,2.2-2.2h0c1.2,0,2.2,1,2.2,2.2v0
              C17.2,21.7,16.2,22.8,15,22.8z"></path>
            <path fill="#3BABEF" d="M15,42.8L15,42.8c-1.2,0-2.3-1-2.3-2.2v0c0-1.2,1-2.2,2.2-2.2h0c1.2,0,2.2,1,2.2,2.2v0
              C17.2,41.7,16.2,42.8,15,42.8z"></path>
            <path fill="#00D09D" d="M15,62.8L15,62.8c-1.2,0-2.3-1-2.3-2.2v0c0-1.2,1-2.2,2.2-2.2h0c1.2,0,2.2,1,2.2,2.2v0
              C17.2,61.7,16.2,62.8,15,62.8z"></path>
            <path fill="#00D09D" d="M15,32.8L15,32.8c-1.2,0-2.3-1-2.3-2.2v0c0-1.2,1-2.2,2.2-2.2h0c1.2,0,2.2,1,2.2,2.2v0
              C17.2,31.7,16.2,32.8,15,32.8z"></path>
            <path fill="#FDD615" d="M15,52.8L15,52.8c-1.2,0-2.3-1-2.3-2.2v0c0-1.2,1-2.2,2.2-2.2h0c1.2,0,2.2,1,2.2,2.2v0
              C17.2,51.7,16.2,52.8,15,52.8z"></path>
            <path fill="#FDD615" d="M6.5,42.8L6.5,42.8c-1.2,0-2.3-1-2.3-2.2v0c0-1.2,1-2.2,2.2-2.2h0c1.2,0,2.2,1,2.2,2.2v0
              C8.8,41.7,7.7,42.8,6.5,42.8z"></path>
            <path fill="#3BABEF" d="M6.5,32.8L6.5,32.8c-1.2,0-2.3-1-2.3-2.2v0c0-1.2,1-2.2,2.2-2.2h0c1.2,0,2.2,1,2.2,2.2v0
              C8.8,31.7,7.7,32.8,6.5,32.8z"></path>
            <path fill="#00D09D" d="M6.5,52.8L6.5,52.8c-1.2,0-2.3-1-2.3-2.2v0c0-1.2,1-2.2,2.2-2.2h0c1.2,0,2.2,1,2.2,2.2v0
              C8.8,51.7,7.7,52.8,6.5,52.8z"></path>
          </g>
        </svg>