<svg version="1.1" xmlns="http://www.w3.org/2000/svg" xmlns:xlink="http://www.w3.org/1999/xlink" xmlns:a="http://ns.adobe.com/AdobeSVGViewerExtensions/3.0/" x="0px" y="0px" width="204.2px" height="75px" viewBox="0 0 204.2 75" enable-background="new 0 0 204.2 75" xml:space="preserve">
          <defs>
          </defs>
          <g>
            <g opacity="0.5">
              <circle fill="#021E40" stroke="#3BABEF" stroke-miterlimit="10" cx="27.5" cy="37.5" r="27"></circle>
              <path fill="#00D09D" d="M27.5,19.2L27.5,19.2c-1.2,0-2.3-1-2.3-2.2v0c0-1.2,1-2.2,2.2-2.2h0c1.2,0,2.2,1,2.2,2.2v0
                C29.7,18.2,28.7,19.2,27.5,19.2z"></path>
              <path fill="#00D09D" d="M27.5,39.2L27.5,39.2c-1.2,0-2.3-1-2.3-2.2v0c0-1.2,1-2.2,2.2-2.2h0c1.2,0,2.2,1,2.2,2.2v0
                C29.7,38.2,28.7,39.2,27.5,39.2z"></path>
              <path fill="#00D09D" d="M27.5,59.2L27.5,59.2c-1.2,0-2.3-1-2.3-2.2v0c0-1.2,1-2.2,2.2-2.2h0c1.2,0,2.2,1,2.2,2.2v0
                C29.7,58.2,28.7,59.2,27.5,59.2z"></path>
              <path fill="#00D09D" d="M27.5,29.2L27.5,29.2c-1.2,0-2.3-1-2.3-2.2v0c0-1.2,1-2.2,2.2-2.2h0c1.2,0,2.2,1,2.2,2.2v0
                C29.7,28.2,28.7,29.2,27.5,29.2z"></path>
              <path fill="#00D09D" d="M27.5,49.2L27.5,49.2c-1.2,0-2.3-1-2.3-2.2v0c0-1.2,1-2.2,2.2-2.2h0c1.2,0,2.2,1,2.2,2.2v0
                C29.7,48.2,28.7,49.2,27.5,49.2z"></path>
              <path fill="#00D09D" d="M44.5,39.2L44.5,39.2c-1.2,0-2.2-1-2.2-2.2v0c0-1.2,1-2.2,2.2-2.2h0c1.2,0,2.2,1,2.2,2.2v0
                C46.8,38.2,45.7,39.2,44.5,39.2z"></path>
              <path fill="#00D09D" d="M44.5,29.2L44.5,29.2c-1.2,0-2.2-1-2.2-2.2v0c0-1.2,1-2.2,2.2-2.2h0c1.2,0,2.2,1,2.2,2.2v0
                C46.8,28.2,45.7,29.2,44.5,29.2z"></path>
              <path fill="#00D09D" d="M44.5,49.2L44.5,49.2c-1.2,0-2.2-1-2.2-2.2v0c0-1.2,1-2.2,2.2-2.2h0c1.2,0,2.2,1,2.2,2.2v0
                C46.8,48.2,45.7,49.2,44.5,49.2z"></path>
              <path fill="#00D09D" d="M10.5,39.2L10.5,39.2c-1.2,0-2.3-1-2.3-2.2v0c0-1.2,1-2.2,2.2-2.2h0c1.2,0,2.2,1,2.2,2.2v0
                C12.7,38.2,11.7,39.2,10.5,39.2z"></path>
              <path fill="#00D09D" d="M10.5,29.2L10.5,29.2c-1.2,0-2.3-1-2.3-2.2v0c0-1.2,1-2.2,2.2-2.2h0c1.2,0,2.2,1,2.2,2.2v0
                C12.7,28.2,11.7,29.2,10.5,29.2z"></path>
              <path fill="#00D09D" d="M10.5,49.2L10.5,49.2c-1.2,0-2.3-1-2.3-2.2v0c0-1.2,1-2.2,2.2-2.2h0c1.2,0,2.2,1,2.2,2.2v0
                C12.7,48.2,11.7,49.2,10.5,49.2z"></path>
              <path fill="#00D09D" d="M36,19.2L36,19.2c-1.2,0-2.2-1-2.2-2.2v0c0-1.2,1-2.2,2.2-2.2h0c1.2,0,2.2,1,2.2,2.2v0
                C38.2,18.2,37.2,19.2,36,19.2z"></path>
              <path fill="#00D09D" d="M36,39.2L36,39.2c-1.2,0-2.2-1-2.2-2.2v0c0-1.2,1-2.2,2.2-2.2h0c1.2,0,2.2,1,2.2,2.2v0
                C38.2,38.2,37.2,39.2,36,39.2z"></path>
              <path fill="#00D09D" d="M36,59.2L36,59.2c-1.2,0-2.2-1-2.2-2.2v0c0-1.2,1-2.2,2.2-2.2h0c1.2,0,2.2,1,2.2,2.2v0
                C38.2,58.2,37.2,59.2,36,59.2z"></path>
              <path fill="#00D09D" d="M36,29.2L36,29.2c-1.2,0-2.2-1-2.2-2.2v0c0-1.2,1-2.2,2.2-2.2h0c1.2,0,2.2,1,2.2,2.2v0
                C38.2,28.2,37.2,29.2,36,29.2z"></path>
              <path fill="#00D09D" d="M36,49.2L36,49.2c-1.2,0-2.2-1-2.2-2.2v0c0-1.2,1-2.2,2.2-2.2h0c1.2,0,2.2,1,2.2,2.2v0
                C38.2,48.2,37.2,49.2,36,49.2z"></path>
              <path fill="#00D09D" d="M19,19.2L19,19.2c-1.2,0-2.3-1-2.3-2.2v0c0-1.2,1-2.2,2.2-2.2h0c1.2,0,2.2,1,2.2,2.2v0
                C21.2,18.2,20.2,19.2,19,19.2z"></path>
              <path fill="#00D09D" d="M19,39.2L19,39.2c-1.2,0-2.3-1-2.3-2.2v0c0-1.2,1-2.2,2.2-2.2h0c1.2,0,2.2,1,2.2,2.2v0
                C21.2,38.2,20.2,39.2,19,39.2z"></path>
              <path fill="#00D09D" d="M19,59.2L19,59.2c-1.2,0-2.3-1-2.3-2.2v0c0-1.2,1-2.2,2.2-2.2h0c1.2,0,2.2,1,2.2,2.2v0
                C21.2,58.2,20.2,59.2,19,59.2z"></path>
              <path fill="#00D09D" d="M19,29.2L19,29.2c-1.2,0-2.3-1-2.3-2.2v0c0-1.2,1-2.2,2.2-2.2h0c1.2,0,2.2,1,2.2,2.2v0
                C21.2,28.2,20.2,29.2,19,29.2z"></path>
              <path fill="#00D09D" d="M19,49.2L19,49.2c-1.2,0-2.3-1-2.3-2.2v0c0-1.2,1-2.2,2.2-2.2h0c1.2,0,2.2,1,2.2,2.2v0
                C21.2,48.2,20.2,49.2,19,49.2z"></path>
              <circle fill="#021E40" stroke="#3BABEF" stroke-miterlimit="10" cx="101.9" cy="37.5" r="27"></circle>
              <path fill="#3BABEF" d="M101.9,19.2L101.9,19.2c-1.2,0-2.2-1-2.2-2.2v0c0-1.2,1-2.2,2.2-2.2l0,0c1.2,0,2.2,1,2.2,2.2v0
                C104.1,18.2,103.1,19.2,101.9,19.2z"></path>
              <path fill="#3BABEF" d="M101.9,39.2L101.9,39.2c-1.2,0-2.2-1-2.2-2.2v0c0-1.2,1-2.2,2.2-2.2l0,0c1.2,0,2.2,1,2.2,2.2v0
                C104.1,38.2,103.1,39.2,101.9,39.2z"></path>
              <path fill="#3BABEF" d="M101.9,59.2L101.9,59.2c-1.2,0-2.2-1-2.2-2.2v0c0-1.2,1-2.2,2.2-2.2l0,0c1.2,0,2.2,1,2.2,2.2v0
                C104.1,58.2,103.1,59.2,101.9,59.2z"></path>
              <path fill="#3BABEF" d="M101.9,29.2L101.9,29.2c-1.2,0-2.2-1-2.2-2.2v0c0-1.2,1-2.2,2.2-2.2l0,0c1.2,0,2.2,1,2.2,2.2v0
                C104.1,28.2,103.1,29.2,101.9,29.2z"></path>
              <path fill="#3BABEF" d="M101.9,49.2L101.9,49.2c-1.2,0-2.2-1-2.2-2.2v0c0-1.2,1-2.2,2.2-2.2l0,0c1.2,0,2.2,1,2.2,2.2v0
                C104.1,48.2,103.1,49.2,101.9,49.2z"></path>
              <path fill="#3BABEF" d="M118.9,39.2L118.9,39.2c-1.2,0-2.2-1-2.2-2.2v0c0-1.2,1-2.2,2.2-2.2l0,0c1.2,0,2.2,1,2.2,2.2v0
                C121.1,38.2,120.1,39.2,118.9,39.2z"></path>
              <path fill="#3BABEF" d="M118.9,29.2L118.9,29.2c-1.2,0-2.2-1-2.2-2.2v0c0-1.2,1-2.2,2.2-2.2l0,0c1.2,0,2.2,1,2.2,2.2v0
                C121.1,28.2,120.1,29.2,118.9,29.2z"></path>
              <path fill="#3BABEF" d="M118.9,49.2L118.9,49.2c-1.2,0-2.2-1-2.2-2.2v0c0-1.2,1-2.2,2.2-2.2l0,0c1.2,0,2.2,1,2.2,2.2v0
                C121.1,48.2,120.1,49.2,118.9,49.2z"></path>
              <path fill="#3BABEF" d="M84.9,39.2L84.9,39.2c-1.2,0-2.2-1-2.2-2.2v0c0-1.2,1-2.2,2.2-2.2l0,0c1.2,0,2.2,1,2.2,2.2v0
                C87.1,38.2,86.1,39.2,84.9,39.2z"></path>
              <path fill="#3BABEF" d="M84.9,29.2L84.9,29.2c-1.2,0-2.2-1-2.2-2.2v0c0-1.2,1-2.2,2.2-2.2l0,0c1.2,0,2.2,1,2.2,2.2v0
                C87.1,28.2,86.1,29.2,84.9,29.2z"></path>
              <path fill="#3BABEF" d="M84.9,49.2L84.9,49.2c-1.2,0-2.2-1-2.2-2.2v0c0-1.2,1-2.2,2.2-2.2l0,0c1.2,0,2.2,1,2.2,2.2v0
                C87.1,48.2,86.1,49.2,84.9,49.2z"></path>
              <path fill="#3BABEF" d="M110.4,19.2L110.4,19.2c-1.2,0-2.2-1-2.2-2.2v0c0-1.2,1-2.2,2.2-2.2l0,0c1.2,0,2.2,1,2.2,2.2v0
                C112.6,18.2,111.6,19.2,110.4,19.2z"></path>
              <path fill="#3BABEF" d="M110.4,39.2L110.4,39.2c-1.2,0-2.2-1-2.2-2.2v0c0-1.2,1-2.2,2.2-2.2l0,0c1.2,0,2.2,1,2.2,2.2v0
                C112.6,38.2,111.6,39.2,110.4,39.2z"></path>
              <path fill="#3BABEF" d="M110.4,59.2L110.4,59.2c-1.2,0-2.2-1-2.2-2.2v0c0-1.2,1-2.2,2.2-2.2l0,0c1.2,0,2.2,1,2.2,2.2v0
                C112.6,58.2,111.6,59.2,110.4,59.2z"></path>
              <path fill="#3BABEF" d="M110.4,29.2L110.4,29.2c-1.2,0-2.2-1-2.2-2.2v0c0-1.2,1-2.2,2.2-2.2l0,0c1.2,0,2.2,1,2.2,2.2v0
                C112.6,28.2,111.6,29.2,110.4,29.2z"></path>
              <path fill="#3BABEF" d="M110.4,49.2L110.4,49.2c-1.2,0-2.2-1-2.2-2.2v0c0-1.2,1-2.2,2.2-2.2l0,0c1.2,0,2.2,1,2.2,2.2v0
                C112.6,48.2,111.6,49.2,110.4,49.2z"></path>
              <path fill="#3BABEF" d="M93.4,19.2L93.4,19.2c-1.2,0-2.2-1-2.2-2.2v0c0-1.2,1-2.2,2.2-2.2l0,0c1.2,0,2.2,1,2.2,2.2v0
                C95.6,18.2,94.6,19.2,93.4,19.2z"></path>
              <path fill="#3BABEF" d="M93.4,39.2L93.4,39.2c-1.2,0-2.2-1-2.2-2.2v0c0-1.2,1-2.2,2.2-2.2l0,0c1.2,0,2.2,1,2.2,2.2v0
                C95.6,38.2,94.6,39.2,93.4,39.2z"></path>
              <path fill="#3BABEF" d="M93.4,59.2L93.4,59.2c-1.2,0-2.2-1-2.2-2.2v0c0-1.2,1-2.2,2.2-2.2l0,0c1.2,0,2.2,1,2.2,2.2v0
                C95.6,58.2,94.6,59.2,93.4,59.2z"></path>
              <path fill="#3BABEF" d="M93.4,29.2L93.4,29.2c-1.2,0-2.2-1-2.2-2.2v0c0-1.2,1-2.2,2.2-2.2l0,0c1.2,0,2.2,1,2.2,2.2v0
                C95.6,28.2,94.6,29.2,93.4,29.2z"></path>
              <path fill="#3BABEF" d="M93.4,49.2L93.4,49.2c-1.2,0-2.2-1-2.2-2.2v0c0-1.2,1-2.2,2.2-2.2l0,0c1.2,0,2.2,1,2.2,2.2v0
                C95.6,48.2,94.6,49.2,93.4,49.2z"></path>
              <circle fill="#021E40" stroke="#3BABEF" stroke-miterlimit="10" cx="176.8" cy="37.5" r="27"></circle>
              <path fill="#FDD615" d="M176.8,19.2L176.8,19.2c-1.2,0-2.2-1-2.2-2.2v0c0-1.2,1-2.2,2.2-2.2l0,0c1.2,0,2.2,1,2.2,2.2v0
                C179,18.2,178,19.2,176.8,19.2z"></path>
              <path fill="#FDD615" d="M176.8,39.2L176.8,39.2c-1.2,0-2.2-1-2.2-2.2v0c0-1.2,1-2.2,2.2-2.2l0,0c1.2,0,2.2,1,2.2,2.2v0
                C179,38.2,178,39.2,176.8,39.2z"></path>
              <path fill="#FDD615" d="M176.8,59.2L176.8,59.2c-1.2,0-2.2-1-2.2-2.2v0c0-1.2,1-2.2,2.2-2.2l0,0c1.2,0,2.2,1,2.2,2.2v0
                C179,58.2,178,59.2,176.8,59.2z"></path>
              <path fill="#FDD615" d="M176.8,29.2L176.8,29.2c-1.2,0-2.2-1-2.2-2.2v0c0-1.2,1-2.2,2.2-2.2l0,0c1.2,0,2.2,1,2.2,2.2v0
                C179,28.2,178,29.2,176.8,29.2z"></path>
              <path fill="#FDD615" d="M176.8,49.2L176.8,49.2c-1.2,0-2.2-1-2.2-2.2v0c0-1.2,1-2.2,2.2-2.2l0,0c1.2,0,2.2,1,2.2,2.2v0
                C179,48.2,178,49.2,176.8,49.2z"></path>
              <path fill="#FDD615" d="M193.8,39.2L193.8,39.2c-1.2,0-2.2-1-2.2-2.2v0c0-1.2,1-2.2,2.2-2.2l0,0c1.2,0,2.2,1,2.2,2.2v0
                C196,38.2,195,39.2,193.8,39.2z"></path>
              <path fill="#FDD615" d="M193.8,29.2L193.8,29.2c-1.2,0-2.2-1-2.2-2.2v0c0-1.2,1-2.2,2.2-2.2l0,0c1.2,0,2.2,1,2.2,2.2v0
                C196,28.2,195,29.2,193.8,29.2z"></path>
              <path fill="#FDD615" d="M193.8,49.2L193.8,49.2c-1.2,0-2.2-1-2.2-2.2v0c0-1.2,1-2.2,2.2-2.2l0,0c1.2,0,2.2,1,2.2,2.2v0
                C196,48.2,195,49.2,193.8,49.2z"></path>
              <path fill="#FDD615" d="M159.8,39.2L159.8,39.2c-1.2,0-2.2-1-2.2-2.2v0c0-1.2,1-2.2,2.2-2.2l0,0c1.2,0,2.2,1,2.2,2.2v0
                C162,38.2,161,39.2,159.8,39.2z"></path>
              <path fill="#FDD615" d="M159.8,29.2L159.8,29.2c-1.2,0-2.2-1-2.2-2.2v0c0-1.2,1-2.2,2.2-2.2l0,0c1.2,0,2.2,1,2.2,2.2v0
                C162,28.2,161,29.2,159.8,29.2z"></path>
              <path fill="#FDD615" d="M159.8,49.2L159.8,49.2c-1.2,0-2.2-1-2.2-2.2v0c0-1.2,1-2.2,2.2-2.2l0,0c1.2,0,2.2,1,2.2,2.2v0
                C162,48.2,161,49.2,159.8,49.2z"></path>
              <path fill="#FDD615" d="M185.2,19.2L185.2,19.2c-1.2,0-2.2-1-2.2-2.2v0c0-1.2,1-2.2,2.2-2.2l0,0c1.2,0,2.2,1,2.2,2.2v0
                C187.5,18.2,186.5,19.2,185.2,19.2z"></path>
              <path fill="#FDD615" d="M185.2,39.2L185.2,39.2c-1.2,0-2.2-1-2.2-2.2v0c0-1.2,1-2.2,2.2-2.2l0,0c1.2,0,2.2,1,2.2,2.2v0
                C187.5,38.2,186.5,39.2,185.2,39.2z"></path>
              <path fill="#FDD615" d="M185.2,59.2L185.2,59.2c-1.2,0-2.2-1-2.2-2.2v0c0-1.2,1-2.2,2.2-2.2l0,0c1.2,0,2.2,1,2.2,2.2v0
                C187.5,58.2,186.5,59.2,185.2,59.2z"></path>
              <path fill="#FDD615" d="M185.2,29.2L185.2,29.2c-1.2,0-2.2-1-2.2-2.2v0c0-1.2,1-2.2,2.2-2.2l0,0c1.2,0,2.2,1,2.2,2.2v0
                C187.5,28.2,186.5,29.2,185.2,29.2z"></path>
              <path fill="#FDD615" d="M185.2,49.2L185.2,49.2c-1.2,0-2.2-1-2.2-2.2v0c0-1.2,1-2.2,2.2-2.2l0,0c1.2,0,2.2,1,2.2,2.2v0
                C187.5,48.2,186.5,49.2,185.2,49.2z"></path>
              <path fill="#FDD615" d="M168.2,19.2L168.2,19.2c-1.2,0-2.2-1-2.2-2.2v0c0-1.2,1-2.2,2.2-2.2l0,0c1.2,0,2.2,1,2.2,2.2v0
                C170.5,18.2,169.5,19.2,168.2,19.2z"></path>
              <path fill="#FDD615" d="M168.2,39.2L168.2,39.2c-1.2,0-2.2-1-2.2-2.2v0c0-1.2,1-2.2,2.2-2.2l0,0c1.2,0,2.2,1,2.2,2.2v0
                C170.5,38.2,169.5,39.2,168.2,39.2z"></path>
              <path fill="#FDD615" d="M168.2,59.2L168.2,59.2c-1.2,0-2.2-1-2.2-2.2v0c0-1.2,1-2.2,2.2-2.2l0,0c1.2,0,2.2,1,2.2,2.2v0
                C170.5,58.2,169.5,59.2,168.2,59.2z"></path>
              <path fill="#FDD615" d="M168.2,29.2L168.2,29.2c-1.2,0-2.2-1-2.2-2.2v0c0-1.2,1-2.2,2.2-2.2l0,0c1.2,0,2.2,1,2.2,2.2v0
                C170.5,28.2,169.5,29.2,168.2,29.2z"></path>
              <path fill="#FDD615" d="M168.2,49.2L168.2,49.2c-1.2,0-2.2-1-2.2-2.2v0c0-1.2,1-2.2,2.2-2.2l0,0c1.2,0,2.2,1,2.2,2.2v0
                C170.5,48.2,169.5,49.2,168.2,49.2z"></path>
            </g>
            <g opacity="0.25">
              <circle fill="#021E40" stroke="#3BABEF" stroke-miterlimit="10" cx="27.5" cy="27.5" r="27"></circle>
              <path fill="#00D09D" d="M27.5,9.2L27.5,9.2c-1.2,0-2.3-1-2.3-2.2v0c0-1.2,1-2.2,2.2-2.2h0c1.2,0,2.2,1,2.2,2.2v0
                C29.7,8.2,28.7,9.2,27.5,9.2z"></path>
              <path fill="#00D09D" d="M27.5,29.2L27.5,29.2c-1.2,0-2.3-1-2.3-2.2v0c0-1.2,1-2.2,2.2-2.2h0c1.2,0,2.2,1,2.2,2.2v0
                C29.7,28.2,28.7,29.2,27.5,29.2z"></path>
              <path fill="#00D09D" d="M27.5,49.2L27.5,49.2c-1.2,0-2.3-1-2.3-2.2v0c0-1.2,1-2.2,2.2-2.2h0c1.2,0,2.2,1,2.2,2.2v0
                C29.7,48.2,28.7,49.2,27.5,49.2z"></path>
              <path fill="#00D09D" d="M27.5,19.2L27.5,19.2c-1.2,0-2.3-1-2.3-2.2v0c0-1.2,1-2.2,2.2-2.2h0c1.2,0,2.2,1,2.2,2.2v0
                C29.7,18.2,28.7,19.2,27.5,19.2z"></path>
              <path fill="#00D09D" d="M27.5,39.2L27.5,39.2c-1.2,0-2.3-1-2.3-2.2v0c0-1.2,1-2.2,2.2-2.2h0c1.2,0,2.2,1,2.2,2.2v0
                C29.7,38.2,28.7,39.2,27.5,39.2z"></path>
              <path fill="#00D09D" d="M44.5,29.2L44.5,29.2c-1.2,0-2.2-1-2.2-2.2v0c0-1.2,1-2.2,2.2-2.2h0c1.2,0,2.2,1,2.2,2.2v0
                C46.8,28.2,45.7,29.2,44.5,29.2z"></path>
              <path fill="#00D09D" d="M44.5,19.2L44.5,19.2c-1.2,0-2.2-1-2.2-2.2v0c0-1.2,1-2.2,2.2-2.2h0c1.2,0,2.2,1,2.2,2.2v0
                C46.8,18.2,45.7,19.2,44.5,19.2z"></path>
              <path fill="#00D09D" d="M44.5,39.2L44.5,39.2c-1.2,0-2.2-1-2.2-2.2v0c0-1.2,1-2.2,2.2-2.2h0c1.2,0,2.2,1,2.2,2.2v0
                C46.8,38.2,45.7,39.2,44.5,39.2z"></path>
              <path fill="#00D09D" d="M10.5,29.2L10.5,29.2c-1.2,0-2.3-1-2.3-2.2v0c0-1.2,1-2.2,2.2-2.2h0c1.2,0,2.2,1,2.2,2.2v0
                C12.7,28.2,11.7,29.2,10.5,29.2z"></path>
              <path fill="#00D09D" d="M10.5,19.2L10.5,19.2c-1.2,0-2.3-1-2.3-2.2v0c0-1.2,1-2.2,2.2-2.2h0c1.2,0,2.2,1,2.2,2.2v0
                C12.7,18.2,11.7,19.2,10.5,19.2z"></path>
              <path fill="#00D09D" d="M10.5,39.2L10.5,39.2c-1.2,0-2.3-1-2.3-2.2v0c0-1.2,1-2.2,2.2-2.2h0c1.2,0,2.2,1,2.2,2.2v0
                C12.7,38.2,11.7,39.2,10.5,39.2z"></path>
              <path fill="#00D09D" d="M36,9.2L36,9.2c-1.2,0-2.2-1-2.2-2.2v0c0-1.2,1-2.2,2.2-2.2h0c1.2,0,2.2,1,2.2,2.2v0
                C38.2,8.2,37.2,9.2,36,9.2z"></path>
              <path fill="#00D09D" d="M36,29.2L36,29.2c-1.2,0-2.2-1-2.2-2.2v0c0-1.2,1-2.2,2.2-2.2h0c1.2,0,2.2,1,2.2,2.2v0
                C38.2,28.2,37.2,29.2,36,29.2z"></path>
              <path fill="#00D09D" d="M36,49.2L36,49.2c-1.2,0-2.2-1-2.2-2.2v0c0-1.2,1-2.2,2.2-2.2h0c1.2,0,2.2,1,2.2,2.2v0
                C38.2,48.2,37.2,49.2,36,49.2z"></path>
              <path fill="#00D09D" d="M36,19.2L36,19.2c-1.2,0-2.2-1-2.2-2.2v0c0-1.2,1-2.2,2.2-2.2h0c1.2,0,2.2,1,2.2,2.2v0
                C38.2,18.2,37.2,19.2,36,19.2z"></path>
              <path fill="#00D09D" d="M36,39.2L36,39.2c-1.2,0-2.2-1-2.2-2.2v0c0-1.2,1-2.2,2.2-2.2h0c1.2,0,2.2,1,2.2,2.2v0
                C38.2,38.2,37.2,39.2,36,39.2z"></path>
              <path fill="#00D09D" d="M19,9.2L19,9.2c-1.2,0-2.3-1-2.3-2.2v0c0-1.2,1-2.2,2.2-2.2h0c1.2,0,2.2,1,2.2,2.2v0
                C21.2,8.2,20.2,9.2,19,9.2z"></path>
              <path fill="#00D09D" d="M19,29.2L19,29.2c-1.2,0-2.3-1-2.3-2.2v0c0-1.2,1-2.2,2.2-2.2h0c1.2,0,2.2,1,2.2,2.2v0
                C21.2,28.2,20.2,29.2,19,29.2z"></path>
              <path fill="#00D09D" d="M19,49.2L19,49.2c-1.2,0-2.3-1-2.3-2.2v0c0-1.2,1-2.2,2.2-2.2h0c1.2,0,2.2,1,2.2,2.2v0
                C21.2,48.2,20.2,49.2,19,49.2z"></path>
              <path fill="#00D09D" d="M19,19.2L19,19.2c-1.2,0-2.3-1-2.3-2.2v0c0-1.2,1-2.2,2.2-2.2h0c1.2,0,2.2,1,2.2,2.2v0
                C21.2,18.2,20.2,19.2,19,19.2z"></path>
              <path fill="#00D09D" d="M19,39.2L19,39.2c-1.2,0-2.3-1-2.3-2.2v0c0-1.2,1-2.2,2.2-2.2h0c1.2,0,2.2,1,2.2,2.2v0
                C21.2,38.2,20.2,39.2,19,39.2z"></path>
              <circle fill="#021E40" stroke="#3BABEF" stroke-miterlimit="10" cx="101.9" cy="27.5" r="27"></circle>
              <path fill="#3BABEF" d="M101.9,9.2L101.9,9.2c-1.2,0-2.2-1-2.2-2.2v0c0-1.2,1-2.2,2.2-2.2l0,0c1.2,0,2.2,1,2.2,2.2v0
                C104.1,8.2,103.1,9.2,101.9,9.2z"></path>
              <path fill="#3BABEF" d="M101.9,29.2L101.9,29.2c-1.2,0-2.2-1-2.2-2.2v0c0-1.2,1-2.2,2.2-2.2l0,0c1.2,0,2.2,1,2.2,2.2v0
                C104.1,28.2,103.1,29.2,101.9,29.2z"></path>
              <path fill="#3BABEF" d="M101.9,49.2L101.9,49.2c-1.2,0-2.2-1-2.2-2.2v0c0-1.2,1-2.2,2.2-2.2l0,0c1.2,0,2.2,1,2.2,2.2v0
                C104.1,48.2,103.1,49.2,101.9,49.2z"></path>
              <path fill="#3BABEF" d="M101.9,19.2L101.9,19.2c-1.2,0-2.2-1-2.2-2.2v0c0-1.2,1-2.2,2.2-2.2l0,0c1.2,0,2.2,1,2.2,2.2v0
                C104.1,18.2,103.1,19.2,101.9,19.2z"></path>
              <path fill="#3BABEF" d="M101.9,39.2L101.9,39.2c-1.2,0-2.2-1-2.2-2.2v0c0-1.2,1-2.2,2.2-2.2l0,0c1.2,0,2.2,1,2.2,2.2v0
                C104.1,38.2,103.1,39.2,101.9,39.2z"></path>
              <path fill="#3BABEF" d="M118.9,29.2L118.9,29.2c-1.2,0-2.2-1-2.2-2.2v0c0-1.2,1-2.2,2.2-2.2l0,0c1.2,0,2.2,1,2.2,2.2v0
                C121.1,28.2,120.1,29.2,118.9,29.2z"></path>
              <path fill="#3BABEF" d="M118.9,19.2L118.9,19.2c-1.2,0-2.2-1-2.2-2.2v0c0-1.2,1-2.2,2.2-2.2l0,0c1.2,0,2.2,1,2.2,2.2v0
                C121.1,18.2,120.1,19.2,118.9,19.2z"></path>
              <path fill="#3BABEF" d="M118.9,39.2L118.9,39.2c-1.2,0-2.2-1-2.2-2.2v0c0-1.2,1-2.2,2.2-2.2l0,0c1.2,0,2.2,1,2.2,2.2v0
                C121.1,38.2,120.1,39.2,118.9,39.2z"></path>
              <path fill="#3BABEF" d="M84.9,29.2L84.9,29.2c-1.2,0-2.2-1-2.2-2.2v0c0-1.2,1-2.2,2.2-2.2l0,0c1.2,0,2.2,1,2.2,2.2v0
                C87.1,28.2,86.1,29.2,84.9,29.2z"></path>
              <path fill="#3BABEF" d="M84.9,19.2L84.9,19.2c-1.2,0-2.2-1-2.2-2.2v0c0-1.2,1-2.2,2.2-2.2l0,0c1.2,0,2.2,1,2.2,2.2v0
                C87.1,18.2,86.1,19.2,84.9,19.2z"></path>
              <path fill="#3BABEF" d="M84.9,39.2L84.9,39.2c-1.2,0-2.2-1-2.2-2.2v0c0-1.2,1-2.2,2.2-2.2l0,0c1.2,0,2.2,1,2.2,2.2v0
                C87.1,38.2,86.1,39.2,84.9,39.2z"></path>
              <path fill="#3BABEF" d="M110.4,9.2L110.4,9.2c-1.2,0-2.2-1-2.2-2.2v0c0-1.2,1-2.2,2.2-2.2l0,0c1.2,0,2.2,1,2.2,2.2v0
                C112.6,8.2,111.6,9.2,110.4,9.2z"></path>
              <path fill="#3BABEF" d="M110.4,29.2L110.4,29.2c-1.2,0-2.2-1-2.2-2.2v0c0-1.2,1-2.2,2.2-2.2l0,0c1.2,0,2.2,1,2.2,2.2v0
                C112.6,28.2,111.6,29.2,110.4,29.2z"></path>
              <path fill="#3BABEF" d="M110.4,49.2L110.4,49.2c-1.2,0-2.2-1-2.2-2.2v0c0-1.2,1-2.2,2.2-2.2l0,0c1.2,0,2.2,1,2.2,2.2v0
                C112.6,48.2,111.6,49.2,110.4,49.2z"></path>
              <path fill="#3BABEF" d="M110.4,19.2L110.4,19.2c-1.2,0-2.2-1-2.2-2.2v0c0-1.2,1-2.2,2.2-2.2l0,0c1.2,0,2.2,1,2.2,2.2v0
                C112.6,18.2,111.6,19.2,110.4,19.2z"></path>
              <path fill="#3BABEF" d="M110.4,39.2L110.4,39.2c-1.2,0-2.2-1-2.2-2.2v0c0-1.2,1-2.2,2.2-2.2l0,0c1.2,0,2.2,1,2.2,2.2v0
                C112.6,38.2,111.6,39.2,110.4,39.2z"></path>
              <path fill="#3BABEF" d="M93.4,9.2L93.4,9.2c-1.2,0-2.2-1-2.2-2.2v0c0-1.2,1-2.2,2.2-2.2l0,0c1.2,0,2.2,1,2.2,2.2v0
                C95.6,8.2,94.6,9.2,93.4,9.2z"></path>
              <path fill="#3BABEF" d="M93.4,29.2L93.4,29.2c-1.2,0-2.2-1-2.2-2.2v0c0-1.2,1-2.2,2.2-2.2l0,0c1.2,0,2.2,1,2.2,2.2v0
                C95.6,28.2,94.6,29.2,93.4,29.2z"></path>
              <path fill="#3BABEF" d="M93.4,49.2L93.4,49.2c-1.2,0-2.2-1-2.2-2.2v0c0-1.2,1-2.2,2.2-2.2l0,0c1.2,0,2.2,1,2.2,2.2v0
                C95.6,48.2,94.6,49.2,93.4,49.2z"></path>
              <path fill="#3BABEF" d="M93.4,19.2L93.4,19.2c-1.2,0-2.2-1-2.2-2.2v0c0-1.2,1-2.2,2.2-2.2l0,0c1.2,0,2.2,1,2.2,2.2v0
                C95.6,18.2,94.6,19.2,93.4,19.2z"></path>
              <path fill="#3BABEF" d="M93.4,39.2L93.4,39.2c-1.2,0-2.2-1-2.2-2.2v0c0-1.2,1-2.2,2.2-2.2l0,0c1.2,0,2.2,1,2.2,2.2v0
                C95.6,38.2,94.6,39.2,93.4,39.2z"></path>
              <circle fill="#021E40" stroke="#3BABEF" stroke-miterlimit="10" cx="176.8" cy="27.5" r="27"></circle>
              <path fill="#FDD615" d="M176.8,9.2L176.8,9.2c-1.2,0-2.2-1-2.2-2.2v0c0-1.2,1-2.2,2.2-2.2l0,0c1.2,0,2.2,1,2.2,2.2v0
                C179,8.2,178,9.2,176.8,9.2z"></path>
              <path fill="#FDD615" d="M176.8,29.2L176.8,29.2c-1.2,0-2.2-1-2.2-2.2v0c0-1.2,1-2.2,2.2-2.2l0,0c1.2,0,2.2,1,2.2,2.2v0
                C179,28.2,178,29.2,176.8,29.2z"></path>
              <path fill="#FDD615" d="M176.8,49.2L176.8,49.2c-1.2,0-2.2-1-2.2-2.2v0c0-1.2,1-2.2,2.2-2.2l0,0c1.2,0,2.2,1,2.2,2.2v0
                C179,48.2,178,49.2,176.8,49.2z"></path>
              <path fill="#FDD615" d="M176.8,19.2L176.8,19.2c-1.2,0-2.2-1-2.2-2.2v0c0-1.2,1-2.2,2.2-2.2l0,0c1.2,0,2.2,1,2.2,2.2v0
                C179,18.2,178,19.2,176.8,19.2z"></path>
              <path fill="#FDD615" d="M176.8,39.2L176.8,39.2c-1.2,0-2.2-1-2.2-2.2v0c0-1.2,1-2.2,2.2-2.2l0,0c1.2,0,2.2,1,2.2,2.2v0
                C179,38.2,178,39.2,176.8,39.2z"></path>
              <path fill="#FDD615" d="M193.8,29.2L193.8,29.2c-1.2,0-2.2-1-2.2-2.2v0c0-1.2,1-2.2,2.2-2.2l0,0c1.2,0,2.2,1,2.2,2.2v0
                C196,28.2,195,29.2,193.8,29.2z"></path>
              <path fill="#FDD615" d="M193.8,19.2L193.8,19.2c-1.2,0-2.2-1-2.2-2.2v0c0-1.2,1-2.2,2.2-2.2l0,0c1.2,0,2.2,1,2.2,2.2v0
                C196,18.2,195,19.2,193.8,19.2z"></path>
              <path fill="#FDD615" d="M193.8,39.2L193.8,39.2c-1.2,0-2.2-1-2.2-2.2v0c0-1.2,1-2.2,2.2-2.2l0,0c1.2,0,2.2,1,2.2,2.2v0
                C196,38.2,195,39.2,193.8,39.2z"></path>
              <path fill="#FDD615" d="M159.8,29.2L159.8,29.2c-1.2,0-2.2-1-2.2-2.2v0c0-1.2,1-2.2,2.2-2.2l0,0c1.2,0,2.2,1,2.2,2.2v0
                C162,28.2,161,29.2,159.8,29.2z"></path>
              <path fill="#19477D" d="M159.8,19.2L159.8,19.2c-1.2,0-2.2-1-2.2-2.2v0c0-1.2,1-2.2,2.2-2.2l0,0c1.2,0,2.2,1,2.2,2.2v0
                C162,18.2,161,19.2,159.8,19.2z"></path>
              <path fill="#FDD615" d="M159.8,39.2L159.8,39.2c-1.2,0-2.2-1-2.2-2.2v0c0-1.2,1-2.2,2.2-2.2l0,0c1.2,0,2.2,1,2.2,2.2v0
                C162,38.2,161,39.2,159.8,39.2z"></path>
              <path fill="#FDD615" d="M185.2,9.2L185.2,9.2c-1.2,0-2.2-1-2.2-2.2v0c0-1.2,1-2.2,2.2-2.2l0,0c1.2,0,2.2,1,2.2,2.2v0
                C187.5,8.2,186.5,9.2,185.2,9.2z"></path>
              <path fill="#FDD615" d="M185.2,29.2L185.2,29.2c-1.2,0-2.2-1-2.2-2.2v0c0-1.2,1-2.2,2.2-2.2l0,0c1.2,0,2.2,1,2.2,2.2v0
                C187.5,28.2,186.5,29.2,185.2,29.2z"></path>
              <path fill="#FDD615" d="M185.2,49.2L185.2,49.2c-1.2,0-2.2-1-2.2-2.2v0c0-1.2,1-2.2,2.2-2.2l0,0c1.2,0,2.2,1,2.2,2.2v0
                C187.5,48.2,186.5,49.2,185.2,49.2z"></path>
              <path fill="#FDD615" d="M185.2,19.2L185.2,19.2c-1.2,0-2.2-1-2.2-2.2v0c0-1.2,1-2.2,2.2-2.2l0,0c1.2,0,2.2,1,2.2,2.2v0
                C187.5,18.2,186.5,19.2,185.2,19.2z"></path>
              <path fill="#FDD615" d="M185.2,39.2L185.2,39.2c-1.2,0-2.2-1-2.2-2.2v0c0-1.2,1-2.2,2.2-2.2l0,0c1.2,0,2.2,1,2.2,2.2v0
                C187.5,38.2,186.5,39.2,185.2,39.2z"></path>
              <path fill="#FDD615" d="M168.2,9.2L168.2,9.2c-1.2,0-2.2-1-2.2-2.2v0c0-1.2,1-2.2,2.2-2.2l0,0c1.2,0,2.2,1,2.2,2.2v0
                C170.5,8.2,169.5,9.2,168.2,9.2z"></path>
              <path fill="#FDD615" d="M168.2,29.2L168.2,29.2c-1.2,0-2.2-1-2.2-2.2v0c0-1.2,1-2.2,2.2-2.2l0,0c1.2,0,2.2,1,2.2,2.2v0
                C170.5,28.2,169.5,29.2,168.2,29.2z"></path>
              <path fill="#FDD615" d="M168.2,49.2L168.2,49.2c-1.2,0-2.2-1-2.2-2.2v0c0-1.2,1-2.2,2.2-2.2l0,0c1.2,0,2.2,1,2.2,2.2v0
                C170.5,48.2,169.5,49.2,168.2,49.2z"></path>
              <path fill="#FDD615" d="M168.2,19.2L168.2,19.2c-1.2,0-2.2-1-2.2-2.2v0c0-1.2,1-2.2,2.2-2.2l0,0c1.2,0,2.2,1,2.2,2.2v0
                C170.5,18.2,169.5,19.2,168.2,19.2z"></path>
              <path fill="#FDD615" d="M168.2,39.2L168.2,39.2c-1.2,0-2.2-1-2.2-2.2v0c0-1.2,1-2.2,2.2-2.2l0,0c1.2,0,2.2,1,2.2,2.2v0
                C170.5,38.2,169.5,39.2,168.2,39.2z"></path>
            </g>
            <g>
              <circle fill="#021E40" stroke="#3BABEF" stroke-miterlimit="10" cx="27.5" cy="47.5" r="27"></circle>
              <path fill="#00D09D" d="M27.5,29.2L27.5,29.2c-1.2,0-2.3-1-2.3-2.2v0c0-1.2,1-2.2,2.2-2.2h0c1.2,0,2.2,1,2.2,2.2v0
                C29.7,28.2,28.7,29.2,27.5,29.2z"></path>
              <path fill="#00D09D" d="M27.5,49.2L27.5,49.2c-1.2,0-2.3-1-2.3-2.2v0c0-1.2,1-2.2,2.2-2.2h0c1.2,0,2.2,1,2.2,2.2v0
                C29.7,48.2,28.7,49.2,27.5,49.2z"></path>
              <path fill="#00D09D" d="M27.5,69.2L27.5,69.2c-1.2,0-2.3-1-2.3-2.2l0,0c0-1.2,1-2.2,2.2-2.2h0c1.2,0,2.2,1,2.2,2.2l0,0
                C29.7,68.2,28.7,69.2,27.5,69.2z"></path>
              <path fill="#00D09D" d="M27.5,39.2L27.5,39.2c-1.2,0-2.3-1-2.3-2.2v0c0-1.2,1-2.2,2.2-2.2h0c1.2,0,2.2,1,2.2,2.2v0
                C29.7,38.2,28.7,39.2,27.5,39.2z"></path>
              <path fill="#00D09D" d="M27.5,59.2L27.5,59.2c-1.2,0-2.3-1-2.3-2.2v0c0-1.2,1-2.2,2.2-2.2h0c1.2,0,2.2,1,2.2,2.2v0
                C29.7,58.2,28.7,59.2,27.5,59.2z"></path>
              <path fill="#00D09D" d="M44.5,49.2L44.5,49.2c-1.2,0-2.2-1-2.2-2.2v0c0-1.2,1-2.2,2.2-2.2h0c1.2,0,2.2,1,2.2,2.2v0
                C46.8,48.2,45.7,49.2,44.5,49.2z"></path>
              <path fill="#00D09D" d="M44.5,39.2L44.5,39.2c-1.2,0-2.2-1-2.2-2.2v0c0-1.2,1-2.2,2.2-2.2h0c1.2,0,2.2,1,2.2,2.2v0
                C46.8,38.2,45.7,39.2,44.5,39.2z"></path>
              <path fill="#00D09D" d="M44.5,59.2L44.5,59.2c-1.2,0-2.2-1-2.2-2.2v0c0-1.2,1-2.2,2.2-2.2h0c1.2,0,2.2,1,2.2,2.2v0
                C46.8,58.2,45.7,59.2,44.5,59.2z"></path>
              <path fill="#00D09D" d="M10.5,49.2L10.5,49.2c-1.2,0-2.3-1-2.3-2.2v0c0-1.2,1-2.2,2.2-2.2h0c1.2,0,2.2,1,2.2,2.2v0
                C12.7,48.2,11.7,49.2,10.5,49.2z"></path>
              <path fill="#00D09D" d="M10.5,39.2L10.5,39.2c-1.2,0-2.3-1-2.3-2.2v0c0-1.2,1-2.2,2.2-2.2h0c1.2,0,2.2,1,2.2,2.2v0
                C12.7,38.2,11.7,39.2,10.5,39.2z"></path>
              <path fill="#00D09D" d="M10.5,59.2L10.5,59.2c-1.2,0-2.3-1-2.3-2.2v0c0-1.2,1-2.2,2.2-2.2h0c1.2,0,2.2,1,2.2,2.2v0
                C12.7,58.2,11.7,59.2,10.5,59.2z"></path>
              <path fill="#00D09D" d="M36,29.2L36,29.2c-1.2,0-2.2-1-2.2-2.2v0c0-1.2,1-2.2,2.2-2.2h0c1.2,0,2.2,1,2.2,2.2v0
                C38.2,28.2,37.2,29.2,36,29.2z"></path>
              <path fill="#00D09D" d="M36,49.2L36,49.2c-1.2,0-2.2-1-2.2-2.2v0c0-1.2,1-2.2,2.2-2.2h0c1.2,0,2.2,1,2.2,2.2v0
                C38.2,48.2,37.2,49.2,36,49.2z"></path>
              <path fill="#00D09D" d="M36,69.2L36,69.2c-1.2,0-2.2-1-2.2-2.2l0,0c0-1.2,1-2.2,2.2-2.2h0c1.2,0,2.2,1,2.2,2.2l0,0
                C38.2,68.2,37.2,69.2,36,69.2z"></path>
              <path fill="#00D09D" d="M36,39.2L36,39.2c-1.2,0-2.2-1-2.2-2.2v0c0-1.2,1-2.2,2.2-2.2h0c1.2,0,2.2,1,2.2,2.2v0
                C38.2,38.2,37.2,39.2,36,39.2z"></path>
              <path fill="#00D09D" d="M36,59.2L36,59.2c-1.2,0-2.2-1-2.2-2.2v0c0-1.2,1-2.2,2.2-2.2h0c1.2,0,2.2,1,2.2,2.2v0
                C38.2,58.2,37.2,59.2,36,59.2z"></path>
              <path fill="#00D09D" d="M19,29.2L19,29.2c-1.2,0-2.3-1-2.3-2.2v0c0-1.2,1-2.2,2.2-2.2h0c1.2,0,2.2,1,2.2,2.2v0
                C21.2,28.2,20.2,29.2,19,29.2z"></path>
              <path fill="#00D09D" d="M19,49.2L19,49.2c-1.2,0-2.3-1-2.3-2.2v0c0-1.2,1-2.2,2.2-2.2h0c1.2,0,2.2,1,2.2,2.2v0
                C21.2,48.2,20.2,49.2,19,49.2z"></path>
              <path fill="#00D09D" d="M19,69.2L19,69.2c-1.2,0-2.3-1-2.3-2.2l0,0c0-1.2,1-2.2,2.2-2.2h0c1.2,0,2.2,1,2.2,2.2l0,0
                C21.2,68.2,20.2,69.2,19,69.2z"></path>
              <path fill="#00D09D" d="M19,39.2L19,39.2c-1.2,0-2.3-1-2.3-2.2v0c0-1.2,1-2.2,2.2-2.2h0c1.2,0,2.2,1,2.2,2.2v0
                C21.2,38.2,20.2,39.2,19,39.2z"></path>
              <path fill="#00D09D" d="M19,59.2L19,59.2c-1.2,0-2.3-1-2.3-2.2v0c0-1.2,1-2.2,2.2-2.2h0c1.2,0,2.2,1,2.2,2.2v0
                C21.2,58.2,20.2,59.2,19,59.2z"></path>
              <circle fill="#021E40" stroke="#3BABEF" stroke-miterlimit="10" cx="101.9" cy="47.5" r="27"></circle>
              <path fill="#3BABEF" d="M101.9,29.2L101.9,29.2c-1.2,0-2.2-1-2.2-2.2v0c0-1.2,1-2.2,2.2-2.2l0,0c1.2,0,2.2,1,2.2,2.2v0
                C104.1,28.2,103.1,29.2,101.9,29.2z"></path>
              <path fill="#3BABEF" d="M101.9,49.2L101.9,49.2c-1.2,0-2.2-1-2.2-2.2v0c0-1.2,1-2.2,2.2-2.2l0,0c1.2,0,2.2,1,2.2,2.2v0
                C104.1,48.2,103.1,49.2,101.9,49.2z"></path>
              <path fill="#3BABEF" d="M101.9,69.2L101.9,69.2c-1.2,0-2.2-1-2.2-2.2l0,0c0-1.2,1-2.2,2.2-2.2l0,0c1.2,0,2.2,1,2.2,2.2l0,0
                C104.1,68.2,103.1,69.2,101.9,69.2z"></path>
              <path fill="#3BABEF" d="M101.9,39.2L101.9,39.2c-1.2,0-2.2-1-2.2-2.2v0c0-1.2,1-2.2,2.2-2.2l0,0c1.2,0,2.2,1,2.2,2.2v0
                C104.1,38.2,103.1,39.2,101.9,39.2z"></path>
              <path fill="#3BABEF" d="M101.9,59.2L101.9,59.2c-1.2,0-2.2-1-2.2-2.2v0c0-1.2,1-2.2,2.2-2.2l0,0c1.2,0,2.2,1,2.2,2.2v0
                C104.1,58.2,103.1,59.2,101.9,59.2z"></path>
              <path fill="#3BABEF" d="M118.9,49.2L118.9,49.2c-1.2,0-2.2-1-2.2-2.2v0c0-1.2,1-2.2,2.2-2.2l0,0c1.2,0,2.2,1,2.2,2.2v0
                C121.1,48.2,120.1,49.2,118.9,49.2z"></path>
              <path fill="#3BABEF" d="M118.9,39.2L118.9,39.2c-1.2,0-2.2-1-2.2-2.2v0c0-1.2,1-2.2,2.2-2.2l0,0c1.2,0,2.2,1,2.2,2.2v0
                C121.1,38.2,120.1,39.2,118.9,39.2z"></path>
              <path fill="#3BABEF" d="M118.9,59.2L118.9,59.2c-1.2,0-2.2-1-2.2-2.2v0c0-1.2,1-2.2,2.2-2.2l0,0c1.2,0,2.2,1,2.2,2.2v0
                C121.1,58.2,120.1,59.2,118.9,59.2z"></path>
              <path fill="#3BABEF" d="M84.9,49.2L84.9,49.2c-1.2,0-2.2-1-2.2-2.2v0c0-1.2,1-2.2,2.2-2.2l0,0c1.2,0,2.2,1,2.2,2.2v0
                C87.1,48.2,86.1,49.2,84.9,49.2z"></path>
              <path fill="#3BABEF" d="M84.9,39.2L84.9,39.2c-1.2,0-2.2-1-2.2-2.2v0c0-1.2,1-2.2,2.2-2.2l0,0c1.2,0,2.2,1,2.2,2.2v0
                C87.1,38.2,86.1,39.2,84.9,39.2z"></path>
              <path fill="#3BABEF" d="M84.9,59.2L84.9,59.2c-1.2,0-2.2-1-2.2-2.2v0c0-1.2,1-2.2,2.2-2.2l0,0c1.2,0,2.2,1,2.2,2.2v0
                C87.1,58.2,86.1,59.2,84.9,59.2z"></path>
              <path fill="#3BABEF" d="M110.4,29.2L110.4,29.2c-1.2,0-2.2-1-2.2-2.2v0c0-1.2,1-2.2,2.2-2.2l0,0c1.2,0,2.2,1,2.2,2.2v0
                C112.6,28.2,111.6,29.2,110.4,29.2z"></path>
              <path fill="#3BABEF" d="M110.4,49.2L110.4,49.2c-1.2,0-2.2-1-2.2-2.2v0c0-1.2,1-2.2,2.2-2.2l0,0c1.2,0,2.2,1,2.2,2.2v0
                C112.6,48.2,111.6,49.2,110.4,49.2z"></path>
              <path fill="#3BABEF" d="M110.4,69.2L110.4,69.2c-1.2,0-2.2-1-2.2-2.2l0,0c0-1.2,1-2.2,2.2-2.2l0,0c1.2,0,2.2,1,2.2,2.2l0,0
                C112.6,68.2,111.6,69.2,110.4,69.2z"></path>
              <path fill="#3BABEF" d="M110.4,39.2L110.4,39.2c-1.2,0-2.2-1-2.2-2.2v0c0-1.2,1-2.2,2.2-2.2l0,0c1.2,0,2.2,1,2.2,2.2v0
                C112.6,38.2,111.6,39.2,110.4,39.2z"></path>
              <path fill="#3BABEF" d="M110.4,59.2L110.4,59.2c-1.2,0-2.2-1-2.2-2.2v0c0-1.2,1-2.2,2.2-2.2l0,0c1.2,0,2.2,1,2.2,2.2v0
                C112.6,58.2,111.6,59.2,110.4,59.2z"></path>
              <path fill="#3BABEF" d="M93.4,29.2L93.4,29.2c-1.2,0-2.2-1-2.2-2.2v0c0-1.2,1-2.2,2.2-2.2l0,0c1.2,0,2.2,1,2.2,2.2v0
                C95.6,28.2,94.6,29.2,93.4,29.2z"></path>
              <path fill="#3BABEF" d="M93.4,49.2L93.4,49.2c-1.2,0-2.2-1-2.2-2.2v0c0-1.2,1-2.2,2.2-2.2l0,0c1.2,0,2.2,1,2.2,2.2v0
                C95.6,48.2,94.6,49.2,93.4,49.2z"></path>
              <path fill="#3BABEF" d="M93.4,69.2L93.4,69.2c-1.2,0-2.2-1-2.2-2.2l0,0c0-1.2,1-2.2,2.2-2.2l0,0c1.2,0,2.2,1,2.2,2.2l0,0
                C95.6,68.2,94.6,69.2,93.4,69.2z"></path>
              <path fill="#3BABEF" d="M93.4,39.2L93.4,39.2c-1.2,0-2.2-1-2.2-2.2v0c0-1.2,1-2.2,2.2-2.2l0,0c1.2,0,2.2,1,2.2,2.2v0
                C95.6,38.2,94.6,39.2,93.4,39.2z"></path>
              <path fill="#3BABEF" d="M93.4,59.2L93.4,59.2c-1.2,0-2.2-1-2.2-2.2v0c0-1.2,1-2.2,2.2-2.2l0,0c1.2,0,2.2,1,2.2,2.2v0
                C95.6,58.2,94.6,59.2,93.4,59.2z"></path>
              <circle fill="#021E40" stroke="#3BABEF" stroke-miterlimit="10" cx="176.8" cy="47.5" r="27"></circle>
              <path fill="#FDD615" d="M176.8,29.2L176.8,29.2c-1.2,0-2.2-1-2.2-2.2v0c0-1.2,1-2.2,2.2-2.2l0,0c1.2,0,2.2,1,2.2,2.2v0
                C179,28.2,178,29.2,176.8,29.2z"></path>
              <path fill="#FDD615" d="M176.8,49.2L176.8,49.2c-1.2,0-2.2-1-2.2-2.2v0c0-1.2,1-2.2,2.2-2.2l0,0c1.2,0,2.2,1,2.2,2.2v0
                C179,48.2,178,49.2,176.8,49.2z"></path>
              <path fill="#FDD615" d="M176.8,69.2L176.8,69.2c-1.2,0-2.2-1-2.2-2.2l0,0c0-1.2,1-2.2,2.2-2.2l0,0c1.2,0,2.2,1,2.2,2.2l0,0
                C179,68.2,178,69.2,176.8,69.2z"></path>
              <path fill="#FDD615" d="M176.8,39.2L176.8,39.2c-1.2,0-2.2-1-2.2-2.2v0c0-1.2,1-2.2,2.2-2.2l0,0c1.2,0,2.2,1,2.2,2.2v0
                C179,38.2,178,39.2,176.8,39.2z"></path>
              <path fill="#FDD615" d="M176.8,59.2L176.8,59.2c-1.2,0-2.2-1-2.2-2.2v0c0-1.2,1-2.2,2.2-2.2l0,0c1.2,0,2.2,1,2.2,2.2v0
                C179,58.2,178,59.2,176.8,59.2z"></path>
              <path fill="#FDD615" d="M193.8,49.2L193.8,49.2c-1.2,0-2.2-1-2.2-2.2v0c0-1.2,1-2.2,2.2-2.2l0,0c1.2,0,2.2,1,2.2,2.2v0
                C196,48.2,195,49.2,193.8,49.2z"></path>
              <path fill="#FDD615" d="M193.8,39.2L193.8,39.2c-1.2,0-2.2-1-2.2-2.2v0c0-1.2,1-2.2,2.2-2.2l0,0c1.2,0,2.2,1,2.2,2.2v0
                C196,38.2,195,39.2,193.8,39.2z"></path>
              <path fill="#FDD615" d="M193.8,59.2L193.8,59.2c-1.2,0-2.2-1-2.2-2.2v0c0-1.2,1-2.2,2.2-2.2l0,0c1.2,0,2.2,1,2.2,2.2v0
                C196,58.2,195,59.2,193.8,59.2z"></path>
              <path fill="#FDD615" d="M159.8,49.2L159.8,49.2c-1.2,0-2.2-1-2.2-2.2v0c0-1.2,1-2.2,2.2-2.2l0,0c1.2,0,2.2,1,2.2,2.2v0
                C162,48.2,161,49.2,159.8,49.2z"></path>
              <path fill="#FDD615" d="M159.8,39.2L159.8,39.2c-1.2,0-2.2-1-2.2-2.2v0c0-1.2,1-2.2,2.2-2.2l0,0c1.2,0,2.2,1,2.2,2.2v0
                C162,38.2,161,39.2,159.8,39.2z"></path>
              <path fill="#FDD615" d="M159.8,59.2L159.8,59.2c-1.2,0-2.2-1-2.2-2.2v0c0-1.2,1-2.2,2.2-2.2l0,0c1.2,0,2.2,1,2.2,2.2v0
                C162,58.2,161,59.2,159.8,59.2z"></path>
              <path fill="#FDD615" d="M185.2,29.2L185.2,29.2c-1.2,0-2.2-1-2.2-2.2v0c0-1.2,1-2.2,2.2-2.2l0,0c1.2,0,2.2,1,2.2,2.2v0
                C187.5,28.2,186.5,29.2,185.2,29.2z"></path>
              <path fill="#FDD615" d="M185.2,49.2L185.2,49.2c-1.2,0-2.2-1-2.2-2.2v0c0-1.2,1-2.2,2.2-2.2l0,0c1.2,0,2.2,1,2.2,2.2v0
                C187.5,48.2,186.5,49.2,185.2,49.2z"></path>
              <path fill="#FDD615" d="M185.2,69.2L185.2,69.2c-1.2,0-2.2-1-2.2-2.2l0,0c0-1.2,1-2.2,2.2-2.2l0,0c1.2,0,2.2,1,2.2,2.2l0,0
                C187.5,68.2,186.5,69.2,185.2,69.2z"></path>
              <path fill="#FDD615" d="M185.2,39.2L185.2,39.2c-1.2,0-2.2-1-2.2-2.2v0c0-1.2,1-2.2,2.2-2.2l0,0c1.2,0,2.2,1,2.2,2.2v0
                C187.5,38.2,186.5,39.2,185.2,39.2z"></path>
              <path fill="#FDD615" d="M185.2,59.2L185.2,59.2c-1.2,0-2.2-1-2.2-2.2v0c0-1.2,1-2.2,2.2-2.2l0,0c1.2,0,2.2,1,2.2,2.2v0
                C187.5,58.2,186.5,59.2,185.2,59.2z"></path>
              <path fill="#FDD615" d="M168.2,29.2L168.2,29.2c-1.2,0-2.2-1-2.2-2.2v0c0-1.2,1-2.2,2.2-2.2l0,0c1.2,0,2.2,1,2.2,2.2v0
                C170.5,28.2,169.5,29.2,168.2,29.2z"></path>
              <path fill="#FDD615" d="M168.2,49.2L168.2,49.2c-1.2,0-2.2-1-2.2-2.2v0c0-1.2,1-2.2,2.2-2.2l0,0c1.2,0,2.2,1,2.2,2.2v0
                C170.5,48.2,169.5,49.2,168.2,49.2z"></path>
              <path fill="#FDD615" d="M168.2,69.2L168.2,69.2c-1.2,0-2.2-1-2.2-2.2l0,0c0-1.2,1-2.2,2.2-2.2l0,0c1.2,0,2.2,1,2.2,2.2l0,0
                C170.5,68.2,169.5,69.2,168.2,69.2z"></path>
              <path fill="#FDD615" d="M168.2,39.2L168.2,39.2c-1.2,0-2.2-1-2.2-2.2v0c0-1.2,1-2.2,2.2-2.2l0,0c1.2,0,2.2,1,2.2,2.2v0
                C170.5,38.2,169.5,39.2,168.2,39.2z"></path>
              <path fill="#FDD615" d="M168.2,59.2L168.2,59.2c-1.2,0-2.2-1-2.2-2.2v0c0-1.2,1-2.2,2.2-2.2l0,0c1.2,0,2.2,1,2.2,2.2v0
                C170.5,58.2,169.5,59.2,168.2,59.2z"></path>
            </g>
          </g>
        </svg>