<svg version="1.1" xmlns="http://www.w3.org/2000/svg" xmlns:xlink="http://www.w3.org/1999/xlink" xmlns:a="http://ns.adobe.com/AdobeSVGViewerExtensions/3.0/" x="0px" y="0px" width="4.5px" height="144.5px" viewBox="0 0 4.5 144.5" enable-background="new 0 0 4.5 144.5" xml:space="preserve">
        <defs>
        </defs>
        <g>
          <path fill="#3BABEF" d="M2.3,4.5L2.3,4.5C1,4.5,0,3.5,0,2.3v0C0,1,1,0,2.2,0h0c1.2,0,2.2,1,2.2,2.2v0C4.5,3.5,3.5,4.5,2.3,4.5z"></path>
          <path fill="#FDD615" d="M2.3,24.5L2.3,24.5c-1.2,0-2.3-1-2.3-2.2v0C0,21,1,20,2.2,20h0c1.2,0,2.2,1,2.2,2.2v0
            C4.5,23.5,3.5,24.5,2.3,24.5z"></path>
          <path fill="#00D09B" d="M2.3,44.5L2.3,44.5c-1.2,0-2.3-1-2.3-2.2v0C0,41,1,40,2.2,40h0c1.2,0,2.2,1,2.2,2.2v0
            C4.5,43.5,3.5,44.5,2.3,44.5z"></path>
          <path fill="#FDD615" d="M2.3,64.5L2.3,64.5c-1.2,0-2.3-1-2.3-2.2v0C0,61,1,60,2.2,60h0c1.2,0,2.2,1,2.2,2.2v0
            C4.5,63.5,3.5,64.5,2.3,64.5z"></path>
          <path fill="#3BABEF" d="M2.3,84.5L2.3,84.5c-1.2,0-2.3-1-2.3-2.2l0,0C0,81,1,80,2.2,80h0c1.2,0,2.2,1,2.2,2.2l0,0
            C4.5,83.5,3.5,84.5,2.3,84.5z"></path>
          <path fill="#FDD615" d="M2.3,104.5L2.3,104.5c-1.2,0-2.3-1-2.3-2.2l0,0c0-1.2,1-2.2,2.2-2.2h0c1.2,0,2.2,1,2.2,2.2l0,0
            C4.5,103.5,3.5,104.5,2.3,104.5z"></path>
          <path fill="#3BABEF" d="M2.3,124.5L2.3,124.5c-1.2,0-2.3-1-2.3-2.2l0,0c0-1.2,1-2.2,2.2-2.2h0c1.2,0,2.2,1,2.2,2.2l0,0
            C4.5,123.5,3.5,124.5,2.3,124.5z"></path>
          <path fill="#00D09D" d="M2.3,144.5L2.3,144.5c-1.2,0-2.3-1-2.3-2.2l0,0c0-1.2,1-2.2,2.2-2.2h0c1.2,0,2.2,1,2.2,2.2l0,0
            C4.5,143.5,3.5,144.5,2.3,144.5z"></path>
        </g>
      </svg>