<svg version="1.1" xmlns="http://www.w3.org/2000/svg" xmlns:xlink="http://www.w3.org/1999/xlink" xmlns:a="http://ns.adobe.com/AdobeSVGViewerExtensions/3.0/" x="0px" y="0px" width="422.3px" height="429.8px" viewBox="0 0 422.3 429.8" enable-background="new 0 0 422.3 429.8" xml:space="preserve">
						<defs>
						</defs>
						<g>
							<circle fill="#FDD615" cx="180.7" cy="247.7" r="2.3"></circle>
							<circle fill="#FDD615" cx="180.7" cy="260.2" r="2.3"></circle>
							<circle fill="#FDD615" cx="180.7" cy="271.5" r="2.3"></circle>
							<circle fill="#FDD615" cx="192.5" cy="265" r="2.3"></circle>
							<circle fill="#FDD615" cx="169" cy="253.8" r="2.3"></circle>
							<circle fill="#FDD615" cx="192.5" cy="253.8" r="2.3"></circle>
							<circle fill="#FDD615" cx="169" cy="265" r="2.3"></circle>
							<line fill="none" stroke="#FDD615" stroke-width="0.5" stroke-miterlimit="10" x1="169" y1="253.8" x2="180.7" y2="260.2"></line>
							<line fill="none" stroke="#FDD615" stroke-width="0.5" stroke-miterlimit="10" x1="169" y1="265" x2="180.7" y2="271.5"></line>
							<line fill="none" stroke="#FDD615" stroke-miterlimit="10" x1="168.4" y1="255.1" x2="168.4" y2="265.1"></line>
							<line fill="none" stroke="#FDD615" stroke-miterlimit="10" x1="180.4" y1="260.1" x2="180.4" y2="272.1"></line>
							<line fill="none" stroke="#FDD615" stroke-width="0.5" stroke-miterlimit="10" x1="180.7" y1="247.7" x2="169" y2="253.8"></line>
							<line fill="none" stroke="#FDD615" stroke-width="0.5" stroke-miterlimit="10" x1="180.7" y1="271.5" x2="192.5" y2="265"></line>
							<line fill="none" stroke="#FDD615" stroke-width="0.5" stroke-miterlimit="10" x1="180.7" y1="247.7" x2="192.5" y2="253.8"></line>
							<line fill="none" stroke="#FDD615" stroke-miterlimit="10" x1="192.4" y1="265.1" x2="192.4" y2="255.1"></line>
							<line fill="none" stroke="#FDD615" stroke-width="0.5" stroke-miterlimit="10" x1="180.7" y1="260.2" x2="192.5" y2="253.8"></line>
						</g>
						<g>
							<circle fill="#FDD615" cx="160" cy="213.7" r="2.3"></circle>
							<circle fill="#FDD615" cx="139.8" cy="224.9" r="2.3"></circle>
							<circle fill="#FDD615" cx="140.9" cy="236.9" r="2.3"></circle>
							<circle fill="#FDD615" cx="140.9" cy="248.3" r="2.3"></circle>
							<circle fill="#FDD615" cx="171" cy="231.7" r="2.3"></circle>
							<circle fill="#FDD615" cx="129.1" cy="230.5" r="2.3"></circle>
							<circle fill="#FDD615" cx="117.5" cy="212" r="2.3"></circle>
							<circle fill="#FDD615" cx="106.8" cy="217.6" r="2.3"></circle>
							<circle fill="#FDD615" cx="106.8" cy="229.2" r="2.3"></circle>
							<circle fill="#FDD615" cx="171" cy="220.5" r="2.3"></circle>
							<circle fill="#FDD615" cx="150.7" cy="231.5" r="2.3"></circle>
							<circle fill="#FDD615" cx="150.7" cy="242.9" r="2.3"></circle>
							<circle fill="#FDD615" cx="129.1" cy="241.7" r="2.3"></circle>
							<line fill="none" stroke="#FDD615" stroke-width="0.5" stroke-miterlimit="10" x1="129.1" y1="230.5" x2="140.9" y2="236.9"></line>
							<line fill="none" stroke="#FDD615" stroke-width="0.5" stroke-miterlimit="10" x1="129.1" y1="241.7" x2="140.9" y2="248.3"></line>
							<line fill="none" stroke="#FDD615" stroke-miterlimit="10" x1="128.4" y1="231.1" x2="128.4" y2="241.1"></line>
							<line fill="none" stroke="#FDD615" stroke-miterlimit="10" x1="140.4" y1="237.1" x2="140.4" y2="249.1"></line>
							<line fill="none" stroke="#FDD615" stroke-width="0.5" stroke-miterlimit="10" x1="160.6" y1="214.1" x2="129.1" y2="230.5"></line>
							<line fill="none" stroke="#FDD615" stroke-width="0.5" stroke-miterlimit="10" x1="140.9" y1="248.3" x2="171" y2="231.7"></line>
							<line fill="none" stroke="#FDD615" stroke-width="0.5" stroke-miterlimit="10" x1="160.6" y1="214.1" x2="171" y2="220.5"></line>
							<line fill="none" stroke="#FDD615" stroke-miterlimit="10" x1="171.4" y1="232.1" x2="171.4" y2="220.1"></line>
							<line fill="none" stroke="#FDD615" stroke-width="0.5" stroke-miterlimit="10" x1="140.9" y1="236.9" x2="171" y2="220.5"></line>
							<line fill="none" stroke="#FDD615" stroke-width="0.5" stroke-miterlimit="10" x1="106.8" y1="217.6" x2="129.1" y2="230.5"></line>
							<line fill="none" stroke="#FDD615" stroke-width="0.5" stroke-miterlimit="10" x1="117.5" y1="212" x2="150.5" y2="231.7"></line>
							<line fill="none" stroke="#FDD615" stroke-width="0.5" stroke-miterlimit="10" x1="106.8" y1="217.6" x2="117.5" y2="212"></line>
							<line fill="none" stroke="#FDD615" stroke-miterlimit="10" x1="106.4" y1="229.1" x2="106.4" y2="218.1"></line>
							<line fill="none" stroke="#FDD615" stroke-width="0.5" stroke-miterlimit="10" x1="129.1" y1="241.7" x2="106.8" y2="229.2"></line>
							<line fill="none" stroke="#FDD615" stroke-width="0.5" stroke-miterlimit="10" x1="150.7" y1="231.4" x2="150.4" y2="242.9"></line>
						</g>
						<g>
							<circle fill="#FDD615" cx="103.9" cy="322.7" r="2.3"></circle>
							<circle fill="#FDD615" cx="83" cy="299.4" r="2.3"></circle>
							<circle fill="#FDD615" cx="70.6" cy="329.9" r="2.3"></circle>
							<circle fill="#FDD615" cx="70.6" cy="341.4" r="2.3"></circle>
							<circle fill="#FDD615" cx="49" cy="330.1" r="2.3"></circle>
							<circle fill="#FDD615" cx="49" cy="318.5" r="2.3"></circle>
							<circle fill="#FDD615" cx="103.8" cy="310.8" r="2.3"></circle>
							<line fill="none" stroke="#FDD615" stroke-width="0.5" stroke-miterlimit="10" x1="71.2" y1="306" x2="83" y2="299.4"></line>
							<line fill="none" stroke="#FDD615" stroke-width="0.5" stroke-miterlimit="10" x1="70.6" y1="329.9" x2="49.1" y2="318.5"></line>
							<line fill="none" stroke="#FDD615" stroke-width="0.5" stroke-miterlimit="10" x1="70.6" y1="329.9" x2="103.8" y2="310.8"></line>
							<line fill="none" stroke="#FDD615" stroke-width="0.5" stroke-miterlimit="10" x1="103.7" y1="322.7" x2="103.8" y2="310.8"></line>
							<line fill="none" stroke="#FDD615" stroke-width="0.5" stroke-miterlimit="10" x1="70.6" y1="341.9" x2="70.6" y2="330.1"></line>
							<path fill="none" stroke="#FDD615" stroke-width="0.5" stroke-miterlimit="10" d="M83,299.4"></path>
							<path fill="none" stroke="#FDD615" stroke-width="0.5" stroke-miterlimit="10" d="M83,310.8"></path>
							<line fill="none" stroke="#FDD615" stroke-width="0.5" stroke-miterlimit="10" x1="83" y1="299.4" x2="103.8" y2="310.8"></line>
							<path fill="none" stroke="#FDD615" stroke-width="0.5" stroke-miterlimit="10" d="M113.2,327.2"></path>
							<line fill="none" stroke="#FDD615" stroke-width="0.5" stroke-miterlimit="10" x1="70.6" y1="341.4" x2="103.7" y2="322.7"></line>
							<line fill="none" stroke="#FDD615" stroke-width="0.5" stroke-miterlimit="10" x1="49" y1="330.1" x2="70.6" y2="341.4"></line>
							<line fill="none" stroke="#FDD615" stroke-miterlimit="10" x1="48.4" y1="318.1" x2="48.4" y2="330.1"></line>
							<line fill="none" stroke="#FDD615" stroke-width="0.5" stroke-miterlimit="10" x1="71.2" y1="306" x2="49" y2="318.5"></line>
						</g>
						<g>
							<circle fill="#FDD615" cx="120.7" cy="94.1" r="2.3"></circle>
							<circle fill="#FDD615" cx="100.7" cy="82.1" r="2.3"></circle>
							<circle fill="#FDD615" cx="100.5" cy="105.1" r="2.3"></circle>
							<circle fill="#FDD615" cx="100.5" cy="162.7" r="2.3"></circle>
							<circle fill="#FDD615" cx="80.7" cy="150.9" r="2.3"></circle>
							<circle fill="#FDD615" cx="80.2" cy="93.7" r="2.3"></circle>
							<circle fill="#FDD615" cx="120.7" cy="150.9" r="2.3"></circle>
							<line fill="none" stroke="#FDD615" stroke-width="0.5" stroke-miterlimit="10" x1="101.6" y1="105.1" x2="80.1" y2="93.7"></line>
							<path fill="none" stroke="#FDD615" stroke-width="0.5" stroke-miterlimit="10" d="M101.6,105.1"></path>
							<line fill="none" stroke="#FDD615" stroke-width="0.5" stroke-miterlimit="10" x1="120.5" y1="150.8" x2="120.7" y2="93.6"></line>
							<line fill="none" stroke="#FDD615" stroke-miterlimit="10" x1="101.4" y1="160.1" x2="101.4" y2="103.1"></line>
							<path fill="none" stroke="#FDD615" stroke-width="0.5" stroke-miterlimit="10" d="M100.7,82"></path>
							<path fill="none" stroke="#FDD615" stroke-width="0.5" stroke-miterlimit="10" d="M114,85.9"></path>
							<line fill="none" stroke="#FDD615" stroke-width="0.5" stroke-miterlimit="10" x1="100.5" y1="82" x2="120.7" y2="93.6"></line>
							<path fill="none" stroke="#FDD615" stroke-width="0.5" stroke-miterlimit="10" d="M144.1,102.4"></path>
							<path fill="none" stroke="#FDD615" stroke-width="0.5" stroke-miterlimit="10" d="M101.6,116.6"></path>
							<line fill="none" stroke="#FDD615" stroke-width="0.5" stroke-miterlimit="10" x1="80.7" y1="150.9" x2="100.5" y2="162.7"></line>
							<line fill="none" stroke="#FDD615" stroke-miterlimit="10" x1="80.4" y1="94.1" x2="80.4" y2="151.1"></line>
							<line fill="none" stroke="#FDD615" stroke-width="0.5" stroke-miterlimit="10" x1="102.2" y1="81.2" x2="80.1" y2="93.7"></line>
						</g>
						<g>
							<circle fill="#33AAF1" cx="207.8" cy="243.1" r="2.3"></circle>
							<circle fill="#33AAF1" cx="207.8" cy="184.2" r="2.3"></circle>
							<circle fill="#33AAF1" cx="227.9" cy="231.9" r="2.3"></circle>
							<circle fill="#33AAF1" cx="247.5" cy="220.4" r="2.3"></circle>
							<circle fill="#33AAF1" cx="267.8" cy="208.4" r="2.3"></circle>
							<circle fill="#33AAF1" cx="287.7" cy="197.2" r="2.3"></circle>
							<circle fill="#33AAF1" cx="267.9" cy="185.4" r="2.3"></circle>
							<circle fill="#33AAF1" cx="247.5" cy="196.5" r="2.3"></circle>
							<circle fill="#33AAF1" cx="227.9" cy="208.2" r="2.3"></circle>
							<circle fill="#33AAF1" cx="187.7" cy="208.2" r="2.3"></circle>
							<circle fill="#33AAF1" cx="167.7" cy="196.5" r="2.3"></circle>
							<circle fill="#33AAF1" cx="167.4" cy="220" r="2.3"></circle>
							<circle fill="#33AAF1" cx="187.7" cy="231.6" r="2.3"></circle>
							<circle fill="#33AAF1" cx="147.7" cy="208.2" r="2.3"></circle>
							<circle fill="#33AAF1" cx="147.3" cy="185.4" r="2.3"></circle>
							<circle fill="#33AAF1" cx="127.8" cy="196.8" r="2.3"></circle>
							<circle fill="#33AAF1" cx="107.9" cy="184.9" r="2.3"></circle>
							<circle fill="#33AAF1" cx="127.6" cy="173.8" r="2.3"></circle>
							<circle fill="#33AAF1" cx="207.8" cy="219.6" r="2.3"></circle>
							<circle fill="#33AAF1" cx="307.8" cy="185.3" r="2.3"></circle>
							<line fill="none" stroke="#33AAF1" stroke-width="0.5" stroke-miterlimit="10" x1="107.9" y1="184.9" x2="208.1" y2="243.3"></line>
							<line fill="none" stroke="#33AAF1" stroke-width="0.5" stroke-miterlimit="10" x1="127.5" y1="173.5" x2="107.9" y2="184.9"></line>
							<line fill="none" stroke="#33AAF1" stroke-width="0.5" stroke-miterlimit="10" x1="207.5" y1="219.9" x2="127.3" y2="173.8"></line>
							<line fill="none" stroke="#33AAF1" stroke-width="0.5" stroke-miterlimit="10" x1="287.5" y1="174.2" x2="307.7" y2="185.6"></line>
							<line fill="none" stroke="#33AAF1" stroke-width="0.5" stroke-miterlimit="10" x1="208.1" y1="243.3" x2="307.7" y2="185.6"></line>
							<line fill="none" stroke="#33AAF1" stroke-width="0.5" stroke-miterlimit="10" x1="207.5" y1="219.9" x2="287.5" y2="174.2"></line>
							<circle fill="#33AAF1" cx="227.9" cy="173" r="2.3"></circle>
							<circle fill="#33AAF1" cx="247.5" cy="161.5" r="2.3"></circle>
							<circle fill="#33AAF1" cx="267.8" cy="149.5" r="2.3"></circle>
							<circle fill="#33AAF1" cx="247.5" cy="137.6" r="2.3"></circle>
							<circle fill="#33AAF1" cx="227.9" cy="149.4" r="2.3"></circle>
							<circle fill="#33AAF1" cx="187.7" cy="149.4" r="2.3"></circle>
							<circle fill="#33AAF1" cx="167.7" cy="137.6" r="2.3"></circle>
							<circle fill="#33AAF1" cx="167.4" cy="161.1" r="2.3"></circle>
							<circle fill="#33AAF1" cx="187.7" cy="172.7" r="2.3"></circle>
							<circle fill="#33AAF1" cx="147.7" cy="149.4" r="2.3"></circle>
							<circle fill="#33AAF1" cx="147.3" cy="126.5" r="2.3"></circle>
							<circle fill="#33AAF1" cx="127.8" cy="138" r="2.3"></circle>
							<circle fill="#33AAF1" cx="107.9" cy="126" r="2.3"></circle>
							<circle fill="#33AAF1" cx="127.6" cy="114.9" r="2.3"></circle>
							<circle fill="#33AAF1" cx="207.8" cy="160.8" r="2.3"></circle>
							<circle fill="#F03140" cx="287.6" cy="115.6" r="2.3"></circle>
							<circle fill="#F03140" cx="307.8" cy="126.5" r="2.3"></circle>
							<line fill="none" stroke="#33AAF1" stroke-width="0.5" stroke-miterlimit="10" x1="107.9" y1="126" x2="208.1" y2="184.5"></line>
							<line fill="none" stroke="#33AAF1" stroke-width="0.5" stroke-miterlimit="10" x1="127.5" y1="114.6" x2="107.9" y2="126"></line>
							<line fill="none" stroke="#33AAF1" stroke-width="0.5" stroke-miterlimit="10" x1="207.5" y1="161" x2="127.3" y2="114.9"></line>
							<line fill="none" stroke="#F03140" stroke-width="0.5" stroke-miterlimit="10" x1="287.5" y1="115.4" x2="307.7" y2="126.7"></line>
							<line fill="none" stroke="#33AAF1" stroke-width="0.5" stroke-miterlimit="10" x1="208.1" y1="184.5" x2="287.6" y2="138.4"></line>
							<line fill="none" stroke="#33AAF1" stroke-width="0.5" stroke-miterlimit="10" x1="207.5" y1="161" x2="267.6" y2="126.7"></line>
							<line fill="none" stroke="#33AAF1" stroke-miterlimit="10" x1="227.4" y1="173.1" x2="227.4" y2="232.1"></line>
							<line fill="none" stroke="#33AAF1" stroke-width="0.5" stroke-miterlimit="10" x1="247.4" y1="160.8" x2="247.5" y2="220"></line>
							<line fill="none" stroke="#33AAF1" stroke-miterlimit="10" x1="268.4" y1="148.1" x2="268.4" y2="207.1"></line>
							<line fill="none" stroke="#33AAF1" stroke-width="0.5" stroke-miterlimit="10" x1="287.3" y1="173.1" x2="287.1" y2="197.5"></line>
							<line fill="none" stroke="#33AAF1" stroke-width="0.5" stroke-miterlimit="10" x1="307.7" y1="161.3" x2="307.7" y2="185.6"></line>
							<line fill="none" stroke="#F03140" stroke-miterlimit="10" x1="307.4" y1="127.1" x2="307.4" y2="161.1"></line>
							<line fill="none" stroke="#F03140" stroke-miterlimit="10" x1="287.4" y1="139.1" x2="287.4" y2="173.1"></line>
							<line fill="none" stroke="#33AAF1" stroke-miterlimit="10" x1="207.4" y1="185.1" x2="207.4" y2="244.1"></line>
							<line fill="none" stroke="#33AAF1" stroke-width="0.5" stroke-miterlimit="10" x1="188.3" y1="172.9" x2="188" y2="231.6"></line>
							<line fill="none" stroke="#33AAF1" stroke-miterlimit="10" x1="167.4" y1="161.1" x2="167.4" y2="220.1"></line>
							<line fill="none" stroke="#33AAF1" stroke-width="0.5" stroke-miterlimit="10" x1="148.4" y1="149.8" x2="147.3" y2="207.8"></line>
							<line fill="none" stroke="#33AAF1" stroke-miterlimit="10" x1="127.4" y1="137.1" x2="127.4" y2="196.1"></line>
							<line fill="none" stroke="#33AAF1" stroke-miterlimit="10" x1="107.4" y1="126.1" x2="107.4" y2="185.1"></line>
							<line fill="none" stroke="#33AAF1" stroke-width="0.5" stroke-miterlimit="10" x1="127.6" y1="138.2" x2="147.3" y2="126.8"></line>
							<line fill="none" stroke="#33AAF1" stroke-width="0.5" stroke-miterlimit="10" x1="147.5" y1="149.4" x2="167.9" y2="138"></line>
							<line fill="none" stroke="#33AAF1" stroke-width="0.5" stroke-miterlimit="10" x1="167.4" y1="161" x2="187.8" y2="149.6"></line>
							<line fill="none" stroke="#33AAF1" stroke-width="0.5" stroke-miterlimit="10" x1="187.5" y1="173" x2="208.1" y2="161"></line>
							<line fill="none" stroke="#33AAF1" stroke-width="0.5" stroke-miterlimit="10" x1="228.6" y1="173" x2="208.1" y2="161"></line>
							<line fill="none" stroke="#33AAF1" stroke-width="0.5" stroke-miterlimit="10" x1="247.4" y1="161.5" x2="227.6" y2="148.9"></line>
							<line fill="none" stroke="#33AAF1" stroke-width="0.5" stroke-miterlimit="10" x1="268.7" y1="148.9" x2="247.6" y2="138"></line>
							<line fill="none" stroke="#F03140" stroke-width="0.5" stroke-miterlimit="10" x1="287.6" y1="138.4" x2="267.6" y2="126.7"></line>
							<line fill="none" stroke="#F03140" stroke-width="0.5" stroke-miterlimit="10" x1="287.5" y1="115.4" x2="267.6" y2="126.7"></line>
							<line fill="none" stroke="#F03140" stroke-width="0.5" stroke-miterlimit="10" x1="308.2" y1="126.5" x2="288.3" y2="137.9"></line>
							<line fill="none" stroke="#F03140" stroke-width="0.5" stroke-miterlimit="10" x1="308.2" y1="161.3" x2="288.3" y2="172.6"></line>
							<circle fill="#F03140" cx="287.7" cy="138.4" r="2.3"></circle>
							<circle fill="#F03140" cx="267.9" cy="126.5" r="2.3"></circle>
							<circle fill="#F03140" cx="287.6" cy="173.3" r="2.3"></circle>
							<circle fill="#F03140" cx="307.9" cy="161.9" r="2.3"></circle>
						</g>
						<g>
							<circle fill="#FDD615" cx="252.9" cy="334.5" r="2.3"></circle>
							<circle fill="#FDD615" cx="232" cy="311.2" r="2.3"></circle>
							<circle fill="#FDD615" cx="219.6" cy="341.7" r="2.3"></circle>
							<circle fill="#FDD615" cx="219.6" cy="353.3" r="2.3"></circle>
							<circle fill="#FDD615" cx="197.9" cy="342" r="2.3"></circle>
							<circle fill="#FDD615" cx="197.9" cy="330.3" r="2.3"></circle>
							<circle fill="#FDD615" cx="252.8" cy="322.6" r="2.3"></circle>
							<line fill="none" stroke="#FDD615" stroke-width="0.5" stroke-miterlimit="10" x1="220.2" y1="317.8" x2="232" y2="311.2"></line>
							<line fill="none" stroke="#FDD615" stroke-width="0.5" stroke-miterlimit="10" x1="219.6" y1="341.7" x2="198.1" y2="330.3"></line>
							<line fill="none" stroke="#FDD615" stroke-width="0.5" stroke-miterlimit="10" x1="219.6" y1="341.7" x2="252.8" y2="322.7"></line>
							<line fill="none" stroke="#FDD615" stroke-width="0.5" stroke-miterlimit="10" x1="252.7" y1="334.5" x2="252.8" y2="322.7"></line>
							<line fill="none" stroke="#FDD615" stroke-width="0.5" stroke-miterlimit="10" x1="219.6" y1="353.7" x2="219.6" y2="341.9"></line>
							<path fill="none" stroke="#FDD615" stroke-width="0.5" stroke-miterlimit="10" d="M232,311.2"></path>
							<path fill="none" stroke="#FDD615" stroke-width="0.5" stroke-miterlimit="10" d="M232,322.6"></path>
							<line fill="none" stroke="#FDD615" stroke-width="0.5" stroke-miterlimit="10" x1="232" y1="311.2" x2="252.8" y2="322.7"></line>
							<path fill="none" stroke="#FDD615" stroke-width="0.5" stroke-miterlimit="10" d="M262.1,339.1"></path>
							<line fill="none" stroke="#FDD615" stroke-width="0.5" stroke-miterlimit="10" x1="219.6" y1="353.3" x2="252.7" y2="334.5"></line>
							<line fill="none" stroke="#FDD615" stroke-width="0.5" stroke-miterlimit="10" x1="197.9" y1="342" x2="219.6" y2="353.3"></line>
							<line fill="none" stroke="#FDD615" stroke-miterlimit="10" x1="197.4" y1="331.1" x2="197.4" y2="342.1"></line>
							<line fill="none" stroke="#FDD615" stroke-width="0.5" stroke-miterlimit="10" x1="220.2" y1="317.8" x2="197.9" y2="330.3"></line>
						</g>
						<g>
							<circle fill="#FDD615" cx="313.7" cy="264.9" r="2.3"></circle>
							<circle fill="#FDD615" cx="313.7" cy="277.4" r="2.3"></circle>
							<circle fill="#FDD615" cx="313.7" cy="288.8" r="2.3"></circle>
							<circle fill="#FDD615" cx="325.5" cy="282.2" r="2.3"></circle>
							<circle fill="#FDD615" cx="302" cy="271" r="2.3"></circle>
							<circle fill="#FDD615" cx="325.5" cy="271" r="2.3"></circle>
							<circle fill="#FDD615" cx="302" cy="282.2" r="2.3"></circle>
							<line fill="none" stroke="#FDD615" stroke-width="0.5" stroke-miterlimit="10" x1="302" y1="271" x2="313.7" y2="277.4"></line>
							<line fill="none" stroke="#FDD615" stroke-width="0.5" stroke-miterlimit="10" x1="302" y1="282.2" x2="313.7" y2="288.8"></line>
							<line fill="none" stroke="#FDD615" stroke-miterlimit="10" x1="301.4" y1="271.1" x2="301.4" y2="282.1"></line>
							<line fill="none" stroke="#FDD615" stroke-miterlimit="10" x1="313.4" y1="277.1" x2="313.4" y2="288.1"></line>
							<line fill="none" stroke="#FDD615" stroke-width="0.5" stroke-miterlimit="10" x1="313.7" y1="264.9" x2="302" y2="271"></line>
							<line fill="none" stroke="#FDD615" stroke-width="0.5" stroke-miterlimit="10" x1="313.7" y1="288.8" x2="325.5" y2="282.2"></line>
							<line fill="none" stroke="#FDD615" stroke-width="0.5" stroke-miterlimit="10" x1="313.7" y1="264.9" x2="325.5" y2="271"></line>
							<line fill="none" stroke="#FDD615" stroke-miterlimit="10" x1="325.4" y1="282.1" x2="325.4" y2="271.1"></line>
							<line fill="none" stroke="#FDD615" stroke-width="0.5" stroke-miterlimit="10" x1="313.7" y1="277.4" x2="325.5" y2="271"></line>
						</g>
						<g>
							<circle fill="#FDD615" cx="304.7" cy="207.4" r="2.3"></circle>
							<circle fill="#FDD615" cx="304.7" cy="219.9" r="2.3"></circle>
							<circle fill="#FDD615" cx="292.9" cy="213.5" r="2.3"></circle>
							<circle fill="#FDD615" cx="316.5" cy="213.5" r="2.3"></circle>
							<line fill="none" stroke="#FDD615" stroke-width="0.5" stroke-miterlimit="10" x1="292.9" y1="213.5" x2="304.7" y2="219.9"></line>
							<line fill="none" stroke="#FDD615" stroke-width="0.5" stroke-miterlimit="10" x1="304.7" y1="207.4" x2="292.9" y2="213.5"></line>
							<line fill="none" stroke="#FDD615" stroke-width="0.5" stroke-miterlimit="10" x1="304.7" y1="207.4" x2="316.5" y2="213.5"></line>
							<line fill="none" stroke="#FDD615" stroke-width="0.5" stroke-miterlimit="10" x1="304.7" y1="219.9" x2="316.5" y2="213.5"></line>
						</g>
						<g>
							<circle fill="#FDD615" cx="286" cy="281.2" r="2.3"></circle>
							<circle fill="#FDD615" cx="286" cy="293.8" r="2.3"></circle>
							<circle fill="#FDD615" cx="286" cy="305.1" r="2.3"></circle>
							<circle fill="#FDD615" cx="297.7" cy="298.6" r="2.3"></circle>
							<circle fill="#FDD615" cx="274.2" cy="287.3" r="2.3"></circle>
							<circle fill="#FDD615" cx="297.7" cy="287.3" r="2.3"></circle>
							<circle fill="#FDD615" cx="274.2" cy="298.6" r="2.3"></circle>
							<line fill="none" stroke="#FDD615" stroke-width="0.5" stroke-miterlimit="10" x1="274.2" y1="287.3" x2="286" y2="293.8"></line>
							<line fill="none" stroke="#FDD615" stroke-width="0.5" stroke-miterlimit="10" x1="274.2" y1="298.6" x2="286" y2="305.1"></line>
							<line fill="none" stroke="#FDD615" stroke-miterlimit="10" x1="275.4" y1="287.1" x2="275.4" y2="299.1"></line>
							<line fill="none" stroke="#FDD615" stroke-miterlimit="10" x1="286.4" y1="294.1" x2="286.4" y2="305.1"></line>
							<line fill="none" stroke="#FDD615" stroke-width="0.5" stroke-miterlimit="10" x1="286" y1="281.2" x2="274.2" y2="287.3"></line>
							<line fill="none" stroke="#FDD615" stroke-width="0.5" stroke-miterlimit="10" x1="286" y1="305.1" x2="297.7" y2="298.6"></line>
							<line fill="none" stroke="#FDD615" stroke-width="0.5" stroke-miterlimit="10" x1="286" y1="281.2" x2="297.7" y2="287.3"></line>
							<line fill="none" stroke="#FDD615" stroke-miterlimit="10" x1="298.4" y1="299.1" x2="298.4" y2="287.1"></line>
							<line fill="none" stroke="#FDD615" stroke-width="0.5" stroke-miterlimit="10" x1="286" y1="293.8" x2="297.7" y2="287.3"></line>
						</g>
						<g>
							<circle fill="#00CE99" cx="220.8" cy="254.9" r="2.3"></circle>
							<circle fill="#00CE99" cx="200.7" cy="289.6" r="2.3"></circle>
							<circle fill="#00CE99" cx="200.7" cy="312.7" r="2.3"></circle>
							<circle fill="#00CE99" cx="260.8" cy="278" r="2.3"></circle>
							<circle fill="#00CE99" cx="260.4" cy="255.2" r="2.3"></circle>
							<circle fill="#00CE99" cx="180.7" cy="278" r="2.3"></circle>
							<circle fill="#00CE99" cx="220.8" cy="300.9" r="2.3"></circle>
							<circle fill="#00CE99" cx="240.8" cy="289.6" r="2.3"></circle>
							<circle fill="#00CE99" cx="280.8" cy="266.5" r="2.3"></circle>
							<circle fill="#00CE99" cx="300.9" cy="254.9" r="2.3"></circle>
							<circle fill="#00CE99" cx="300.8" cy="231.8" r="2.3"></circle>
							<circle fill="#00CE99" cx="280.8" cy="220.3" r="2.3"></circle>
							<circle fill="#00CE99" cx="280.8" cy="243.4" r="2.3"></circle>
							<circle fill="#00CE99" cx="260.8" cy="231.8" r="2.3"></circle>
							<circle fill="#00CE99" cx="240.8" cy="243.3" r="2.3"></circle>
							<circle fill="#00CE99" cx="200.5" cy="266.6" r="2.3"></circle>
							<circle fill="#00CE99" cx="180.7" cy="300.9" r="2.3"></circle>
							<line fill="none" stroke="#00CE99" stroke-width="0.5" stroke-miterlimit="10" x1="180.4" y1="277.9" x2="200.4" y2="289.9"></line>
							<line fill="none" stroke="#00CE99" stroke-width="0.5" stroke-miterlimit="10" x1="180.4" y1="301.3" x2="200.7" y2="312.7"></line>
							<line fill="none" stroke="#00CE99" stroke-width="0.5" stroke-miterlimit="10" x1="180.6" y1="277.9" x2="180.4" y2="301.3"></line>
							<line fill="none" stroke="#00CE99" stroke-miterlimit="10" x1="200.4" y1="289.1" x2="200.4" y2="313.1"></line>
							<line fill="none" stroke="#00CE99" stroke-width="0.5" stroke-miterlimit="10" x1="280.8" y1="220.3" x2="180.7" y2="278"></line>
							<line fill="none" stroke="#00CE99" stroke-width="0.5" stroke-miterlimit="10" x1="200.7" y1="312.7" x2="300.8" y2="254.9"></line>
							<line fill="none" stroke="#00CE99" stroke-width="0.5" stroke-miterlimit="10" x1="200.4" y1="289.9" x2="300.8" y2="231.7"></line>
							<circle fill="#00CE99" cx="220.7" cy="278.2" r="2.3"></circle>
							<circle fill="#00CE99" cx="240.7" cy="266.6" r="2.3"></circle>
							<line fill="none" stroke="#00CE99" stroke-width="0.5" stroke-miterlimit="10" x1="280.8" y1="220.3" x2="300.8" y2="231.7"></line>
							<line fill="none" stroke="#00CE99" stroke-width="0.5" stroke-miterlimit="10" x1="300.8" y1="254.9" x2="300.8" y2="231.7"></line>
							<line fill="none" stroke="#00CE99" stroke-width="0.5" stroke-miterlimit="10" x1="280.6" y1="266.6" x2="280.6" y2="243.8"></line>
							<line fill="none" stroke="#00CE99" stroke-width="0.5" stroke-miterlimit="10" x1="260.9" y1="231.8" x2="280.6" y2="243.2"></line>
							<line fill="none" stroke="#00CE99" stroke-width="0.5" stroke-miterlimit="10" x1="240.4" y1="289.8" x2="240.7" y2="266.6"></line>
							<line fill="none" stroke="#00CE99" stroke-width="0.5" stroke-miterlimit="10" x1="220.8" y1="300.8" x2="220.7" y2="278.2"></line>
							<line fill="none" stroke="#00CE99" stroke-width="0.5" stroke-miterlimit="10" x1="200.3" y1="266.8" x2="220.7" y2="278.2"></line>
							<line fill="none" stroke="#00CE99" stroke-width="0.5" stroke-miterlimit="10" x1="220.8" y1="254.9" x2="240.7" y2="266.6"></line>
							<line fill="none" stroke="#00CE99" stroke-width="0.5" stroke-miterlimit="10" x1="240.6" y1="243.5" x2="260" y2="255.2"></line>
							<line fill="none" stroke="#00CE99" stroke-width="0.5" stroke-miterlimit="10" x1="260.8" y1="278" x2="260.3" y2="255.2"></line>
						</g>
						<circle fill="#88CA30" cx="280.7" cy="78" r="2.3"></circle>
						<circle fill="#88CA30" cx="280.7" cy="66.2" r="2.3"></circle>
						<circle fill="#88CA30" cx="280.7" cy="54.4" r="2.3"></circle>
						<circle fill="#88CA30" cx="280.7" cy="42.6" r="2.3"></circle>
						<circle fill="#88CA30" cx="280.7" cy="30.9" r="2.3"></circle>
						<circle fill="#88CA30" cx="280.7" cy="19.1" r="2.3"></circle>
						<line fill="none" stroke="#88CA30" stroke-miterlimit="10" x1="280.4" y1="6.1" x2="280.4" y2="78.1"></line>
						<circle fill="#88CA30" cx="260.9" cy="92.6" r="2.3"></circle>
						<circle fill="#88CA30" cx="260.9" cy="80.9" r="2.3"></circle>
						<circle fill="#88CA30" cx="260.9" cy="69.1" r="2.3"></circle>
						<circle fill="#88CA30" cx="260.9" cy="57.3" r="2.3"></circle>
						<circle fill="#88CA30" cx="260.9" cy="45.6" r="2.3"></circle>
						<line fill="none" stroke="#88CA30" stroke-miterlimit="10" x1="260.4" y1="46.1" x2="260.4" y2="93.1"></line>
						<g>
							<circle fill="#00CE99" cx="340.8" cy="271.7" r="2.3"></circle>
							<g>
								<g>
									<path fill="none" stroke="#00CE99" stroke-width="0.5" stroke-miterlimit="10" d="M352.3,186.7c3.2,1.9,4.8,4.5,4.8,7.1
										s-1.6,5.1-4.7,7.1c-3.2,1.9-7.3,2.9-11.5,2.9c-4.2,0-8.3-1-11.5-2.9c-3.2-1.9-4.8-4.5-4.8-7.1c0-2.6,1.6-5.1,4.7-7.1
										s7.3-2.9,11.5-2.9C344.9,183.8,349.1,184.8,352.3,186.7z"></path>
								</g>
								<g>
									<path fill="none" stroke="#00CE99" stroke-width="0.5" stroke-miterlimit="10" d="M352.3,254.5c3.2,1.9,4.8,4.5,4.8,7.1
										s-1.6,5.1-4.7,7.1c-3.2,1.9-7.3,2.9-11.5,2.9c-4.2,0-8.3-1-11.5-2.9c-3.2-1.9-4.8-4.5-4.8-7.1c0-2.6,1.6-5.1,4.7-7.1
										c3.2-1.9,7.3-2.9,11.5-2.9C344.9,251.6,349.1,252.6,352.3,254.5z"></path>
								</g>
								<line fill="none" stroke="#00CE99" stroke-miterlimit="10" x1="324.4" y1="195.1" x2="324.4" y2="262.1"></line>
								<line fill="none" stroke="#00CE99" stroke-miterlimit="10" x1="356.4" y1="195.1" x2="356.4" y2="262.1"></line>
								<circle fill="#00CE99" cx="324.6" cy="193.8" r="2.3"></circle>
								<circle fill="#00CE99" cx="357.1" cy="193.8" r="2.3"></circle>
								<circle fill="#00CE99" cx="357.1" cy="260.9" r="2.3"></circle>
								<circle fill="#00CE99" cx="324.6" cy="260.9" r="2.3"></circle>
								<circle fill="#00CE99" cx="340.8" cy="251.6" r="2.3"></circle>
								<circle fill="#00CE99" cx="340.8" cy="183" r="2.3"></circle>
								<circle fill="#00CE99" cx="340.8" cy="203.5" r="2.3"></circle>
							</g>
						</g>
						<g>
							<circle fill="#00CE99" cx="127.1" cy="373.3" r="2.3"></circle>
							<g>
								<g>
									<path fill="none" stroke="#00CE99" stroke-width="0.5" stroke-miterlimit="10" d="M138.6,336.5c3.2,1.9,4.8,4.5,4.8,7.1
										s-1.6,5.1-4.7,7.1s-7.3,2.9-11.5,2.9c-4.2,0-8.3-1-11.5-2.9c-3.2-1.9-4.8-4.5-4.8-7.1c0-2.6,1.6-5.1,4.7-7.1
										c3.2-1.9,7.3-2.9,11.5-2.9C131.2,333.6,135.4,334.6,138.6,336.5z"></path>
								</g>
								<g>
									<path fill="none" stroke="#00CE99" stroke-width="0.5" stroke-miterlimit="10" d="M138.6,356.1c3.2,1.9,4.8,4.5,4.8,7.1
										s-1.6,5.1-4.7,7.1s-7.3,2.9-11.5,2.9c-4.2,0-8.3-1-11.5-2.9c-3.2-1.9-4.8-4.5-4.8-7.1c0-2.6,1.6-5.1,4.7-7.1
										c3.2-1.9,7.3-2.9,11.5-2.9C131.2,353.2,135.4,354.1,138.6,356.1z"></path>
								</g>
								<line fill="none" stroke="#00CE99" stroke-miterlimit="10" x1="111.4" y1="344.1" x2="111.4" y2="362.1"></line>
								<line fill="none" stroke="#00CE99" stroke-miterlimit="10" x1="142.4" y1="344.1" x2="142.4" y2="362.1"></line>
								<circle fill="#00CE99" cx="110.9" cy="343.6" r="2.3"></circle>
								<circle fill="#00CE99" cx="143.4" cy="343.6" r="2.3"></circle>
								<circle fill="#00CE99" cx="143.4" cy="362.5" r="2.3"></circle>
								<circle fill="#00CE99" cx="110.9" cy="362.5" r="2.3"></circle>
								<circle fill="#00CE99" cx="127.1" cy="353.2" r="2.3"></circle>
								<circle fill="#00CE99" cx="127.1" cy="332.8" r="2.3"></circle>
								<circle fill="#00CE99" cx="127.1" cy="353.3" r="2.3"></circle>
							</g>
						</g>
						<g>
							<circle fill="#00CE99" cx="94.6" cy="354.4" r="2.3"></circle>
							<g>
								<g>
									<path fill="none" stroke="#00CE99" stroke-width="0.5" stroke-miterlimit="10" d="M106,317.7c3.2,1.9,4.8,4.5,4.8,7.1
										c0,2.6-1.6,5.1-4.7,7.1c-3.2,1.9-7.3,2.9-11.5,2.9c-4.2,0-8.3-1-11.5-2.9c-3.2-1.9-4.8-4.5-4.8-7.1c0-2.6,1.6-5.1,4.7-7.1
										c3.2-1.9,7.3-2.9,11.5-2.9C98.7,314.8,102.8,315.7,106,317.7z"></path>
								</g>
								<g>
									<path fill="none" stroke="#00CE99" stroke-width="0.5" stroke-miterlimit="10" d="M106,337.2c3.2,1.9,4.8,4.5,4.8,7.1
										c0,2.6-1.6,5.1-4.7,7.1c-3.2,1.9-7.3,2.9-11.5,2.9c-4.2,0-8.3-1-11.5-2.9c-3.2-1.9-4.8-4.5-4.8-7.1c0-2.6,1.6-5.1,4.7-7.1
										c3.2-1.9,7.3-2.9,11.5-2.9C98.7,334.3,102.8,335.3,106,337.2z"></path>
								</g>
								<line fill="none" stroke="#00CE99" stroke-miterlimit="10" x1="78.4" y1="325.1" x2="78.4" y2="344.1"></line>
								<line fill="none" stroke="#00CE99" stroke-miterlimit="10" x1="111.4" y1="325.1" x2="111.4" y2="344.1"></line>
								<circle fill="#00CE99" cx="78.3" cy="324.7" r="2.3"></circle>
								<circle fill="#00CE99" cx="110.8" cy="324.7" r="2.3"></circle>
								<circle fill="#00CE99" cx="110.8" cy="343.6" r="2.3"></circle>
								<circle fill="#00CE99" cx="78.3" cy="343.6" r="2.3"></circle>
								<circle fill="#00CE99" cx="94.6" cy="334.3" r="2.3"></circle>
								<circle fill="#00CE99" cx="94.6" cy="314" r="2.3"></circle>
								<circle fill="#00CE99" cx="94.6" cy="334.5" r="2.3"></circle>
							</g>
						</g>
						<g>
							<circle fill="#00CE99" cx="160.8" cy="392.6" r="2.3"></circle>
							<g>
								<g>
									<path fill="none" stroke="#00CE99" stroke-width="0.5" stroke-miterlimit="10" d="M172.2,355.8c3.2,1.9,4.8,4.5,4.8,7.1
										s-1.6,5.1-4.7,7.1c-3.2,1.9-7.3,2.9-11.5,2.9c-4.2,0-8.3-1-11.5-2.9c-3.2-1.9-4.8-4.5-4.8-7.1s1.6-5.1,4.7-7.1
										c3.2-1.9,7.3-2.9,11.5-2.9C164.9,352.9,169,353.9,172.2,355.8z"></path>
								</g>
								<g>
									<path fill="none" stroke="#00CE99" stroke-width="0.5" stroke-miterlimit="10" d="M172.2,375.4c3.2,1.9,4.8,4.5,4.8,7.1
										s-1.6,5.1-4.7,7.1c-3.2,1.9-7.3,2.9-11.5,2.9c-4.2,0-8.3-1-11.5-2.9c-3.2-1.9-4.8-4.5-4.8-7.1s1.6-5.1,4.7-7.1s7.3-2.9,11.5-2.9
										C164.9,372.5,169,373.4,172.2,375.4z"></path>
								</g>
								<line fill="none" stroke="#00CE99" stroke-miterlimit="10" x1="145.4" y1="362.1" x2="145.4" y2="382.1"></line>
								<line fill="none" stroke="#00CE99" stroke-miterlimit="10" x1="177.4" y1="362.1" x2="177.4" y2="382.1"></line>
								<circle fill="#00CE99" cx="144.5" cy="362.9" r="2.3"></circle>
								<circle fill="#00CE99" cx="177" cy="362.9" r="2.3"></circle>
								<circle fill="#00CE99" cx="177" cy="381.8" r="2.3"></circle>
								<circle fill="#00CE99" cx="144.5" cy="381.8" r="2.3"></circle>
								<circle fill="#00CE99" cx="160.8" cy="372.5" r="2.3"></circle>
								<circle fill="#00CE99" cx="160.8" cy="352.1" r="2.3"></circle>
								<circle fill="#00CE99" cx="160.8" cy="372.6" r="2.3"></circle>
							</g>
						</g>
						<line fill="none" stroke="#FDD615" stroke-width="0.5" stroke-miterlimit="10" x1="100.5" y1="162.7" x2="120.7" y2="150.9"></line>
						<line fill="none" stroke="#FDD615" stroke-width="0.5" stroke-miterlimit="10" x1="120.6" y1="94.1" x2="100.7" y2="105.1"></line>
						<path fill="none" stroke="#33AAF1" stroke-miterlimit="10" d="M79.3,152.5"></path>
						<path fill="none" stroke="#33AAF1" stroke-miterlimit="10" d="M111.9,333.2"></path>
						<circle fill="#88CA30" cx="280.7" cy="6.1" r="2.3"></circle>
						<linearGradient id="SVGID_1_" gradientUnits="userSpaceOnUse" x1="321.1111" y1="174.9488" x2="381.3646" y2="174.9488">
							<stop offset="0" style="stop-color:#33AAF1"></stop>
							<stop offset="1" style="stop-color:#33AAF1;stop-opacity:0"></stop>
						</linearGradient>
						<polyline opacity="0.5" fill="none" stroke="url(#SVGID_1_)" stroke-width="0.5" stroke-miterlimit="10" points="381.2,186.5
							341.2,163.4 321.2,175 "></polyline>
						<polyline fill="none" points="40.6,313.2 0.6,336.2 160.7,428.7 421.3,278.5 380.9,255.1 "></polyline>
						<polygon opacity="0.5" fill="none" points="281.2,59.4 321.2,82.5 180.7,162.9 60.7,93.6 121.1,59.5 201.2,105.7 "></polygon>
						<g>
							<linearGradient id="SVGID_2_" gradientUnits="userSpaceOnUse" x1="201.1476" y1="106.2465" x2="201.1476" y2="59.0169">
								<stop offset="0" style="stop-color:#33AAF1"></stop>
								<stop offset="1" style="stop-color:#33AAF1;stop-opacity:0"></stop>
							</linearGradient>
							<polyline opacity="0.5" fill="none" stroke="url(#SVGID_2_)" stroke-miterlimit="10" points="121.1,59.5 201.2,105.7 281.2,59.4
								"></polyline>
						</g>
						<path opacity="0.1" fill="#FFFFFF" d="M250.9,104.8c0,1.6-1,3.1-2.9,4.3s-4.5,1.8-7,1.8s-5.2-0.6-7.1-1.8c-1.9-1.2-3-2.7-3-4.3V45
							c0,1.6,1.1,3.1,3,4.3c1.9,1.2,4.5,1.8,7.1,1.8c2.5,0,5.1-0.6,7-1.8c1.9-1.2,2.9-2.7,2.9-4.3V104.8z"></path>
						<path opacity="0.1" fill="#FFFFFF" d="M270.9,94.4c0,1.6-1,3.1-3,4.3s-4.5,1.8-7,1.8c-2.5,0-5.1-0.6-7-1.8c-1.9-1.2-2.9-2.7-2.9-4.3
							V18.2c0,1.6,1,3.1,2.9,4.3c1.9,1.2,4.5,1.8,7,1.8c2.5,0,5.2-0.6,7.1-1.8s3-2.7,3-4.3V94.4z"></path>
						<path fill="none" stroke="#33AAF1" stroke-width="0.5" stroke-miterlimit="10" d="M280.8,17.8"></path>
						<path opacity="0.1" fill="#FFFFFF" d="M289.9,82.4c0,1.6-0.6,3.1-2.5,4.3s-4.3,1.8-6.8,1.8c-2.5,0-4.9-0.6-6.9-1.8
							c-1.9-1.2-2.8-2.7-2.8-4.3V6.1c0,1.6,0.9,3.1,2.8,4.3c1.9,1.2,4.4,1.8,7,1.8c2.5,0,4.7-0.6,6.6-1.8c1.9-1.2,2.5-2.7,2.5-4.3V82.4z"></path>
						<linearGradient id="SVGID_3_" gradientUnits="userSpaceOnUse" x1="201.1553" y1="105.5192" x2="201.1553" y2="225.8885">
							<stop offset="0" style="stop-color:#33AAF1"></stop>
							<stop offset="1" style="stop-color:#33AAF1;stop-opacity:0"></stop>
						</linearGradient>
						<line opacity="0.5" fill="none" stroke="url(#SVGID_3_)" stroke-miterlimit="10" x1="201.2" y1="105.5" x2="201.1" y2="225.9"></line>
						<linearGradient id="SVGID_4_" gradientUnits="userSpaceOnUse" x1="121.1059" y1="59.3142" x2="121.1059" y2="180.0759">
							<stop offset="0" style="stop-color:#33AAF1"></stop>
							<stop offset="1" style="stop-color:#33AAF1;stop-opacity:0"></stop>
						</linearGradient>
						<line opacity="0.5" fill="none" stroke="url(#SVGID_4_)" stroke-miterlimit="10" x1="121.2" y1="59.3" x2="121.1" y2="180.1"></line>
						<linearGradient id="SVGID_5_" gradientUnits="userSpaceOnUse" x1="341.2261" y1="163.437" x2="341.2261" y2="209.6774">
							<stop offset="0" style="stop-color:#33AAF1"></stop>
							<stop offset="1" style="stop-color:#33AAF1;stop-opacity:0"></stop>
						</linearGradient>
						<line opacity="0.5" fill="none" stroke="url(#SVGID_5_)" stroke-miterlimit="10" x1="341.2" y1="163.4" x2="341.2" y2="209.7"></line>
						<g>
							<polygon opacity="0.1" fill="#FFFFFF" stroke="#33AAF1" stroke-miterlimit="10" points="381.2,255.9 380.7,209.1 381.2,186.5
								321.7,220.8 321.7,220.8 381.2,186.5 341.2,163.4 321.2,175 321.2,82.5 281.2,59.4 201.2,105.7 121.1,59.5 61,94.1 61,255.9
								41,267.5 41.1,313.6 1,336.8 161.2,429.2 421.3,279 	"></polygon>
							<polyline fill="none" stroke="#33AAF1" stroke-linejoin="bevel" stroke-miterlimit="10" points="321.2,221.3 381.2,186.5
								341.2,163.4 321.2,175 321.2,82.5 281.2,59.4 201.2,105.7 121.1,59.5 61,94.1 61,255.9 41,267.4 41.1,313.6 1,336.8 161.2,429.2
								421.3,279 381.2,255.9 381.3,209.7 381.2,186.5 	"></polyline>
							<linearGradient id="SVGID_6_" gradientUnits="userSpaceOnUse" x1="61.005" y1="209.6473" x2="181.1608" y2="209.6473">
								<stop offset="0" style="stop-color:#33AAF1;stop-opacity:0"></stop>
								<stop offset="1" style="stop-color:#33AAF1"></stop>
							</linearGradient>
							<polygon opacity="0.8" fill="url(#SVGID_6_)" stroke="#33AAF1" stroke-linejoin="bevel" stroke-miterlimit="10" points="61,94.1
								181.1,163.5 181.2,325.2 61,255.9 	"></polygon>
							<linearGradient id="SVGID_7_" gradientUnits="userSpaceOnUse" x1="41.0294" y1="336.7041" x2="161.1771" y2="336.7041">
								<stop offset="0" style="stop-color:#33AAF1;stop-opacity:0"></stop>
								<stop offset="1" style="stop-color:#33AAF1"></stop>
							</linearGradient>
							<polygon opacity="0.8" fill="url(#SVGID_7_)" stroke="#33AAF1" stroke-linejoin="bevel" stroke-miterlimit="10" points="
								41.1,336.6 41,267.4 161.1,336.7 161.2,406 	"></polygon>
							<linearGradient id="SVGID_8_" gradientUnits="userSpaceOnUse" x1="161.0717" y1="244.2944" x2="381.2962" y2="244.2944">
								<stop offset="0" style="stop-color:#33AAF1;stop-opacity:0.75"></stop>
								<stop offset="1" style="stop-color:#33AAF1;stop-opacity:0"></stop>
							</linearGradient>
							<polygon opacity="0.6" fill="url(#SVGID_8_)" points="381.1,186.5 320.9,221.3 320.9,82.5 181,163.5 181.1,325.2 161.1,336.7
								161.2,406 381.3,278.9 	"></polygon>
							<linearGradient id="SVGID_9_" gradientUnits="userSpaceOnUse" x1="100.922" y1="58.9315" x2="100.922" y2="105.1481">
								<stop offset="0" style="stop-color:#33AAF1;stop-opacity:0"></stop>
								<stop offset="1" style="stop-color:#33AAF1"></stop>
							</linearGradient>
							<polygon opacity="0.8" fill="url(#SVGID_9_)" points="80.9,93.6 80.9,70.5 100.8,58.9 120.9,70.5 100.9,82 100.9,105.1 	"></polygon>
							<linearGradient id="SVGID_10_" gradientUnits="userSpaceOnUse" x1="100.9471" y1="87.8169" x2="120.9471" y2="87.8169">
								<stop offset="0" style="stop-color:#33AAF1"></stop>
								<stop offset="1" style="stop-color:#33AAF1;stop-opacity:0"></stop>
							</linearGradient>
							<polygon opacity="0.8" fill="url(#SVGID_10_)" points="120.9,93.6 120.9,70.5 100.9,82 100.9,105.1 	"></polygon>
						</g>
						<g>
							<path opacity="0.1" fill="#FFFFFF" d="M247.6,40.7c2,1.2,3,2.7,3,4.3c0,1.6-1,3.1-2.9,4.3c-2,1.2-4.5,1.8-7.1,1.8
								c-2.6,0-5.1-0.6-7.1-1.8c-2-1.2-3-2.7-3-4.3c0-1.6,1-3.1,2.9-4.3s4.5-1.8,7.1-1.8S245.6,39.5,247.6,40.7z"></path>
							<path opacity="0.1" fill="#FFFFFF" d="M144.4,260.5c1,0.6,1.5,1.4,1.5,2.1s-0.5,1.5-1.5,2.1c-1,0.6-2.3,0.9-3.7,0.9
								c-1.3,0-2.7-0.3-3.7-0.9c-1-0.6-1.5-1.4-1.5-2.1c0-0.8,0.5-1.5,1.5-2.1c1-0.6,2.3-0.9,3.7-0.9S143.3,259.9,144.4,260.5z"></path>
							<linearGradient id="SVGID_11_" gradientUnits="userSpaceOnUse" x1="134.9471" y1="289.5868" x2="145.9471" y2="289.5868">
								<stop offset="0" style="stop-color:#33AAF1;stop-opacity:0"></stop>
								<stop offset="1" style="stop-color:#33AAF1"></stop>
							</linearGradient>
							<path fill="url(#SVGID_11_)" d="M145.9,313.5c0,0.8-0.5,1.5-1.5,2.1c-1,0.6-2.4,0.9-3.7,0.9s-2.9-0.3-4-0.9c-1-0.6-1.8-1.4-1.8-2.1
								v-50.9c0,0.8,0.8,1.5,1.8,2.1c1,0.6,2.5,0.9,3.8,0.9s2.8-0.3,3.8-0.9c1-0.6,1.6-1.4,1.6-2.1V313.5z"></path>
							<linearGradient id="SVGID_12_" gradientUnits="userSpaceOnUse" x1="250.9471" y1="77.9526" x2="230.9471" y2="77.9526">
								<stop offset="0" style="stop-color:#33AAF1;stop-opacity:0"></stop>
								<stop offset="1" style="stop-color:#33AAF1"></stop>
							</linearGradient>
							<path fill="url(#SVGID_12_)" d="M250.9,104.8c0,1.6-1,3.1-2.9,4.3s-4.5,1.8-7,1.8s-5.2-0.6-7.1-1.8c-1.9-1.2-3-2.7-3-4.3V45
								c0,1.6,1.1,3.1,3,4.3c1.9,1.2,4.5,1.8,7.1,1.8c2.5,0,5.1-0.6,7-1.8c1.9-1.2,2.9-2.7,2.9-4.3V104.8z"></path>
							<path opacity="0.1" fill="#FFFFFF" d="M267.5,13.9c2,1.2,2.9,2.7,3,4.3c0,1.6-1,3.1-2.9,4.3c-1.9,1.2-4.5,1.8-7.1,1.8
								c-2.6,0-5.1-0.6-7.1-1.8c-2-1.2-2.9-2.7-3-4.3c0-1.6,1-3.1,2.9-4.3s4.5-1.8,7.1-1.8C263,12.1,265.5,12.7,267.5,13.9z"></path>
							<linearGradient id="SVGID_13_" gradientUnits="userSpaceOnUse" x1="270.9471" y1="59.3326" x2="250.9471" y2="59.3326">
								<stop offset="0" style="stop-color:#33AAF1;stop-opacity:0"></stop>
								<stop offset="1" style="stop-color:#33AAF1"></stop>
							</linearGradient>
							<path fill="url(#SVGID_13_)" d="M270.9,94.4c0,1.6-1,3.1-3,4.3s-4.5,1.8-7,1.8c-2.5,0-5.1-0.6-7-1.8c-1.9-1.2-2.9-2.7-2.9-4.3V18.2
								c0,1.6,1,3.1,2.9,4.3c1.9,1.2,4.5,1.8,7,1.8c2.5,0,5.2-0.6,7.1-1.8s3-2.7,3-4.3V94.4z"></path>
							<path opacity="0.1" fill="#FFFFFF" d="M287.5,1.8c2,1.2,2.9,2.8,3,4.3s-1,3.1-2.9,4.3c-1.9,1.2-4.5,1.8-7.1,1.8s-5.1-0.6-7.1-1.8
								c-2-1.2-2.9-2.8-3-4.3c0-1.6,1-3.1,2.9-4.3c1.9-1.2,4.5-1.8,7.1-1.8C283,0,285.6,0.6,287.5,1.8z"></path>
							<linearGradient id="SVGID_14_" gradientUnits="userSpaceOnUse" x1="289.9471" y1="47.2926" x2="270.9471" y2="47.2926">
								<stop offset="0" style="stop-color:#33AAF1;stop-opacity:0"></stop>
								<stop offset="1" style="stop-color:#33AAF1"></stop>
							</linearGradient>
							<path fill="url(#SVGID_14_)" d="M289.9,82.4c0,1.6-0.6,3.1-2.5,4.3s-4.3,1.8-6.8,1.8c-2.5,0-4.9-0.6-6.9-1.8
								c-1.9-1.2-2.8-2.7-2.8-4.3V6.1c0,1.6,0.9,3.1,2.8,4.3c1.9,1.2,4.4,1.8,7,1.8c2.5,0,4.7-0.6,6.6-1.8c1.9-1.2,2.5-2.7,2.5-4.3V82.4z"></path>
						</g>
					</svg>