<svg version="1.1" xmlns="http://www.w3.org/2000/svg" xmlns:xlink="http://www.w3.org/1999/xlink" xmlns:a="http://ns.adobe.com/AdobeSVGViewerExtensions/3.0/" x="0px" y="0px" width="419.9px" height="297.1px" viewBox="0 0 419.9 297.1" enable-background="new 0 0 419.9 297.1" xml:space="preserve">
          <defs>
          </defs>
          <g>
            <polygon fill="#FFFFFF" points="419.9,213.5 343.3,169.4 258.3,218.4 334.8,262.6 	"></polygon>
            <polygon fill="#0083CF" points="334.8,272.4 334.8,262.6 258.3,218.4 258.3,228.2 	"></polygon>
            <polygon fill="#99CBF9" points="419.9,223.5 334.8,272.4 334.8,262.6 419.9,213.5 	"></polygon>
            <polygon fill="#ECF3F9" points="334.8,223.3 334.8,252.8 275.3,218.4 275.3,189 309.3,198.8 	"></polygon>
            <polygon fill="#CAE7F8" points="334.8,223.3 402.8,184.1 377.4,159.6 309.3,198.8 	"></polygon>
            <polygon fill="#0091DE" points="334.8,252.8 317.9,252.7 258.4,218.4 275.4,208.5 275.4,218.4 	"></polygon>
            <polygon fill="#99CBF9" points="275.3,189 343.3,149.7 377.4,159.6 309.3,198.8 	"></polygon>
            <polygon fill="#ECF3F9" points="402.8,184.1 402.8,213.5 334.8,252.8 334.8,223.3 	"></polygon>
            <polygon fill="#19477D" points="326.3,247.9 326.3,228 283.9,203.7 283.9,223.5 	"></polygon>
          </g>
          <g>
            <path fill="#CAE7F8" d="M84.9,189.4c0,1.3,0.8,2.6,2.5,3.5c1.7,1,3.9,1.5,6.1,1.5c2.2,0,4.4-0.5,6.1-1.5c1.7-1,2.5-2.2,2.5-3.5
              v-84.2c0,1.3-0.9,2.6-2.5,3.5s-3.9,1.5-6.1,1.5c-2.2,0-4.4-0.5-6.1-1.5c-1.7-1-2.5-2.3-2.5-3.5V189.4z"></path>
            <path fill="#99CBF9" d="M93.5,194.4c-2.2,0-4.4-0.5-6.1-1.5c-1.7-1-2.5-2.2-2.5-3.5v-84.2c0,1.3,0.8,2.6,2.5,3.5
              c1.7,1,3.9,1.5,6.1,1.5V194.4z"></path>
            <path fill="#004987" stroke="#FFFFFF" stroke-width="2" stroke-miterlimit="10" d="M93.5,110.2c2.3,0,4.4-0.5,5.9-1.4
              c1.4-0.8,2.2-1.8,2.2-2.8c0-1-0.7-2-2.1-2.8c-1.6-0.9-3.7-1.4-5.9-1.4c-2.3,0-4.4,0.5-5.9,1.4c-1.4,0.8-2.2,1.8-2.2,2.8
              c0,1,0.7,2,2.1,2.8C89.1,109.7,91.2,110.2,93.5,110.2"></path>
            <g>
              <g>
                <polyline fill="#99CBF9" points="119,277.4 17,218.5 17,179.2 42.5,184.1 42.5,194 68,198.9 68,208.7 93.5,213.6 93.5,233.2
                  119,247.9 119,277.4 			"></polyline>
                <polygon fill="#CAE7F8" points="68,198.9 127.5,164.5 102,159.6 42.5,194 			"></polygon>
                <polygon fill="#CAE7F8" points="42.5,184.1 102,149.8 76.5,144.9 17,179.2 			"></polygon>
                <polygon fill="#CAE7F8" points="68,208.7 127.5,174.4 153,179.3 93.5,213.6 			"></polygon>
                <polyline fill="#ECF3F9" points="119,247.9 153,198.9 153,179.3 93.5,213.6 93.5,233.2 			"></polyline>
                <polygon fill="#ECF3F9" points="119,247.9 119,277.4 178.5,243 178.5,213.6 			"></polygon>
                <polygon fill="#ECF3F9" points="68,208.7 68,198.9 127.5,164.5 127.5,174.4 			"></polygon>
                <polygon fill="#ECF3F9" points="42.5,184.1 102,149.8 102,159.6 42.5,194 			"></polygon>
                <polygon fill="#CAE7F8" points="153,198.9 93.5,233.2 119,247.9 178.5,213.6 			"></polygon>
              </g>
            </g>
            <polygon fill="#99CBF9" points="195.5,247.9 195.5,252.9 118.9,297.1 119,287.3 195.4,243.2 	"></polygon>
            <polygon fill="#0091DE" points="118.9,277.4 101.9,277.4 0,218.5 17,208.7 17,218.4 	"></polygon>
            <polygon fill="#19477D" points="104.9,269.4 105,254.1 96.1,249 96.1,264.3 	"></polygon>
            <polygon fill="#19477D" points="107.1,255.7 111.4,258.2 111.4,268 107.1,265.5 	"></polygon>
            <polygon fill="#0083CF" points="0,228.3 118.9,297.1 119,287.3 0,218.5 	"></polygon>
            <polygon fill="#FFFFFF" points="101.9,277.4 119,287.3 195.4,243.2 178.5,233.2 178.5,243 118.9,277.4 	"></polygon>
          </g>
          <g>
            <path fill="#F699A2" d="M254.2,99.9c0,1.3-0.8,2.6-2.5,3.5c-1.7,1-3.9,1.5-6.1,1.5c-2.2,0-4.4-0.5-6.1-1.5c-1.7-1-2.5-2.2-2.5-3.5
              V15.7c0,1.3,0.9,2.6,2.5,3.5c1.7,1,3.9,1.5,6.1,1.5c2.2,0,4.4-0.5,6.1-1.5c1.7-1,2.5-2.3,2.5-3.5V99.9z"></path>
            <path fill="#FBCCD0" d="M245.6,104.9c2.2,0,4.4-0.5,6.1-1.5c1.7-1,2.5-2.2,2.5-3.5V15.7c0,1.3-0.8,2.6-2.5,3.5
              c-1.7,1-3.9,1.5-6.1,1.5V104.9z"></path>
            <path fill="#EE3445" stroke="#FFFFFF" stroke-width="2" stroke-miterlimit="10" d="M245.6,20.7c-2.3,0-4.4-0.5-5.9-1.4
              c-1.4-0.8-2.2-1.8-2.2-2.8c0-1,0.7-2,2.1-2.8c1.6-0.9,3.7-1.4,5.9-1.4c2.3,0,4.4,0.5,5.9,1.4c1.4,0.8,2.2,1.8,2.2,2.8
              c0,1-0.7,2-2.1,2.8C250,20.2,247.9,20.7,245.6,20.7"></path>
            <g>
              <g>
                <polyline fill="#FCD6DA" points="220.1,187.9 322.1,129 322.1,89.8 296.6,94.7 296.6,104.5 271.1,109.4 271.1,119.2 245.6,124.1
                  245.6,143.7 220.1,158.5 220.1,187.9 			"></polyline>
                <polygon fill="#FBCCD0" points="271.1,109.4 211.6,75.1 237.1,70.2 296.6,104.5 			"></polygon>
                <polygon fill="#FBCCD0" points="296.6,94.7 237.1,60.4 262.6,55.4 322.1,89.8 			"></polygon>
                <polygon fill="#FBCCD0" points="271.1,119.2 211.6,84.9 186.1,89.8 245.6,124.1 			"></polygon>
                <polyline fill="#F699A2" points="220.1,158.5 186.1,109.4 186.1,89.8 245.6,124.1 245.6,143.7 			"></polyline>
                <polygon fill="#F699A2" points="220.1,158.5 220.1,187.9 160.6,153.6 160.6,124.1 			"></polygon>
                <polygon fill="#F699A2" points="271.1,119.2 271.1,109.4 211.6,75.1 211.6,84.9 			"></polygon>
                <polygon fill="#F699A2" points="296.6,94.7 237.1,60.4 237.1,70.2 296.6,104.5 			"></polygon>
                <polygon fill="#FBCCD0" points="186.1,109.4 245.6,143.7 220.1,158.5 160.6,124.1 			"></polygon>
              </g>
            </g>
            <polygon fill="#F3717D" points="143.6,158.5 143.6,163.4 220.2,207.6 220.1,197.8 143.7,153.7 	"></polygon>
            <polygon fill="#FFFFFF" points="220.2,187.9 237.2,187.9 339.1,129 322.1,119.2 322.1,128.9 	"></polygon>
            <polygon fill="#EE3445" points="234.2,179.9 234.1,164.7 243,159.6 243,174.8 	"></polygon>
            <polygon fill="#EE3445" points="232,166.3 227.7,168.7 227.7,178.5 232,176.1 	"></polygon>
            <polygon fill="#F699A2" points="339.1,138.9 220.2,207.6 220.1,197.8 339.1,129 	"></polygon>
            <polygon fill="#EE3445" points="203,187.9 191.8,181.5 143.7,153.7 160.6,143.8 160.6,153.6 220.2,187.9 	"></polygon>
          </g>
          <g>
            <polygon fill="#FFFFFF" points="55.3,55.8 131.8,11.6 208.3,55.8 131.9,99.9 	"></polygon>
            <polygon fill="#99CBF9" points="131.9,109.9 131.9,99.9 208.3,55.8 208.3,65.5 	"></polygon>
            <path fill="#0091DE" d="M131.7,76.8h-34c-9.5,0-18.3-2.1-24.9-5.9c-5.8-3.4-9-7.6-9-11.9c0-4.3,3.3-8.6,9.2-12
              c6.6-3.8,15.5-5.9,25-5.9"></path>
            <g>
              <path fill="#CAE7F8" d="M131.7,35.8c9.5,0,18.4-2.1,25-5.9c5.9-3.4,9.1-7.6,9.1-12c0-4.3-3.2-8.5-9-11.9C150.3,2.1,141.4,0,132,0
                c-9.5,0-18.4,2.1-25,5.9c-5.9,3.4-9.1,7.6-9.2,12c0,4.3,3.2,8.5,9,11.9C113.4,33.7,122.2,35.8,131.7,35.8"></path>
              <path fill="#99CBF9" d="M106.8,29.8c-5.8-3.4-9-7.6-9-11.9v41c0,4.3,3.2,8.5,9,11.9c6.6,3.8,15.4,5.9,24.9,5.9v-41
                C122.2,35.8,113.4,33.7,106.8,29.8z"></path>
              <path fill="#FFFFFF" d="M132,41"></path>
              <path fill="#ECF3F9" d="M156.7,29.8c-6.6,3.8-15.5,5.9-25,5.9v41c9.5,0,18.4-2.1,25-5.9c5.9-3.4,9.1-7.6,9.1-12v-41
                C165.8,22.2,162.6,26.4,156.7,29.8z"></path>
              <path fill="#0091DE" d="M131.8,20.3l-10,0.1c-1.1,0-2.2-0.2-2.9-0.7c-0.7-0.4-1.1-0.9-1.1-1.4c0-0.5,0.4-1,1.1-1.4
                c0.8-0.5,1.8-0.7,3-0.7h9.9L131.8,20.3z"></path>
              <path fill="#ECF3F9" d="M131.8,15.4c1.1,0,2.2-0.2,3-0.7c0.7-0.4,1.1-0.9,1.1-1.4c0-0.5-0.4-1-1.1-1.4c-0.8-0.5-1.8-0.7-2.9-0.7
                c-1.1,0-2.2,0.2-3,0.7c-0.7,0.4-1.1,0.9-1.1,1.4c0,0.5,0.4,1,1.1,1.4C129.6,15.1,130.7,15.4,131.8,15.4"></path>
              <path fill="#99CBF9" d="M128.9,14.7c-0.7-0.4-1.1-0.9-1.1-1.4v4.9c0,0.5,0.4,1,1.1,1.4V14.7z"></path>
              <path fill="#99CBF9" d="M131.8,15.4c-1.1,0-2.2-0.2-2.9-0.7v4.9c0.8,0.5,1.8,0.7,2.9,0.7V15.4z"></path>
              <path fill="#ECF3F9" d="M134.8,14.7c-0.8,0.5-1.8,0.7-3,0.7v4.9c1.1,0,2.2-0.2,3-0.7c0.7-0.4,1.1-0.9,1.1-1.4v-4.9
                C135.9,13.8,135.5,14.3,134.8,14.7z"></path>
            </g>
            <polygon fill="#0083CF" points="55.3,65.8 131.9,109.9 131.9,99.9 55.3,55.8 	"></polygon>
          </g>
          <g>
            <polygon fill="none" stroke="#EE3445" stroke-width="2" stroke-miterlimit="10" points="360.7,58.6 329.2,58.6 344.9,32.2 	"></polygon>
            <line fill="none" stroke="#EE3445" stroke-width="2" stroke-miterlimit="10" x1="344.9" y1="41" x2="344.9" y2="50.3"></line>
            <circle fill="#EE3445" cx="344.9" cy="53.3" r="1.5"></circle>
          </g>
        </svg>