<svg version="1.1" xmlns="http://www.w3.org/2000/svg" xmlns:xlink="http://www.w3.org/1999/xlink" xmlns:a="http://ns.adobe.com/AdobeSVGViewerExtensions/3.0/" x="0px" y="0px" width="171px" height="82px" viewBox="0 0 171 82" enable-background="new 0 0 171 82" xml:space="preserve">
          <defs>
          </defs>
          <g>
            <g>
              <g>
                <polyline fill="none" stroke="#3BABEF" stroke-miterlimit="10" stroke-opacity="0.5" points="0.5,-0.3 0.5,81.2 170.8,81.2
                  "></polyline>
                <line fill="none" stroke="#3BABEF" stroke-miterlimit="10" stroke-opacity="0.5" x1="30.4" y1="15" x2="30.4" y2="50.6"></line>
                <rect x="18.9" y="26.2" fill="#3BABEF" fill-opacity="0.5" width="21.2" height="8.5"></rect>
                <line fill="none" stroke="#3BABEF" stroke-miterlimit="10" stroke-opacity="0.5" x1="26.4" y1="14.9" x2="34.2" y2="14.9"></line>
                <line fill="none" stroke="#3BABEF" stroke-miterlimit="10" stroke-opacity="0.5" x1="26.9" y1="50.4" x2="34.8" y2="50.4"></line>
                <line fill="none" stroke="#3BABEF" stroke-miterlimit="10" stroke-opacity="0.5" x1="60.3" y1="15" x2="60.3" y2="50.6"></line>
                <rect x="49.4" y="37" fill="#3BABEF" fill-opacity="0.5" width="21.2" height="8.5"></rect>
                <line fill="none" stroke="#3BABEF" stroke-miterlimit="10" stroke-opacity="0.5" x1="56.3" y1="14.9" x2="64.2" y2="14.9"></line>
                <line fill="none" stroke="#3BABEF" stroke-miterlimit="10" stroke-opacity="0.5" x1="56.3" y1="50.4" x2="64.2" y2="50.4"></line>
                <line fill="none" stroke="#3BABEF" stroke-miterlimit="10" stroke-opacity="0.5" x1="90.3" y1="15" x2="90.3" y2="60.6"></line>
                <rect x="79.8" y="37" fill="#3BABEF" fill-opacity="0.5" width="21.2" height="8.5"></rect>
                <line fill="none" stroke="#3BABEF" stroke-miterlimit="10" stroke-opacity="0.5" x1="86.8" y1="14.9" x2="94.6" y2="14.9"></line>
                <line fill="none" stroke="#3BABEF" stroke-miterlimit="10" stroke-opacity="0.5" x1="86.8" y1="60.6" x2="94.6" y2="60.6"></line>
                <line fill="none" stroke="#3BABEF" stroke-miterlimit="10" stroke-opacity="0.5" x1="148.7" y1="33.8" x2="148.7" y2="60.6"></line>
                <rect x="138.2" y="36.2" fill="#F03140" width="21.2" height="8.5"></rect>
                <line fill="none" stroke="#3BABEF" stroke-miterlimit="10" stroke-opacity="0.5" x1="145.2" y1="33.7" x2="153" y2="33.7"></line>
                <line fill="none" stroke="#3BABEF" stroke-miterlimit="10" stroke-opacity="0.5" x1="145.2" y1="60.6" x2="153" y2="60.6"></line>
                <line fill="none" stroke="#3BABEF" stroke-miterlimit="10" stroke-opacity="0.5" x1="120.2" y1="29.2" x2="120.2" y2="60.6"></line>
                <rect x="109.2" y="48.8" fill="#3BABEF" fill-opacity="0.5" width="21.2" height="8.5"></rect>
                <line fill="none" stroke="#3BABEF" stroke-miterlimit="10" stroke-opacity="0.5" x1="116.2" y1="29.1" x2="124" y2="29.1"></line>
                <line fill="none" stroke="#3BABEF" stroke-miterlimit="10" stroke-opacity="0.5" x1="116.2" y1="60.6" x2="124" y2="60.6"></line>
              </g>
            </g>
            <polygon fill="none" stroke="#F03140" stroke-miterlimit="10" points="156.5,14.4 148.7,25.2 140.9,14.4 	"></polygon>
          </g>
        </svg>