<svg version="1.1" id="Layer_1" xmlns="http://www.w3.org/2000/svg" xmlns:xlink="http://www.w3.org/1999/xlink" x="0px" y="0px" width="195.6px" height="125.9px" viewBox="0 0 195.6 125.9" enable-background="new 0 0 195.6 125.9" xml:space="preserve" class="">
            <g>
              <circle fill="none" stroke="#19477D" stroke-miterlimit="10" cx="86.8" cy="63.1" r="27"></circle>
              <path fill="#3BABEF" d="M86.8,44.8L86.8,44.8c-1.2,0-2.2-1-2.2-2.2v0c0-1.2,1-2.2,2.2-2.2h0c1.2,0,2.2,1,2.2,2.2v0
                C89,43.8,88,44.8,86.8,44.8z"></path>
              <path fill="#3BABEF" d="M86.8,64.8L86.8,64.8c-1.2,0-2.2-1-2.2-2.2v0c0-1.2,1-2.2,2.2-2.2h0c1.2,0,2.2,1,2.2,2.2v0
                C89,63.8,88,64.8,86.8,64.8z"></path>
              <path fill="#3BABEF" d="M86.8,84.8L86.8,84.8c-1.2,0-2.2-1-2.2-2.2v0c0-1.2,1-2.2,2.2-2.2h0c1.2,0,2.2,1,2.2,2.2v0
                C89,83.8,88,84.8,86.8,84.8z"></path>
              <path fill="#3BABEF" d="M86.8,54.8L86.8,54.8c-1.2,0-2.2-1-2.2-2.2v0c0-1.2,1-2.2,2.2-2.2h0c1.2,0,2.2,1,2.2,2.2v0
                C89,53.8,88,54.8,86.8,54.8z"></path>
              <path fill="#3BABEF" d="M86.8,74.8L86.8,74.8c-1.2,0-2.2-1-2.2-2.2v0c0-1.2,1-2.2,2.2-2.2h0c1.2,0,2.2,1,2.2,2.2v0
                C89,73.8,88,74.8,86.8,74.8z"></path>
              <path fill="#EE3445" d="M103.8,64.8L103.8,64.8c-1.2,0-2.2-1-2.2-2.2v0c0-1.2,1-2.2,2.2-2.2h0c1.2,0,2.2,1,2.2,2.2v0
                C106,63.8,105,64.8,103.8,64.8z"></path>
              <path fill="#EE3445" d="M103.8,54.8L103.8,54.8c-1.2,0-2.2-1-2.2-2.2v0c0-1.2,1-2.2,2.2-2.2h0c1.2,0,2.2,1,2.2,2.2v0
                C106,53.8,105,54.8,103.8,54.8z"></path>
              <path fill="#EE3445" d="M103.8,74.8L103.8,74.8c-1.2,0-2.2-1-2.2-2.2v0c0-1.2,1-2.2,2.2-2.2h0c1.2,0,2.2,1,2.2,2.2v0
                C106,73.8,105,74.8,103.8,74.8z"></path>
              <path fill="#3BABEF" d="M69.8,64.8L69.8,64.8c-1.2,0-2.2-1-2.2-2.2v0c0-1.2,1-2.2,2.2-2.2h0c1.2,0,2.2,1,2.2,2.2v0
                C72,63.8,71,64.8,69.8,64.8z"></path>
              <path fill="#3BABEF" d="M69.8,54.8L69.8,54.8c-1.2,0-2.2-1-2.2-2.2v0c0-1.2,1-2.2,2.2-2.2h0c1.2,0,2.2,1,2.2,2.2v0
                C72,53.8,71,54.8,69.8,54.8z"></path>
              <path fill="#3BABEF" d="M69.8,74.8L69.8,74.8c-1.2,0-2.2-1-2.2-2.2v0c0-1.2,1-2.2,2.2-2.2h0c1.2,0,2.2,1,2.2,2.2v0
                C72,73.8,71,74.8,69.8,74.8z"></path>
              <path fill="#3BABEF" d="M95.3,44.8L95.3,44.8c-1.2,0-2.2-1-2.2-2.2v0c0-1.2,1-2.2,2.2-2.2h0c1.2,0,2.2,1,2.2,2.2v0
                C97.5,43.8,96.5,44.8,95.3,44.8z"></path>
              <path fill="#EE3445" d="M95.3,64.8L95.3,64.8c-1.2,0-2.2-1-2.2-2.2v0c0-1.2,1-2.2,2.2-2.2h0c1.2,0,2.2,1,2.2,2.2v0
                C97.5,63.8,96.5,64.8,95.3,64.8z"></path>
              <path fill="#3BABEF" d="M95.3,84.8L95.3,84.8c-1.2,0-2.2-1-2.2-2.2v0c0-1.2,1-2.2,2.2-2.2h0c1.2,0,2.2,1,2.2,2.2v0
                C97.5,83.8,96.5,84.8,95.3,84.8z"></path>
              <path fill="#EE3445" d="M95.3,54.8L95.3,54.8c-1.2,0-2.2-1-2.2-2.2v0c0-1.2,1-2.2,2.2-2.2h0c1.2,0,2.2,1,2.2,2.2v0
                C97.5,53.8,96.5,54.8,95.3,54.8z"></path>
              <path fill="#EE3445" d="M95.3,74.8L95.3,74.8c-1.2,0-2.2-1-2.2-2.2v0c0-1.2,1-2.2,2.2-2.2h0c1.2,0,2.2,1,2.2,2.2v0
                C97.5,73.8,96.5,74.8,95.3,74.8z"></path>
              <path fill="#3BABEF" d="M78.3,44.8L78.3,44.8c-1.2,0-2.2-1-2.2-2.2v0c0-1.2,1-2.2,2.2-2.2h0c1.2,0,2.2,1,2.2,2.2v0
                C80.5,43.8,79.5,44.8,78.3,44.8z"></path>
              <path fill="#3BABEF" d="M78.3,64.8L78.3,64.8c-1.2,0-2.2-1-2.2-2.2v0c0-1.2,1-2.2,2.2-2.2h0c1.2,0,2.2,1,2.2,2.2v0
                C80.5,63.8,79.5,64.8,78.3,64.8z"></path>
              <path fill="#3BABEF" d="M78.3,84.8L78.3,84.8c-1.2,0-2.2-1-2.2-2.2v0c0-1.2,1-2.2,2.2-2.2h0c1.2,0,2.2,1,2.2,2.2v0
                C80.5,83.8,79.5,84.8,78.3,84.8z"></path>
              <path fill="#3BABEF" d="M78.3,54.8L78.3,54.8c-1.2,0-2.2-1-2.2-2.2v0c0-1.2,1-2.2,2.2-2.2h0c1.2,0,2.2,1,2.2,2.2v0
                C80.5,53.8,79.5,54.8,78.3,54.8z"></path>
              <path fill="#3BABEF" d="M78.3,74.8L78.3,74.8c-1.2,0-2.2-1-2.2-2.2v0c0-1.2,1-2.2,2.2-2.2h0c1.2,0,2.2,1,2.2,2.2v0
                C80.5,73.8,79.5,74.8,78.3,74.8z"></path>
              <g>
                <path fill="#19477D" d="M112.3,64.8L112.3,64.8c-1.2,0-2.2-1-2.2-2.2v0c0-1.2,1-2.2,2.2-2.2h0c1.2,0,2.2,1,2.2,2.2v0
                  C114.5,63.8,113.5,64.8,112.3,64.8z"></path>
                <circle fill="none" stroke="#19477D" stroke-miterlimit="10" cx="112.3" cy="63.1" r="27"></circle>
                <path fill="#19477D" d="M112.3,44.8L112.3,44.8c-1.2,0-2.2-1-2.2-2.2v0c0-1.2,1-2.2,2.2-2.2h0c1.2,0,2.2,1,2.2,2.2v0
                  C114.5,43.8,113.5,44.8,112.3,44.8z"></path>
                <path fill="#19477D" d="M112.3,84.8L112.3,84.8c-1.2,0-2.2-1-2.2-2.2v0c0-1.2,1-2.2,2.2-2.2h0c1.2,0,2.2,1,2.2,2.2v0
                  C114.5,83.8,113.5,84.8,112.3,84.8z"></path>
                <path fill="#19477D" d="M112.3,54.8L112.3,54.8c-1.2,0-2.2-1-2.2-2.2v0c0-1.2,1-2.2,2.2-2.2h0c1.2,0,2.2,1,2.2,2.2v0
                  C114.5,53.8,113.5,54.8,112.3,54.8z"></path>
                <path fill="#19477D" d="M112.3,74.8L112.3,74.8c-1.2,0-2.2-1-2.2-2.2v0c0-1.2,1-2.2,2.2-2.2h0c1.2,0,2.2,1,2.2,2.2v0
                  C114.5,73.8,113.5,74.8,112.3,74.8z"></path>
                <path fill="#19477D" d="M129.3,64.8L129.3,64.8c-1.2,0-2.2-1-2.2-2.2v0c0-1.2,1-2.2,2.2-2.2l0,0c1.2,0,2.2,1,2.2,2.2v0
                  C131.5,63.8,130.5,64.8,129.3,64.8z"></path>
                <path fill="#19477D" d="M129.3,54.8L129.3,54.8c-1.2,0-2.2-1-2.2-2.2v0c0-1.2,1-2.2,2.2-2.2l0,0c1.2,0,2.2,1,2.2,2.2v0
                  C131.5,53.8,130.5,54.8,129.3,54.8z"></path>
                <path fill="#19477D" d="M129.3,74.8L129.3,74.8c-1.2,0-2.2-1-2.2-2.2v0c0-1.2,1-2.2,2.2-2.2l0,0c1.2,0,2.2,1,2.2,2.2v0
                  C131.5,73.8,130.5,74.8,129.3,74.8z"></path>
                <path fill="#EE3445" d="M95.3,64.8L95.3,64.8c-1.2,0-2.2-1-2.2-2.2v0c0-1.2,1-2.2,2.2-2.2h0c1.2,0,2.2,1,2.2,2.2v0
                  C97.5,63.8,96.5,64.8,95.3,64.8z"></path>
                <path fill="#EE3445" d="M95.3,54.8L95.3,54.8c-1.2,0-2.2-1-2.2-2.2v0c0-1.2,1-2.2,2.2-2.2h0c1.2,0,2.2,1,2.2,2.2v0
                  C97.5,53.8,96.5,54.8,95.3,54.8z"></path>
                <path fill="#EE3445" d="M95.3,74.8L95.3,74.8c-1.2,0-2.2-1-2.2-2.2v0c0-1.2,1-2.2,2.2-2.2h0c1.2,0,2.2,1,2.2,2.2v0
                  C97.5,73.8,96.5,74.8,95.3,74.8z"></path>
                <path fill="#19477D" d="M120.8,44.8L120.8,44.8c-1.2,0-2.2-1-2.2-2.2v0c0-1.2,1-2.2,2.2-2.2h0c1.2,0,2.2,1,2.2,2.2v0
                  C123,43.8,122,44.8,120.8,44.8z"></path>
                <path fill="#19477D" d="M120.8,64.8L120.8,64.8c-1.2,0-2.2-1-2.2-2.2v0c0-1.2,1-2.2,2.2-2.2h0c1.2,0,2.2,1,2.2,2.2v0
                  C123,63.8,122,64.8,120.8,64.8z"></path>
                <path fill="#19477D" d="M120.8,84.8L120.8,84.8c-1.2,0-2.2-1-2.2-2.2v0c0-1.2,1-2.2,2.2-2.2h0c1.2,0,2.2,1,2.2,2.2v0
                  C123,83.8,122,84.8,120.8,84.8z"></path>
                <path fill="#19477D" d="M120.8,54.8L120.8,54.8c-1.2,0-2.2-1-2.2-2.2v0c0-1.2,1-2.2,2.2-2.2h0c1.2,0,2.2,1,2.2,2.2v0
                  C123,53.8,122,54.8,120.8,54.8z"></path>
                <path fill="#19477D" d="M120.8,74.8L120.8,74.8c-1.2,0-2.2-1-2.2-2.2v0c0-1.2,1-2.2,2.2-2.2h0c1.2,0,2.2,1,2.2,2.2v0
                  C123,73.8,122,74.8,120.8,74.8z"></path>
                <path fill="#19477D" d="M103.8,44.8L103.8,44.8c-1.2,0-2.2-1-2.2-2.2v0c0-1.2,1-2.2,2.2-2.2h0c1.2,0,2.2,1,2.2,2.2v0
                  C106,43.8,105,44.8,103.8,44.8z"></path>
                <path fill="#EE3445" d="M103.8,64.8L103.8,64.8c-1.2,0-2.2-1-2.2-2.2v0c0-1.2,1-2.2,2.2-2.2h0c1.2,0,2.2,1,2.2,2.2v0
                  C106,63.8,105,64.8,103.8,64.8z"></path>
                <path fill="#19477D" d="M103.8,84.8L103.8,84.8c-1.2,0-2.2-1-2.2-2.2v0c0-1.2,1-2.2,2.2-2.2h0c1.2,0,2.2,1,2.2,2.2v0
                  C106,83.8,105,84.8,103.8,84.8z"></path>
                <path fill="#EE3445" d="M103.8,54.8L103.8,54.8c-1.2,0-2.2-1-2.2-2.2v0c0-1.2,1-2.2,2.2-2.2h0c1.2,0,2.2,1,2.2,2.2v0
                  C106,53.8,105,54.8,103.8,54.8z"></path>
                <path fill="#EE3445" d="M103.8,74.8L103.8,74.8c-1.2,0-2.2-1-2.2-2.2v0c0-1.2,1-2.2,2.2-2.2h0c1.2,0,2.2,1,2.2,2.2v0
                  C106,73.8,105,74.8,103.8,74.8z"></path>
              </g>
              <path fill="none" stroke="#19477D" stroke-miterlimit="10" d="M86.8,36.1c14.9,0,27,12.1,27,27s-12.1,27-27,27"></path>
            </g>
            <g>
              <polygon fill="none" stroke="#EE3445" stroke-width="2" stroke-miterlimit="10" points="188.7,73.5 157.3,73.5 173,47.2 	"></polygon>
              <line fill="none" stroke="#EE3445" stroke-width="2" stroke-miterlimit="10" x1="173" y1="55.9" x2="173" y2="65.2"></line>
              <circle fill="#EE3445" cx="173" cy="68.3" r="1.5"></circle>
            </g>
          </svg>