<svg version="1.1" xmlns="http://www.w3.org/2000/svg" xmlns:xlink="http://www.w3.org/1999/xlink" xmlns:a="http://ns.adobe.com/AdobeSVGViewerExtensions/3.0/" x="0px" y="0px" width="187.3px" height="361.2px" viewBox="0 0 187.3 361.2" enable-background="new 0 0 187.3 361.2" xml:space="preserve">
          <defs>
          </defs>
          <g>
            <line fill="none" stroke="#00D09D" stroke-width="2" stroke-miterlimit="10" x1="47.3" y1="5.6" x2="47.3" y2="26"></line>
            <line fill="none" stroke="#00D09D" stroke-width="2" stroke-miterlimit="10" x1="57.3" y1="5.6" x2="57.3" y2="26.5"></line>
            <line fill="none" stroke="#00D09D" stroke-width="2" stroke-miterlimit="10" x1="37.3" y1="16" x2="67.3" y2="16"></line>
            <line fill="none" stroke="#00D09D" stroke-width="2" stroke-miterlimit="10" x1="37.3" y1="6" x2="67.3" y2="6"></line>
            <line fill="none" stroke="#00D09D" stroke-width="2" stroke-miterlimit="10" x1="37.3" y1="11" x2="67.3" y2="11"></line>
            <line fill="none" stroke="#00D09D" stroke-width="2" stroke-miterlimit="10" x1="37.3" y1="21" x2="67.3" y2="21"></line>
            <rect x="37.3" y="1" fill="none" stroke="#00D09D" stroke-width="2" stroke-miterlimit="10" width="30" height="25.5"></rect>
          </g>
          <g>
            <ellipse fill="#FFFFFF" stroke="#3BABEF" stroke-width="2" stroke-miterlimit="10" cx="130" cy="24.6" rx="15" ry="5"></ellipse>
            <ellipse fill="#FFFFFF" stroke="#3BABEF" stroke-width="2" stroke-miterlimit="10" cx="130" cy="18.6" rx="15" ry="5"></ellipse>
            <ellipse fill="#FFFFFF" stroke="#3BABEF" stroke-width="2" stroke-miterlimit="10" cx="130" cy="12.6" rx="15" ry="5"></ellipse>
            <ellipse fill="#FFFFFF" stroke="#3BABEF" stroke-width="2" stroke-miterlimit="10" cx="130" cy="6.6" rx="15" ry="5"></ellipse>
          </g>
          <g>
            <line fill="none" stroke="#3BABEF" stroke-width="2" stroke-miterlimit="10" x1="12.6" y1="33.6" x2="12.6" y2="38.6"></line>
            <line fill="none" stroke="#3BABEF" stroke-width="2" stroke-miterlimit="10" x1="17.6" y1="33.6" x2="17.6" y2="38.6"></line>
            <line fill="none" stroke="#3BABEF" stroke-width="2" stroke-miterlimit="10" x1="7.6" y1="33.6" x2="7.6" y2="38.6"></line>
            <line fill="none" stroke="#3BABEF" stroke-width="2" stroke-miterlimit="10" x1="12.6" y1="53.6" x2="12.6" y2="58.6"></line>
            <line fill="none" stroke="#3BABEF" stroke-width="2" stroke-miterlimit="10" x1="17.6" y1="53.6" x2="17.6" y2="58.6"></line>
            <line fill="none" stroke="#3BABEF" stroke-width="2" stroke-miterlimit="10" x1="7.6" y1="53.6" x2="7.6" y2="58.6"></line>
            <line fill="none" stroke="#3BABEF" stroke-width="2" stroke-miterlimit="10" x1="5" y1="41.1" x2="0" y2="41.1"></line>
            <line fill="none" stroke="#3BABEF" stroke-width="2" stroke-miterlimit="10" x1="5" y1="46.1" x2="0" y2="46.1"></line>
            <line fill="none" stroke="#3BABEF" stroke-width="2" stroke-miterlimit="10" x1="5" y1="51.1" x2="0" y2="51.1"></line>
            <line fill="none" stroke="#3BABEF" stroke-width="2" stroke-miterlimit="10" x1="25" y1="41.1" x2="20" y2="41.1"></line>
            <line fill="none" stroke="#3BABEF" stroke-width="2" stroke-miterlimit="10" x1="25" y1="46.1" x2="20" y2="46.1"></line>
            <line fill="none" stroke="#3BABEF" stroke-width="2" stroke-miterlimit="10" x1="25" y1="51.1" x2="20" y2="51.1"></line>
            <rect x="5" y="38.6" fill="none" stroke="#3BABEF" stroke-width="2" stroke-miterlimit="10" width="15" height="15"></rect>
          </g>
          <rect x="90" y="77.8" transform="matrix(0.7071 0.7071 -0.7071 0.7071 83.6304 -41.8229)" fill="#FDD615" width="4.5" height="4.5"></rect>
          <rect x="90" y="97.8" transform="matrix(0.7071 0.7071 -0.7071 0.7071 97.7725 -35.965)" fill="#FDD615" width="4.5" height="4.5"></rect>
          <polygon fill="#3BABEF" points="89.1,122.3 92.3,117.1 95.5,122.3 "></polygon>
          <polygon fill="#3BABEF" points="69.1,122.3 72.3,117.1 75.5,122.3 "></polygon>
          <polygon fill="#3BABEF" points="29.1,122.3 32.3,117.1 35.5,122.3 "></polygon>
          <polygon fill="#3BABEF" points="49.1,122.3 52.3,117.1 55.5,122.3 "></polygon>
          <polygon fill="#3BABEF" points="9.1,122.3 12.3,117.1 15.5,122.3 "></polygon>
          <polygon fill="#00D09D" points="49.1,81.4 52.3,76.3 55.5,81.4 "></polygon>
          <polygon fill="#00D09D" points="49.1,101.4 52.3,96.3 55.5,101.4 "></polygon>
          <polygon fill="#00D09D" points="49.1,41.4 52.3,36.3 55.5,41.4 "></polygon>
          <polygon fill="#00D09D" points="49.1,61.4 52.3,56.3 55.5,61.4 "></polygon>
          <polygon fill="#00D09D" points="49.1,141.4 52.3,136.3 55.5,141.4 "></polygon>
          <polygon fill="#00D09D" points="49.1,161.4 52.3,156.3 55.5,161.4 "></polygon>
          <polygon fill="#00D09D" points="49.1,181.4 52.3,176.3 55.5,181.4 "></polygon>
          <polygon fill="#00D09D" points="89.1,181.4 92.3,176.3 95.5,181.4 "></polygon>
          <polygon fill="#00D09D" points="69.1,181.4 72.3,176.3 75.5,181.4 "></polygon>
          <polygon fill="#3BABEF" points="9.1,102.3 12.3,97.1 15.5,102.3 "></polygon>
          <polygon fill="#3BABEF" points="9.1,82.3 12.3,77.1 15.5,82.3 "></polygon>
          <rect x="90" y="137.8" fill="#00D09B" width="4.5" height="4.5"></rect>
          <rect x="110" y="137.8" fill="#00D09B" width="4.5" height="4.5"></rect>
          <rect x="130" y="137.8" fill="#00D09B" width="4.5" height="4.5"></rect>
          <rect x="150" y="137.8" fill="#00D09B" width="4.5" height="4.5"></rect>
          <rect x="170" y="137.8" fill="#00D09B" width="4.5" height="4.5"></rect>
          <rect x="170" y="117.8" fill="#00D09B" width="4.5" height="4.5"></rect>
          <rect x="170" y="97.8" fill="#00D09B" width="4.5" height="4.5"></rect>
          <rect x="170" y="77.8" fill="#00D09B" width="4.5" height="4.5"></rect>
          <rect x="130" y="117.8" fill="#3BABEF" width="4.5" height="4.5"></rect>
          <rect x="110" y="117.8" fill="#3BABEF" width="4.5" height="4.5"></rect>
          <rect x="90" y="157.8" fill="#3BABEF" width="4.5" height="4.5"></rect>
          <rect x="90" y="197.8" transform="matrix(0.7071 0.7071 -0.7071 0.7071 168.4832 -6.6757)" fill="#FDD615" width="4.5" height="4.5"></rect>
          <polygon fill="#3BABEF" points="89.1,222.3 92.3,217.1 95.5,222.3 "></polygon>
          <polygon fill="#00D09D" points="89.1,281.4 92.3,276.3 95.5,281.4 "></polygon>
          <rect x="90" y="237.8" fill="#00D09B" width="4.5" height="4.5"></rect>
          <rect x="90" y="297.8" transform="matrix(0.7071 0.7071 -0.7071 0.7071 239.1939 22.6136)" fill="#FDD615" width="4.5" height="4.5"></rect>
          <polygon fill="#3BABEF" points="89.1,322.3 92.3,317.1 95.5,322.3 "></polygon>
          <rect x="90" y="337.8" fill="#00D09B" width="4.5" height="4.5"></rect>
          <rect x="90" y="257.8" fill="#3BABEF" width="4.5" height="4.5"></rect>
          <rect x="130" y="97.8" fill="#3BABEF" width="4.5" height="4.5"></rect>
          <rect x="130" y="77.8" fill="#3BABEF" width="4.5" height="4.5"></rect>
          <rect x="130" y="57.8" fill="#3BABEF" width="4.5" height="4.5"></rect>
          <rect x="130" y="37.8" fill="#3BABEF" width="4.5" height="4.5"></rect>
          <rect x="90" y="356.7" fill="#3BABEF" width="4.5" height="4.5"></rect>
          <g>
            <line fill="none" stroke="#FDD615" stroke-width="2" stroke-miterlimit="10" x1="91.9" y1="46" x2="94.7" y2="46"></line>
            <line fill="none" stroke="#FDD615" stroke-width="2" stroke-miterlimit="10" x1="91.9" y1="36" x2="94.7" y2="36"></line>
            <line fill="none" stroke="#FDD615" stroke-width="2" stroke-miterlimit="10" x1="91.9" y1="41" x2="94.7" y2="41"></line>
            <path fill="none" stroke="#FDD615" stroke-width="2" stroke-miterlimit="10" d="M89.1,52c-0.3,0.2-0.5,0.4-0.7,0.6
              c-0.2,0.2-0.4,0.5-0.6,0.7c-0.2,0.3-0.3,0.6-0.5,0.8c-0.1,0.3-0.2,0.6-0.3,0.9c-0.1,0.3-0.1,0.7-0.1,1s0,0.7,0.1,1s0.2,0.6,0.3,0.9
              c0.1,0.3,0.3,0.6,0.5,0.8c0.2,0.3,0.4,0.5,0.6,0.7c0.2,0.2,0.5,0.4,0.7,0.6c0.3,0.2,0.6,0.3,0.8,0.5s0.6,0.2,0.9,0.3
              c0.3,0.1,0.7,0.1,1,0.1c0.3,0,0.7,0,1-0.1c0.3-0.1,0.6-0.2,0.9-0.3s0.6-0.3,0.8-0.5c0.3-0.2,0.5-0.4,0.7-0.6
              c0.2-0.2,0.4-0.5,0.6-0.7c0.2-0.3,0.3-0.6,0.5-0.8c0.1-0.3,0.2-0.6,0.3-0.9s0.1-0.7,0.1-1s0-0.7-0.1-1c-0.1-0.3-0.2-0.6-0.3-0.9
              c-0.1-0.3-0.3-0.6-0.5-0.8c-0.2-0.3-0.4-0.5-0.6-0.7c-0.2-0.2-0.5-0.4-0.7-0.6v-0.9V33.7c0-1.5-1.3-2.7-2.8-2.7
              c-1.5,0-2.8,1.2-2.8,2.7V51V52z"></path>
          </g>
          <g>
            <rect x="156.3" y="37.3" fill="none" stroke="#00D09D" stroke-width="2" stroke-miterlimit="10" width="30" height="20"></rect>
            <polygon fill="none" stroke="#00D09D" stroke-width="2" stroke-miterlimit="10" points="176.3,47.3 166.3,52.3 166.3,42.3 	"></polygon>
          </g>
        </svg>