<svg version="1.1" xmlns="http://www.w3.org/2000/svg" xmlns:xlink="http://www.w3.org/1999/xlink" xmlns:a="http://ns.adobe.com/AdobeSVGViewerExtensions/3.0/" x="0px" y="0px" width="204.2px" height="55px" viewBox="0 0 204.2 55" enable-background="new 0 0 204.2 55" xml:space="preserve">
          <defs>
          </defs>
          <g>
            <circle fill="none" stroke="#3BABEF" stroke-miterlimit="10" cx="27.5" cy="27.5" r="27"></circle>
            <path fill="#3BABEF" d="M27.5,9.7L27.5,9.7c-1.2,0-2.3-1-2.3-2.2v0c0-1.2,1-2.2,2.2-2.2h0c1.2,0,2.2,1,2.2,2.2v0
              C29.7,8.7,28.7,9.7,27.5,9.7z"></path>
            <path fill="#3BABEF" d="M27.5,29.7L27.5,29.7c-1.2,0-2.3-1-2.3-2.2v0c0-1.2,1-2.2,2.2-2.2h0c1.2,0,2.2,1,2.2,2.2v0
              C29.7,28.7,28.7,29.7,27.5,29.7z"></path>
            <path fill="#3BABEF" d="M27.5,49.7L27.5,49.7c-1.2,0-2.3-1-2.3-2.2v0c0-1.2,1-2.2,2.2-2.2h0c1.2,0,2.2,1,2.2,2.2v0
              C29.7,48.7,28.7,49.7,27.5,49.7z"></path>
            <path fill="#FDD615" d="M27.5,19.7L27.5,19.7c-1.2,0-2.3-1-2.3-2.2v0c0-1.2,1-2.2,2.2-2.2h0c1.2,0,2.2,1,2.2,2.2v0
              C29.7,18.7,28.7,19.7,27.5,19.7z"></path>
            <path fill="#FDD615" d="M27.5,39.7L27.5,39.7c-1.2,0-2.3-1-2.3-2.2v0c0-1.2,1-2.2,2.2-2.2h0c1.2,0,2.2,1,2.2,2.2v0
              C29.7,38.7,28.7,39.7,27.5,39.7z"></path>
            <path fill="#3BABEF" d="M44.5,29.7L44.5,29.7c-1.2,0-2.2-1-2.2-2.2v0c0-1.2,1-2.2,2.2-2.2h0c1.2,0,2.2,1,2.2,2.2v0
              C46.8,28.7,45.7,29.7,44.5,29.7z"></path>
            <path fill="#3BABEF" d="M44.5,19.7L44.5,19.7c-1.2,0-2.2-1-2.2-2.2v0c0-1.2,1-2.2,2.2-2.2h0c1.2,0,2.2,1,2.2,2.2v0
              C46.8,18.7,45.7,19.7,44.5,19.7z"></path>
            <path fill="#FDD615" d="M44.5,39.7L44.5,39.7c-1.2,0-2.2-1-2.2-2.2v0c0-1.2,1-2.2,2.2-2.2h0c1.2,0,2.2,1,2.2,2.2v0
              C46.8,38.7,45.7,39.7,44.5,39.7z"></path>
            <path fill="#00D09D" d="M10.5,29.7L10.5,29.7c-1.2,0-2.3-1-2.3-2.2v0c0-1.2,1-2.2,2.2-2.2h0c1.2,0,2.2,1,2.2,2.2v0
              C12.7,28.7,11.7,29.7,10.5,29.7z"></path>
            <path fill="#3BABEF" d="M10.5,19.7L10.5,19.7c-1.2,0-2.3-1-2.3-2.2v0c0-1.2,1-2.2,2.2-2.2h0c1.2,0,2.2,1,2.2,2.2v0
              C12.7,18.7,11.7,19.7,10.5,19.7z"></path>
            <path fill="#3BABEF" d="M10.5,39.7L10.5,39.7c-1.2,0-2.3-1-2.3-2.2v0c0-1.2,1-2.2,2.2-2.2h0c1.2,0,2.2,1,2.2,2.2v0
              C12.7,38.7,11.7,39.7,10.5,39.7z"></path>
            <path fill="#3BABEF" d="M36,9.7L36,9.7c-1.2,0-2.2-1-2.2-2.2v0c0-1.2,1-2.2,2.2-2.2h0c1.2,0,2.2,1,2.2,2.2v0
              C38.2,8.7,37.2,9.7,36,9.7z"></path>
            <path fill="#00D09D" d="M36,29.7L36,29.7c-1.2,0-2.2-1-2.2-2.2v0c0-1.2,1-2.2,2.2-2.2h0c1.2,0,2.2,1,2.2,2.2v0
              C38.2,28.7,37.2,29.7,36,29.7z"></path>
            <path fill="#3BABEF" d="M36,49.7L36,49.7c-1.2,0-2.2-1-2.2-2.2v0c0-1.2,1-2.2,2.2-2.2h0c1.2,0,2.2,1,2.2,2.2v0
              C38.2,48.7,37.2,49.7,36,49.7z"></path>
            <path fill="#3BABEF" d="M36,19.7L36,19.7c-1.2,0-2.2-1-2.2-2.2v0c0-1.2,1-2.2,2.2-2.2h0c1.2,0,2.2,1,2.2,2.2v0
              C38.2,18.7,37.2,19.7,36,19.7z"></path>
            <path fill="#3BABEF" d="M36,39.7L36,39.7c-1.2,0-2.2-1-2.2-2.2v0c0-1.2,1-2.2,2.2-2.2h0c1.2,0,2.2,1,2.2,2.2v0
              C38.2,38.7,37.2,39.7,36,39.7z"></path>
            <path fill="#00D09D" d="M19,9.7L19,9.7c-1.2,0-2.3-1-2.3-2.2v0c0-1.2,1-2.2,2.2-2.2h0c1.2,0,2.2,1,2.2,2.2v0
              C21.2,8.7,20.2,9.7,19,9.7z"></path>
            <path fill="#3BABEF" d="M19,29.7L19,29.7c-1.2,0-2.3-1-2.3-2.2v0c0-1.2,1-2.2,2.2-2.2h0c1.2,0,2.2,1,2.2,2.2v0
              C21.2,28.7,20.2,29.7,19,29.7z"></path>
            <path fill="#3BABEF" d="M19,35.2L19,35.2c-1.2,0-2.3,1-2.3,2.2v0c0,1.2,1,2.2,2.2,2.2h0c1.2,0,2.2-1,2.2-2.2v0
              C21.2,36.2,20.2,35.2,19,35.2z"></path>
            <path fill="#00D09D" d="M19,19.7L19,19.7c-1.2,0-2.3-1-2.3-2.2v0c0-1.2,1-2.2,2.2-2.2h0c1.2,0,2.2,1,2.2,2.2v0
              C21.2,18.7,20.2,19.7,19,19.7z"></path>
            <path fill="#FDD615" d="M19,45.2L19,45.2c-1.2,0-2.3,1-2.3,2.2v0c0,1.2,1,2.2,2.2,2.2h0c1.2,0,2.2-1,2.2-2.2v0
              C21.2,46.2,20.2,45.2,19,45.2z"></path>
            <circle fill="none" stroke="#3BABEF" stroke-miterlimit="10" cx="101.9" cy="27.5" r="27"></circle>
            <path fill="#3BABEF" d="M101.9,19.8L101.9,19.8c1.2,0,2.2-1,2.2-2.2v0c0-1.2-1-2.2-2.2-2.2l0,0c-1.2,0-2.2,1-2.2,2.2v0
              C99.6,18.8,100.6,19.8,101.9,19.8z"></path>
            <path fill="#3BABEF" d="M101.9,25.3L101.9,25.3c1.2,0,2.2,1,2.2,2.2v0c0,1.2-1,2.2-2.2,2.2l0,0c-1.2,0-2.2-1-2.2-2.2v0
              C99.6,26.3,100.6,25.3,101.9,25.3z"></path>
            <path fill="#3BABEF" d="M101.9,39.8L101.9,39.8c1.2,0,2.2-1,2.2-2.2v0c0-1.2-1-2.2-2.2-2.2l0,0c-1.2,0-2.2,1-2.2,2.2v0
              C99.6,38.8,100.6,39.8,101.9,39.8z"></path>
            <path fill="#FDD615" d="M101.9,9.8L101.9,9.8c1.2,0,2.2-1,2.2-2.2v0c0-1.2-1-2.2-2.2-2.2l0,0c-1.2,0-2.2,1-2.2,2.2v0
              C99.6,8.8,100.6,9.8,101.9,9.8z"></path>
            <path fill="#FDD615" d="M101.9,49.8L101.9,49.8c1.2,0,2.2-1,2.2-2.2v0c0-1.2-1-2.2-2.2-2.2l0,0c-1.2,0-2.2,1-2.2,2.2v0
              C99.6,48.8,100.6,49.8,101.9,49.8z"></path>
            <path fill="#3BABEF" d="M84.9,25.3L84.9,25.3c1.2,0,2.2,1,2.2,2.2v0c0,1.2-1,2.2-2.2,2.2l0,0c-1.2,0-2.2-1-2.2-2.2v0
              C82.6,26.3,83.6,25.3,84.9,25.3z"></path>
            <path fill="#3BABEF" d="M110.4,35.3L110.4,35.3c-1.2,0-2.2,1-2.2,2.2v0c0,1.2,1,2.2,2.2,2.2l0,0c1.2,0,2.2-1,2.2-2.2v0
              C112.6,36.3,111.6,35.3,110.4,35.3z"></path>
            <path fill="#FDD615" d="M84.9,15.3L84.9,15.3c1.2,0,2.2,1,2.2,2.2v0c0,1.2-1,2.2-2.2,2.2l0,0c-1.2,0-2.2-1-2.2-2.2v0
              C82.6,16.3,83.6,15.3,84.9,15.3z"></path>
            <path fill="#00D09D" d="M118.9,25.3L118.9,25.3c1.2,0,2.2,1,2.2,2.2v0c0,1.2-1,2.2-2.2,2.2l0,0c-1.2,0-2.2-1-2.2-2.2v0
              C116.6,26.3,117.6,25.3,118.9,25.3z"></path>
            <path fill="#3BABEF" d="M118.9,35.3L118.9,35.3c1.2,0,2.2,1,2.2,2.2v0c0,1.2-1,2.2-2.2,2.2l0,0c-1.2,0-2.2-1-2.2-2.2v0
              C116.6,36.3,117.6,35.3,118.9,35.3z"></path>
            <path fill="#3BABEF" d="M118.9,15.3L118.9,15.3c1.2,0,2.2,1,2.2,2.2v0c0,1.2-1,2.2-2.2,2.2l0,0c-1.2,0-2.2-1-2.2-2.2v0
              C116.6,16.3,117.6,15.3,118.9,15.3z"></path>
            <path fill="#3BABEF" d="M93.4,45.3L93.4,45.3c1.2,0,2.2,1,2.2,2.2v0c0,1.2-1,2.2-2.2,2.2l0,0c-1.2,0-2.2-1-2.2-2.2v0
              C91.1,46.3,92.1,45.3,93.4,45.3z"></path>
            <path fill="#00D09D" d="M93.4,25.3L93.4,25.3c1.2,0,2.2,1,2.2,2.2v0c0,1.2-1,2.2-2.2,2.2l0,0c-1.2,0-2.2-1-2.2-2.2v0
              C91.1,26.3,92.1,25.3,93.4,25.3z"></path>
            <path fill="#3BABEF" d="M93.4,5.3L93.4,5.3c1.2,0,2.2,1,2.2,2.2v0c0,1.2-1,2.2-2.2,2.2l0,0c-1.2,0-2.2-1-2.2-2.2v0
              C91.1,6.3,92.1,5.3,93.4,5.3z"></path>
            <path fill="#00D09D" d="M93.4,35.3L93.4,35.3c1.2,0,2.2,1,2.2,2.2v0c0,1.2-1,2.2-2.2,2.2l0,0c-1.2,0-2.2-1-2.2-2.2v0
              C91.1,36.3,92.1,35.3,93.4,35.3z"></path>
            <path fill="#3BABEF" d="M93.4,15.3L93.4,15.3c1.2,0,2.2,1,2.2,2.2v0c0,1.2-1,2.2-2.2,2.2l0,0c-1.2,0-2.2-1-2.2-2.2v0
              C91.1,16.3,92.1,15.3,93.4,15.3z"></path>
            <path fill="#00D09D" d="M110.4,45.3L110.4,45.3c1.2,0,2.2,1,2.2,2.2v0c0,1.2-1,2.2-2.2,2.2l0,0c-1.2,0-2.2-1-2.2-2.2v0
              C108.1,46.3,109.1,45.3,110.4,45.3z"></path>
            <path fill="#00D09D" d="M110.4,25.3L110.4,25.3c1.2,0,2.2,1,2.2,2.2v0c0,1.2-1,2.2-2.2,2.2l0,0c-1.2,0-2.2-1-2.2-2.2v0
              C108.1,26.3,109.1,25.3,110.4,25.3z"></path>
            <path fill="#00D09D" d="M110.4,5.3L110.4,5.3c1.2,0,2.2,1,2.2,2.2v0c0,1.2-1,2.2-2.2,2.2l0,0c-1.2,0-2.2-1-2.2-2.2v0
              C108.1,6.3,109.1,5.3,110.4,5.3z"></path>
            <path fill="#00D09D" d="M84.9,35.3L84.9,35.3c-1.2,0-2.2,1-2.2,2.2v0c0,1.2,1,2.2,2.2,2.2l0,0c1.2,0,2.2-1,2.2-2.2v0
              C87.1,36.3,86.1,35.3,84.9,35.3z"></path>
            <path fill="#FDD615" d="M110.4,15.3L110.4,15.3c1.2,0,2.2,1,2.2,2.2v0c0,1.2-1,2.2-2.2,2.2l0,0c-1.2,0-2.2-1-2.2-2.2v0
              C108.1,16.3,109.1,15.3,110.4,15.3z"></path>
            <circle fill="none" stroke="#3BABEF" stroke-miterlimit="10" cx="176.8" cy="27.5" r="27"></circle>
            <path fill="#3BABEF" d="M176.8,9.7L176.8,9.7c-1.2,0-2.2-1-2.2-2.2v0c0-1.2,1-2.2,2.2-2.2l0,0c1.2,0,2.2,1,2.2,2.2v0
              C179,8.7,178,9.7,176.8,9.7z"></path>
            <path fill="#3BABEF" d="M176.8,29.7L176.8,29.7c-1.2,0-2.2-1-2.2-2.2v0c0-1.2,1-2.2,2.2-2.2l0,0c1.2,0,2.2,1,2.2,2.2v0
              C179,28.7,178,29.7,176.8,29.7z"></path>
            <path fill="#3BABEF" d="M176.8,49.7L176.8,49.7c-1.2,0-2.2-1-2.2-2.2v0c0-1.2,1-2.2,2.2-2.2l0,0c1.2,0,2.2,1,2.2,2.2v0
              C179,48.7,178,49.7,176.8,49.7z"></path>
            <path fill="#FDD615" d="M176.8,19.7L176.8,19.7c-1.2,0-2.2-1-2.2-2.2v0c0-1.2,1-2.2,2.2-2.2l0,0c1.2,0,2.2,1,2.2,2.2v0
              C179,18.7,178,19.7,176.8,19.7z"></path>
            <path fill="#00D09D" d="M176.8,39.7L176.8,39.7c-1.2,0-2.2-1-2.2-2.2v0c0-1.2,1-2.2,2.2-2.2l0,0c1.2,0,2.2,1,2.2,2.2v0
              C179,38.7,178,39.7,176.8,39.7z"></path>
            <path fill="#00D09D" d="M193.8,29.7L193.8,29.7c-1.2,0-2.2-1-2.2-2.2v0c0-1.2,1-2.2,2.2-2.2l0,0c1.2,0,2.2,1,2.2,2.2v0
              C196,28.7,195,29.7,193.8,29.7z"></path>
            <path fill="#3BABEF" d="M193.8,19.7L193.8,19.7c-1.2,0-2.2-1-2.2-2.2v0c0-1.2,1-2.2,2.2-2.2l0,0c1.2,0,2.2,1,2.2,2.2v0
              C196,18.7,195,19.7,193.8,19.7z"></path>
            <path fill="#FDD615" d="M193.8,39.7L193.8,39.7c-1.2,0-2.2-1-2.2-2.2v0c0-1.2,1-2.2,2.2-2.2l0,0c1.2,0,2.2,1,2.2,2.2v0
              C196,38.7,195,39.7,193.8,39.7z"></path>
            <path fill="#FDD615" d="M159.8,29.7L159.8,29.7c-1.2,0-2.2-1-2.2-2.2v0c0-1.2,1-2.2,2.2-2.2l0,0c1.2,0,2.2,1,2.2,2.2v0
              C162,28.7,161,29.7,159.8,29.7z"></path>
            <path fill="#00D09D" d="M159.8,19.7L159.8,19.7c-1.2,0-2.2-1-2.2-2.2v0c0-1.2,1-2.2,2.2-2.2l0,0c1.2,0,2.2,1,2.2,2.2v0
              C162,18.7,161,19.7,159.8,19.7z"></path>
            <path fill="#3BABEF" d="M159.8,39.7L159.8,39.7c-1.2,0-2.2-1-2.2-2.2v0c0-1.2,1-2.2,2.2-2.2l0,0c1.2,0,2.2,1,2.2,2.2v0
              C162,38.7,161,39.7,159.8,39.7z"></path>
            <path fill="#00D09D" d="M185.2,9.7L185.2,9.7c-1.2,0-2.2-1-2.2-2.2v0c0-1.2,1-2.2,2.2-2.2l0,0c1.2,0,2.2,1,2.2,2.2v0
              C187.5,8.7,186.5,9.7,185.2,9.7z"></path>
            <path fill="#3BABEF" d="M185.2,29.7L185.2,29.7c-1.2,0-2.2-1-2.2-2.2v0c0-1.2,1-2.2,2.2-2.2l0,0c1.2,0,2.2,1,2.2,2.2v0
              C187.5,28.7,186.5,29.7,185.2,29.7z"></path>
            <path fill="#3BABEF" d="M185.2,49.7L185.2,49.7c-1.2,0-2.2-1-2.2-2.2v0c0-1.2,1-2.2,2.2-2.2l0,0c1.2,0,2.2,1,2.2,2.2v0
              C187.5,48.7,186.5,49.7,185.2,49.7z"></path>
            <path fill="#3BABEF" d="M185.2,19.7L185.2,19.7c-1.2,0-2.2-1-2.2-2.2v0c0-1.2,1-2.2,2.2-2.2l0,0c1.2,0,2.2,1,2.2,2.2v0
              C187.5,18.7,186.5,19.7,185.2,19.7z"></path>
            <path fill="#3BABEF" d="M185.2,39.7L185.2,39.7c-1.2,0-2.2-1-2.2-2.2v0c0-1.2,1-2.2,2.2-2.2l0,0c1.2,0,2.2,1,2.2,2.2v0
              C187.5,38.7,186.5,39.7,185.2,39.7z"></path>
            <path fill="#FDD615" d="M168.2,9.7L168.2,9.7c-1.2,0-2.2-1-2.2-2.2v0c0-1.2,1-2.2,2.2-2.2l0,0c1.2,0,2.2,1,2.2,2.2v0
              C170.5,8.7,169.5,9.7,168.2,9.7z"></path>
            <path fill="#3BABEF" d="M168.2,29.7L168.2,29.7c-1.2,0-2.2-1-2.2-2.2v0c0-1.2,1-2.2,2.2-2.2l0,0c1.2,0,2.2,1,2.2,2.2v0
              C170.5,28.7,169.5,29.7,168.2,29.7z"></path>
            <path fill="#FDD615" d="M168.2,49.7L168.2,49.7c-1.2,0-2.2-1-2.2-2.2v0c0-1.2,1-2.2,2.2-2.2l0,0c1.2,0,2.2,1,2.2,2.2v0
              C170.5,48.7,169.5,49.7,168.2,49.7z"></path>
            <path fill="#3BABEF" d="M168.2,19.7L168.2,19.7c-1.2,0-2.2-1-2.2-2.2v0c0-1.2,1-2.2,2.2-2.2l0,0c1.2,0,2.2,1,2.2,2.2v0
              C170.5,18.7,169.5,19.7,168.2,19.7z"></path>
            <path fill="#00D09D" d="M168.2,39.7L168.2,39.7c-1.2,0-2.2-1-2.2-2.2v0c0-1.2,1-2.2,2.2-2.2l0,0c1.2,0,2.2,1,2.2,2.2v0
              C170.5,38.7,169.5,39.7,168.2,39.7z"></path>
            <polyline fill="none" stroke="#FDD615" stroke-miterlimit="10" points="44.4,37.5 18.9,47.5 27.4,37.5 27.4,17.5 44.4,37.5
              84.8,17.5 101.9,7.5 110.4,17.5 101.9,47.5 159.7,27.5 168.2,7.5 176.7,17.5 193.7,37.5 168.2,47.5 159.7,27.5 	"></polyline>
            <line fill="none" stroke="#FDD615" stroke-miterlimit="10" x1="110.4" y1="17.5" x2="168.2" y2="47.5"></line>
            <line fill="none" stroke="#FDD615" stroke-miterlimit="10" x1="101.9" y1="47.5" x2="84.8" y2="17.5"></line>
          </g>
        </svg>