<?xml version="1.0" encoding="UTF-8"?>
<svg width="66px" height="77px" viewBox="0 0 66 77" version="1.1" xmlns="http://www.w3.org/2000/svg" xmlns:xlink="http://www.w3.org/1999/xlink">
    <!-- Generator: Sketch 48.2 (47327) - http://www.bohemiancoding.com/sketch -->
    <title>Services_White</title>
    <desc>Created with Sketch.</desc>
    <defs></defs>
    <g id="FKOM_Scope" stroke="none" stroke-width="1" fill="none" fill-rule="evenodd">
        <g id="Services_White" fill="#FFFFFF" fill-rule="nonzero">
            <path d="M30.1064238,72.2271091 C28.0598173,72.2271091 26.4007149,70.5778864 26.4007149,68.5434671 C26.4007149,66.5090478 28.0598173,64.8598251 30.1064238,64.8598251 C32.1530304,64.8598251 33.8121327,66.5090478 33.8121327,68.5434671 C33.8099366,70.5769814 32.15212,72.224926 30.1064238,72.2271091 Z M30.1064238,66.4441872 C28.9405973,66.4441893 27.9953042,67.3832653 27.9945724,68.5421493 C27.9938406,69.7010332 28.9379469,70.6412882 30.1037724,70.6427453 C31.269598,70.6442023 32.2160798,69.7063101 32.2182795,68.547428 C32.2182815,67.3873853 31.2734137,66.4463719 30.1064238,66.4441872 Z M47.6746718,68.7692387 L47.6746718,71.0229938 C47.6746718,74.1521091 46.3916199,75.4275206 43.2477442,75.4275206 L16.9730727,75.4275206 C13.8212278,75.4275206 12.5341913,74.1521091 12.5341913,71.0229938 L12.5341913,67.7314815 L10.940338,67.7314815 L10.940338,71.0111111 C10.940338,75.0393519 12.9326546,77 16.9730727,77 L43.2477442,77 C47.3001162,77 49.2685251,75.0393519 49.2685251,71.0111111 L49.2685251,70.3417181 L47.6746718,68.7692387 Z M62.9437863,50.176749 L58.8794604,43.1738683 C58.8236755,43.0748457 58.7639061,42.9837449 58.7001519,42.892644 L58.61249,42.7619342 L58.5527205,42.6708333 C58.4411508,42.5044753 58.3216118,42.35 58.1980881,42.1955247 L58.1741803,42.1638374 L58.1024569,42.0766975 C57.9749487,41.9261831 57.8434558,41.7835905 57.6800858,41.6172325 L57.5964085,41.5300926 C57.460931,41.3993827 57.3254535,41.2765947 57.1979452,41.1577675 L57.1660681,41.1300412 L57.0385599,41.0230967 C56.907067,40.9201132 56.7755741,40.8210905 56.6400965,40.7299897 L56.4010185,40.5675926 C56.2854642,40.4923354 56.1659252,40.4210391 56.0503708,40.3537037 L55.7236309,40.175463 L55.428768,40.0328704 C55.2932905,39.9694959 55.1538283,39.9100823 55.0303047,39.8585905 L54.7832575,39.7674897 C54.6278568,39.712037 54.4684714,39.6605453 54.3090861,39.6169753 L54.125793,39.5694444 L54.081962,39.5694444 C53.918592,39.5298354 53.7512374,39.4902263 53.5838828,39.4625 L53.3846512,39.4308128 L53.332851,39.4308128 C53.169481,39.4070473 53.0100957,39.3872428 52.8427411,39.3713992 L52.615617,39.3713992 L52.4602163,39.3713992 L52.2091844,39.3713992 L49.3043868,39.3713992 L49.3043868,5.99284979 C49.2685251,1.96064815 47.3001162,0 43.2477442,0 L16.9730727,0 C12.9127314,0 10.940338,1.96064815 10.940338,5.98888889 L10.940338,28.4947531 L6.29027101,25.8290638 C5.00744461,25.0540291 3.4030694,25.0300042 2.09733982,25.7662763 C0.791610236,26.5025484 -0.010869306,27.8837457 0.000111262238,29.3759462 C0.0110918305,30.8681468 0.833811883,32.2375268 2.15023709,32.9547325 L7.75263141,36.1709877 L7.75263141,34.3410494 L2.94716373,31.5684156 C1.73607482,30.8699743 1.31954156,29.3305469 2.01475956,28.122428 C2.35233247,27.5409012 2.90851315,27.1165293 3.5609041,26.942703 C4.21329506,26.7688766 4.90843442,26.8598404 5.49334437,27.1955761 L10.940338,30.3207305 L10.940338,36.1670267 L12.5341913,36.1670267 L12.5341913,5.98888889 C12.5341913,2.85977366 13.8212278,1.58436214 16.9730727,1.58436214 L43.2477442,1.58436214 C46.3916199,1.58436214 47.6746718,2.85977366 47.6746718,5.99284979 L47.6746718,39.335751 L40.0201913,39.335751 C37.9613223,39.3257864 35.9845906,40.1377417 34.5333514,41.5895062 L25.3487718,50.7352366 L25.9106051,51.2937243 L26.9187173,52.2839506 L27.6080588,52.9691872 C30.6302477,55.9598075 35.5157189,55.9598075 38.5379078,52.9691872 L41.327151,50.1965535 L47.6627179,50.1965535 L47.6627179,61.1128086 C47.6692683,65.3521467 51.1202258,68.7896346 55.3849371,68.8048868 L55.7834004,68.8048868 L55.7834004,67.2205247 L55.3849371,67.2205247 C51.9995777,67.2074502 49.2609308,64.4780313 49.2565712,61.1128086 L49.2565712,48.6042695 L40.6776558,48.6042695 L37.4062719,51.8522119 C35.0432483,54.1927593 31.2342635,54.2349269 28.8193873,51.9472737 L28.7317254,51.8601337 L27.6000895,50.7352366 L35.6610026,42.7223251 C36.810879,41.565347 38.3800885,40.9159979 40.0162067,40.9201132 L52.1693381,40.9201132 L52.3127848,40.9201132 L52.5120165,40.9201132 L52.6753865,40.9201132 C52.8068794,40.9201132 52.9343876,40.9478395 53.0738498,40.967644 L53.1376039,40.967644 L53.2730815,40.9874486 C53.408559,41.011214 53.5400519,41.0429012 53.6715448,41.0745885 L53.7193604,41.0745885 L53.8548379,41.1102366 C53.9823462,41.1458848 54.1098544,41.1894547 54.2533012,41.2330247 L54.4485483,41.304321 C54.560118,41.3478909 54.6677031,41.3954218 54.7752882,41.4429527 L55.0103815,41.5578189 L55.2693827,41.7004115 L55.548307,41.8667695 L55.7355848,41.9935185 C55.8431699,42.0687757 55.950755,42.1479938 56.0503708,42.2272119 L56.1738944,42.3301955 C56.2854642,42.4252572 56.3970339,42.5242798 56.5086036,42.6312243 L56.5962656,42.7183642 C56.7038507,42.8292695 56.8114358,42.9441358 56.9150362,43.062963 L56.9907443,43.1540638 C57.0903601,43.2768519 57.1859913,43.3996399 57.2776379,43.5501543 L57.4131154,43.7561214 C57.4569463,43.8194959 57.4967927,43.8828704 57.536639,43.9462449 L60.752238,49.4915123 L66,58.5223765 L66,55.3536523 L62.9437863,50.176749 Z M12.1277587,64.5627572 L10.0159031,64.5627572 C8.05182103,64.5627572 6.45961793,62.9800354 6.45961793,61.0276492 C6.45961793,59.0752629 8.05182103,57.4925412 10.0159031,57.4925412 L12.1277587,57.4925412 C14.0918408,57.4925412 15.6840439,59.0752629 15.6840439,61.0276492 C15.6840439,62.9800354 14.0918408,64.5627572 12.1277587,64.5627572 Z M10.0159031,59.0769033 C9.31479368,59.0769033 8.66694185,59.4487133 8.31638714,60.0522762 C7.96583242,60.6558391 7.96583242,61.3994593 8.31638714,62.0030222 C8.66694185,62.606585 9.31479368,62.9783951 10.0159031,62.9783951 L12.1277587,62.9783951 C13.2115799,62.9783951 14.0901906,62.1050164 14.0901906,61.0276492 C14.0901906,59.950282 13.2115799,59.0769033 12.1277587,59.0769033 L10.0159031,59.0769033 Z M14.7775398,46.7624486 C14.950772,46.6429562 15.1146142,46.5105444 15.2676497,46.366358 C16.4527547,45.1893241 16.8074519,43.4183399 16.1662158,41.8798652 C15.5249796,40.3413904 14.0142145,39.3386983 12.3389443,39.3397119 L10.6016442,39.3397119 C8.93681877,39.3481712 7.43904894,40.3471114 6.79995813,41.875253 C6.16086732,43.4033946 6.50479999,45.1634154 7.67293875,46.3425926 C7.82604484,46.4866991 7.9898807,46.6191058 8.16304863,46.7386831 C6.71499651,47.7872268 6.11065879,49.6432686 6.66601053,51.3363861 C7.22136227,53.0295036 8.81013402,54.1747353 10.6016442,54.1733025 L12.3429289,54.1733025 C14.1337047,54.1730191 15.7208894,53.0271905 16.2751932,51.334502 C16.829497,49.6418134 16.2249974,47.7867974 14.7775398,46.7386831 L14.7775398,46.7624486 Z M10.6016442,40.9201132 L12.3429289,40.9201132 C13.373156,40.9196041 14.3021678,41.5362729 14.696488,42.4823824 C15.0908081,43.4284919 14.8727199,44.5175729 14.1439831,45.2414609 C13.6846834,45.7119385 13.05424,45.9788881 12.3947291,45.9821502 L10.53789,45.9821502 C9.88105625,45.9772117 9.2537132,45.7103592 8.79660532,45.2414609 C8.06786853,44.5175729 7.84978031,43.4284919 8.24410047,42.4823824 C8.63842063,41.5362729 9.5674324,40.9196041 10.5976595,40.9201132 L10.6016442,40.9201132 Z M34.5333514,41.5895062 L28.3412313,47.7645576 L28.324002,47.7645576 L25.3487718,50.7233539 L25.9106051,51.2818416 L26.9187173,52.2839506 L27.6200127,52.9612654 C30.6422016,55.9518857 35.5276728,55.9518857 38.5498617,52.9612654 L41.3391049,50.1886317 L44.3395337,50.1846708 L44.3395337,61.6712963 L15.8733139,61.6712963 L15.8733139,52.2324588 C16.682608,50.9242765 16.682608,49.2747462 15.8733139,47.9665638 L15.8733139,45.5900206 C16.6821833,44.2788675 16.6821833,42.6273567 15.8733139,41.3162037 L15.8733139,6.02453704 L44.3395337,6.02453704 L44.3395337,39.3199074 L40.0201913,39.3199074 C37.9590102,39.3141274 35.9819487,40.1319271 34.5333514,41.5895062 Z M14.1399985,51.8878601 C13.6634907,52.364303 13.0147984,52.6310798 12.3389443,52.6285494 L10.5976595,52.6285494 C9.19144283,52.6372995 8.04434305,51.5112174 8.03554045,50.1133745 C8.02673784,48.7155316 9.15956577,47.5752626 10.5657825,47.5665123 L12.3708213,47.5665123 C13.3952557,47.5786834 14.3125694,48.200008 14.6987537,49.1432921 C15.084938,50.0865762 14.8647624,51.1680637 14.1399985,51.8878601 Z" id="Services_Icon"></path>
        </g>
    </g>
</svg>